<svg width="82" height="109" viewBox="0 0 82 109" fill="none" xmlns="http://www.w3.org/2000/svg">
<path d="M34.3161 100.628C35.3647 100.753 36.3748 100.793 37.2951 101.184C38.1603 101.551 44.1026 101.346 44.4206 100.67C44.6022 100.17 44.5831 98.0957 44.4645 97.9863C43.8049 97.4256 34.6604 98.7594 34.4769 99.3443C34.3583 99.7224 34.2822 100.342 34.3159 100.628L34.3161 100.628Z" fill="#BAB9C9" stroke="black"/>
<path d="M42.367 83.817C44.0463 85.7213 41.5119 89.2502 42.4877 91.6451C42.7328 92.2466 43.5327 92.4319 43.8162 93.014C43.4262 94.9855 44.3702 97.1393 44.5811 98.2329C34.767 97.3363 35.5534 102.111 34.3558 101.356C32.2905 100.2 32.4237 96.7592 32.1416 94.2975C31.712 90.5489 30.2804 85.4516 32.987 83.0044C35.3761 80.8442 40.222 81.3848 42.367 83.8172L42.367 83.817Z" fill="#A4A2CA" stroke="black"/>
<path d="M39.8307 89.5906C38.8938 88.9064 34.9777 90.3682 36.0465 92.0717C36.5851 92.9302 39.3443 92.1349 40.2333 92.3711C40.6885 92.492 41.1539 92.5821 41.5618 92.7989C42.0396 93.0527 42.1045 94.9703 43.1319 94.4244C43.3722 94.2967 43.2571 93.8398 43.1721 93.5689C43.0456 93.1655 41.7949 92.6955 41.5618 92.2C41.2589 91.5563 41.174 90.9209 40.958 90.2323C40.8654 89.9371 40.0786 89.854 39.8307 89.5906H39.8307Z" fill="#C9C8DE"/>
<path d="M37.9387 95.9646C37.681 96.597 37.2186 97.4935 37.7776 97.8895C38.3967 98.3281 39.5224 97.4117 40.0722 97.1195C40.709 96.7812 42.9221 97.993 43.3734 97.034C43.7588 96.215 37.9386 94.067 37.9386 95.9646L37.9387 95.9646Z" fill="#C9C8DE"/>
<path d="M42.9707 99.1296C42.3074 99.0104 40.7813 99.6869 39.4541 99.9754C37.441 100.413 36.1993 100.57 41.602 100.541C42.1545 100.538 42.7861 100.792 43.3733 100.584C43.781 100.44 44.0298 98.8483 42.9707 99.1296H42.9707Z" fill="white"/>
<path d="M42.971 92.3711L40.5154 89.9329L42.5283 91.4728" fill="black"/>
<path d="M44.2184 97.1188C42.6507 94.8727 36.4648 93.8227 35.1604 96.5627C36.132 94.7057 38.1589 93.6342 43.8158 95.9638" fill="black"/>
<path d="M44.5254 97.5752C44.3541 98.3487 43.8261 99.2185 44.1631 99.9279C44.4281 100.486 45.1593 100.646 45.7331 100.783C48.2088 101.375 50.8065 100.637 53.3419 100.527C54.6565 100.269 57.1903 100.87 57.6897 100.356C58.0917 99.8953 57.9938 98.9504 57.6092 98.4735C54.83 95.0272 48.7218 93.4618 45.0489 95.7785C44.5416 96.0985 44.6607 96.9649 44.5256 97.5752L44.5254 97.5752Z" fill="#F2F1F9" stroke="black"/>
<path d="M44.161 82.6085C42.2403 84.9106 45.3876 88.9356 44.4172 91.8341C44.2616 92.2988 43.6398 92.4809 43.5063 92.9533C43.2531 93.8492 43.1685 95.1411 43.8479 95.7361C43.9653 95.8389 44.1919 95.5958 44.3034 95.7059C44.9567 96.3511 43.5254 98.1441 44.3318 98.5492C44.6518 97.7044 45.2562 97.3269 45.9259 97.188C48.7325 98.5165 51.9954 98.7467 55.0637 99.7591C56.2368 99.731 57.6669 100.184 58.3824 99.196C58.389 96.7537 58.8461 94.7007 58.6504 93.2256C58.4156 92.3457 58.0504 92.1321 57.8024 91.2564C56.9329 88.1859 59.5279 83.5153 57.3125 81.3382C54.0807 78.1624 47.0812 79.1086 44.161 82.6086L44.161 82.6085Z" fill="#A4A2CA" stroke="black"/>
<path d="M43.5188 93.2969L47.1017 87.9927L44.6862 90.8587" fill="black"/>
<path d="M58.3327 98.0011L52.3342 92.7394L58.4937 97.2737" fill="black"/>
<path d="M44.5253 95.8643L45.572 93.1694L44.002 95.5649" fill="black"/>
<path d="M51.1274 92.5274C50.8825 92.3904 45.9916 95.7538 47.1822 97.0191C47.9766 97.8632 48.9172 96.5293 49.6781 96.9335C50.7515 97.5038 55.0557 99.7497 55.7569 98.2596C56.7336 96.1841 52.8258 94.6398 52.174 93.2547C51.6081 92.0521 52.8406 92.0791 53.5025 92.3136C53.86 92.4402 56.1602 96.2269 57.327 94.3669C59.2724 91.2664 55.5316 90.3674 55.2336 89.5759C54.6214 87.9494 56.7711 88.7793 55.5154 86.1109C55.2344 85.5136 53.5719 87.6509 53.4623 87.6509C50.6835 87.6509 49.301 86.372 48.2691 89.6614C48.1087 90.1728 47.3362 90.0185 47.1419 90.4314C45.6782 93.5421 53.2399 88.7864 51.1274 92.5275L51.1274 92.5274Z" fill="#C7C8DD"/>
<path d="M73.3778 99.7796C74.891 99.8054 76.3672 99.2457 77.84 98.8715C78.5702 98.686 79.3458 98.5908 80.0034 98.206C80.3921 97.9786 81.0109 97.7396 80.9998 97.2683C80.9922 96.9456 80.2881 96.6634 80.2881 96.6634L77.6692 98.0245L80.3166 96.6936C80.3166 96.6936 80.3209 96.1337 80.1458 95.9677C79.7673 95.6088 78.637 95.7559 78.637 95.7559L76.7298 96.9961L78.8648 95.8769C78.8648 95.8769 78.5717 95.4523 78.3524 95.3627C77.9714 95.2072 77.1283 95.393 77.1283 95.393L74.9079 96.4819L77.0429 95.393C77.0429 95.393 76.8455 94.5958 76.5305 94.5158C75.926 94.3621 74.9364 95.5442 74.9364 95.5442L76.132 94.7275C76.132 94.7275 75.3446 94.9199 75.0218 94.7275C74.8472 94.6235 74.8995 94.2471 74.7087 94.183C74.4818 94.1069 74.2677 94.5966 74.054 94.4855C73.7108 94.3072 74.0964 93.5156 73.7693 93.3059C73.4186 93.0809 72.5737 93.6083 72.5737 93.6083L71.8336 94.425L72.5168 93.6688C72.5168 93.6688 72.0719 92.5163 71.5774 92.3984C70.9563 92.2504 70.4421 93.0107 69.8694 93.3059C68.7656 93.8746 66.5388 94.9695 66.5388 94.9695L69.8694 93.3059C69.8694 93.3059 69.2991 92.9823 68.9869 92.9126C68.439 92.7904 67.8487 92.7304 67.3074 92.8824C66.3697 93.1457 64.8024 94.4553 64.8024 94.4553L66.7096 93.3966C66.7096 93.3966 66.2111 92.9742 65.9126 92.8824C65.3929 92.7227 64.8006 92.6625 64.29 92.8521C63.7837 93.0402 62.4473 94.2465 62.0859 94.678" fill="white"/>
<path d="M73.3778 99.7796C74.891 99.8054 76.3672 99.2457 77.84 98.8715C78.5702 98.686 79.3458 98.5908 80.0034 98.206C80.3921 97.9786 81.0109 97.7396 80.9998 97.2683C80.9922 96.9456 80.2881 96.6634 80.2881 96.6634L77.6692 98.0245L80.3166 96.6936C80.3166 96.6936 80.3209 96.1337 80.1458 95.9677C79.7673 95.6088 78.637 95.7559 78.637 95.7559L76.7298 96.9961L78.8648 95.8769C78.8648 95.8769 78.5717 95.4523 78.3524 95.3627C77.9714 95.2072 77.1283 95.393 77.1283 95.393L74.9079 96.4819L77.0429 95.393C77.0429 95.393 76.8455 94.5958 76.5305 94.5158C75.926 94.3621 74.9364 95.5442 74.9364 95.5442L76.132 94.7275C76.132 94.7275 75.3446 94.9199 75.0218 94.7275C74.8472 94.6235 74.8995 94.2471 74.7087 94.183C74.4818 94.1069 74.2677 94.5966 74.054 94.4855C73.7108 94.3072 74.0964 93.5156 73.7693 93.3059C73.4186 93.0809 72.5737 93.6083 72.5737 93.6083L71.8336 94.425L72.5168 93.6688C72.5168 93.6688 72.0719 92.5163 71.5774 92.3984C70.9563 92.2504 70.4421 93.0107 69.8694 93.3059C68.7656 93.8746 66.5388 94.9695 66.5388 94.9695L69.8694 93.3059C69.8694 93.3059 69.2991 92.9823 68.9869 92.9126C68.439 92.7904 67.8487 92.7304 67.3074 92.8824C66.3697 93.1457 64.8024 94.4553 64.8024 94.4553L66.7096 93.3966C66.7096 93.3966 66.2111 92.9742 65.9126 92.8824C65.3929 92.7227 64.8006 92.6625 64.29 92.8521C63.7837 93.0402 62.4473 94.2465 62.0859 94.678" stroke="black"/>
<path d="M57.5995 56.9462C59.5404 60.1449 60.3769 84.9001 62.4304 93.3913C64.2291 95.6835 67.4277 96.9216 69.8781 97.9684C70.9369 98.2868 72.1224 97.5676 73.0584 98.1823C73.5008 98.6342 73.5563 99.9211 73.1389 100.364C70.0374 99.6897 59.9191 100.91 58.5657 99.38C58.5643 97.4649 58.5782 95.3636 58.5358 93.0889C58.5223 92.3666 58.0881 91.7558 58.1034 90.9481C58.3234 79.3153 56.5826 61.356 57.5995 56.9446L57.5995 56.9462Z" fill="white" stroke="black"/>
<path d="M60.6467 81.8148C59.7547 82.3192 58.8732 82.6455 58.0562 81.8753L57.9922 81.8829C58.0962 85.0507 58.1555 88.1328 58.1061 90.8665L58.1701 90.8589C60.2624 91.4286 60.8653 90.4157 61.7284 89.6793L61.7355 89.6717C61.3927 87.4035 61.0796 84.7118 60.789 81.8527L60.6467 81.8149L60.6467 81.8148Z" fill="#9866A1"/>
<path d="M66.9024 96.6581L66.8811 96.6656C66.7912 98.5373 64.5024 99.281 62.2695 100.053L62.419 100.167C66.039 100.292 71.0978 99.9203 73.1365 100.363C73.5539 99.9206 73.5006 98.6375 73.0582 98.1856C72.1221 97.5709 70.9359 98.2847 69.877 97.9663C68.9538 97.5719 67.9231 97.153 66.9024 96.6581L66.9024 96.6581Z" fill="#9866A1"/>
<path d="M58.4044 64.9123C58.0503 64.9031 57.7053 65.0829 57.3725 65.3887L57.344 65.5323C57.4098 67.8528 57.5158 70.4608 57.6358 73.1698C58.6728 72.387 59.336 72.5082 59.906 72.8598L59.9344 72.8371C59.6845 70.1448 59.4403 67.5389 59.1801 65.2374C58.9128 65.0225 58.6576 64.9187 58.4044 64.9122L58.4044 64.9123Z" fill="#9866A1"/>
<path d="M59.1377 83.9878C59.0795 84.2577 58.4848 83.8933 58.3691 84.1391C58.3656 84.1467 59.4952 85.9792 59.5932 86.1354C59.7115 86.324 59.1168 90.6801 60.5895 90.1584C60.8044 90.0823 61.0418 89.6511 61.1304 89.4627C61.3485 88.9991 60.5041 88.38 60.5041 87.8293C60.5041 86.8303 60.942 84.9159 60.618 83.9274C59.9493 81.8873 59.3363 83.0673 59.1377 83.9878Z" fill="#AF8BAF"/>
<path d="M57.5995 56.9462C59.5404 60.1449 60.3769 84.9001 62.4304 93.3913C64.2291 95.6835 67.4277 96.9216 69.8781 97.9684C70.9369 98.2868 72.1224 97.5676 73.0584 98.1823C73.5008 98.6342 73.5563 99.9211 73.1389 100.364C70.0374 99.6897 59.9191 100.91 58.5657 99.38C58.5643 97.4649 58.5782 95.3636 58.5358 93.0889C58.5223 92.3666 58.0881 91.7558 58.1034 90.9481C58.3234 79.3153 56.5826 61.356 57.5995 56.9446L57.5995 56.9462Z" stroke="black"/>
<path d="M31.5538 82.9522C30.9772 83.583 30.8619 85.3682 31.6632 85.5876C32.3971 85.7886 32.0929 83.4674 32.8488 83.5261C33.5835 83.5831 32.9783 85.7077 33.7147 85.6866C34.2395 85.6715 33.7281 84.0947 34.2528 84.1137C34.7857 84.1329 34.1696 85.6555 34.6959 85.7471C35.2083 85.8362 35.067 84.317 35.5821 84.3859C36.0339 84.4463 35.7072 85.4371 36.0569 85.7471C36.3755 86.0295 36.9606 86.2549 37.2827 85.9769C37.5406 85.7543 36.946 84.9449 37.3143 84.9182C37.6672 84.8927 37.2785 85.6559 37.5042 85.9164C37.6917 86.1327 38.0511 86.3142 38.3272 86.2189C38.6938 86.0922 38.6042 85.1849 38.9889 85.2109C39.3771 85.2372 39.1459 86.2437 39.5299 86.3096C39.9909 86.3887 40.0725 85.2254 40.5371 85.2751C40.8371 85.3072 40.7519 86.0136 41.0492 86.0676C41.4377 86.1383 41.6132 85.2766 42.0045 85.327C42.3567 85.3723 42.3354 86.1716 42.6896 86.1923C43.1035 86.2165 43.1764 85.312 43.5898 85.2805C43.8986 85.257 44.0383 85.8839 44.3464 85.8525C44.665 85.8199 44.6886 85.1238 45.0085 85.1137C45.2692 85.1055 45.3201 85.6708 45.5808 85.6807C45.9417 85.6945 46.0649 84.9975 46.4241 84.9582C46.7851 84.9187 47.0378 85.5635 47.3931 85.4854C47.8161 85.3923 47.7855 84.4355 48.2173 84.4228C48.6379 84.4105 48.6565 85.474 49.0728 85.409C49.5374 85.3365 49.226 84.1447 49.6893 84.0631C50.0386 84.0015 50.0849 84.8969 50.4377 84.8642C50.7829 84.8323 50.6886 84.0102 51.0315 83.9574C51.4043 83.9 51.5375 84.7293 51.9135 84.7078C52.3967 84.6802 52.4596 83.6421 52.943 83.6202C53.306 83.6038 53.4154 84.3792 53.7784 84.3639C54.1743 84.3472 54.2369 83.5565 54.6263 83.4789C54.9935 83.4057 54.9496 84.1656 55.2541 84.1867C55.6048 84.211 55.5887 83.4121 56.0708 83.4783C56.3451 83.516 56.5382 84.4716 56.8621 84.2894C57.1089 84.1505 56.5026 83.5981 56.7201 83.4119C57.1392 83.0532 57.8934 84.5134 58.2165 84.0561C58.3399 83.8816 57.78 83.7522 57.8351 83.5419C57.9035 83.2804 58.4859 83.5167 58.5522 83.2545C58.6428 82.8961 58.0839 82.7005 57.889 82.3925C57.7654 82.1972 57.7685 81.8789 57.571 81.7724C56.0335 80.9431 54.1698 82.429 52.4436 82.4983C51.4402 82.5386 50.351 81.9195 49.4369 82.3169C49.0738 82.4746 49.068 83.0585 48.7089 83.2243C43.5592 85.6019 35.5385 78.593 31.5541 82.9521L31.5538 82.9522Z" fill="#D3AFD5" stroke="black" stroke-width="1.0544"/>
<path d="M29.6934 53.6794C43.9569 48.1888 50.3755 53.2085 57.9548 56.6737C56.8479 65.1848 57.5238 73.8415 58.3574 82.5103C55.1441 83.5308 51.6357 83.0651 48.2867 84.0456C43.1449 85.551 37.5749 85.7242 30.9823 83.3659L29.6934 53.6794Z" fill="#FAFCF8" stroke="black"/>
<path d="M35.1929 83.0272C37.4798 85.0331 41.9832 81.241 44.0744 81.3333C46.1657 81.4256 46.6425 82.7959 47.4904 82.3012C48.3382 81.8065 47.0466 81.1952 48.1736 80.0024C49.3005 78.8096 53.9782 79.5915 55.1194 77.7035C56.2606 75.8156 54.0506 73.5061 54.4362 72.0169C54.8218 70.5278 56.1925 70.66 56.4858 69.2341C56.779 67.8082 55.3026 65.7176 55.3471 64.1525C55.3917 62.5873 57.6948 63.4011 56.4858 60.1597C55.2768 56.9184 46.2866 52.909 42.8219 51.8113C39.3572 50.7137 38.1712 50.0532 36.9009 51.4483C35.6306 52.8435 37.88 55.2828 37.3563 56.772C36.8327 58.2611 35.0812 58.0769 34.5097 59.6758C33.9382 61.2747 35.389 64.0172 34.9652 65.7254C34.5413 67.4335 32.5995 67.8876 32.574 69.4761C32.5485 71.0645 34.4431 71.422 35.079 73.7108C35.715 75.9996 32.9061 81.0214 35.1929 83.0272Z" fill="#DAD6F9"/>
<path d="M35.0698 49.3477C36.3223 56.8288 43.0106 63.0287 43.2258 70.2894L32.1952 74.3104C28.6225 67.6019 27.5816 58.083 28.0568 49.9814L35.0698 49.3477Z" fill="#F9F9F9" stroke="black"/>
<path d="M33.376 60.4232C34.0802 59.5086 36.2686 62.0356 36.6772 60.9365C37.1093 59.774 33.5712 60.028 33.7786 58.7977C33.9301 57.8989 36.1356 59.0143 36.2746 58.1132C36.4971 56.6691 32.5735 57.1589 32.8124 55.7177C33.0179 54.4778 36.1762 56.1168 36.2746 54.8622C36.4194 53.0149 33.182 52.5673 31.4437 52.7234C29.5902 53.1403 30.2145 53.1944 29.9139 53.75C28.8028 55.8033 29.6706 58.4825 29.6723 60.851C29.6746 63.876 34.0749 66.4139 34.2074 69.4358C34.275 70.9765 32.7834 71.5896 34.1269 72.1736C36.0084 72.9914 36.8765 71.686 37.4281 69.6069C37.6631 68.7209 37.5442 67.9125 37.267 67.0402C36.8621 65.7657 31.9356 64.8692 32.6514 63.7599C33.0005 63.2189 34.1481 64.2963 34.5032 63.7599C35.1431 62.7934 32.6718 61.3379 33.376 60.4232L33.376 60.4232Z" fill="#E0DFFE"/>
<path d="M49.6266 51.5391C47.4689 57.5966 45.6977 63.7991 45.1858 70.4743L57.284 72.4706C57.2047 65.8161 57.7425 59.1615 57.0278 52.507L49.6266 51.5391Z" fill="#FEFEFE" stroke="black"/>
<path d="M50.1958 57.6806C50.5847 57.2997 51.2458 57.5329 51.7615 57.4084C52.1568 57.3129 52.5491 56.8942 52.9286 57.0454C53.3082 57.1967 53.1857 58.0509 53.5834 58.1343C54.0043 58.2226 54.221 57.2346 54.6366 57.3479C55.1792 57.4958 54.9141 58.6155 55.3767 58.951C55.6599 59.1564 56.3517 59.4021 56.4015 59.0418C56.5741 57.7943 57.7863 53.2366 56.6293 53.8391C54.9937 54.6909 50.7413 51.5878 50.3666 52.9015C49.8691 54.6462 45.5406 63.4379 45.9544 68.9026C46.0462 70.116 52.3739 69.6748 55.6045 71.3829C57.1769 72.2143 57.1106 66.3419 55.4337 65.7871C54.7016 65.5449 54.7999 67.9936 54.0673 67.7532C53.0874 67.4317 54.95 64.7434 53.9534 64.4864C52.9584 64.2297 53.462 67.4534 52.4447 67.3297C51.5408 67.2198 52.5736 64.7054 51.6761 64.5469C50.5074 64.3406 50.708 68.1459 49.6265 67.6322C48.391 67.0452 51.7487 64.0695 50.5374 63.4277C49.4284 62.8402 49.2506 67.05 48.1463 66.4525C45.6198 65.0854 48.1113 59.7227 50.1958 57.6806Z" fill="#E6E9EE"/>
<path d="M42.0104 51.9158C41.6707 51.6685 40.8265 51.1311 40.7251 51.8695C41.0828 52.415 40.5075 52.8661 40.018 52.6569C39.2894 52.7659 39.5755 53.6272 39.6243 54.1274C39.4944 54.5575 39.032 54.9097 39.5346 55.2916C39.9629 55.7108 39.6496 56.1666 39.3051 56.4556C39.203 57.0994 40.4261 56.9773 40.2044 57.721C39.8851 58.2671 40.3186 58.8701 40.8761 58.8797C41.3997 58.8177 41.8725 59.1176 41.8706 59.713C42.1922 60.3985 42.7084 59.4902 43.1597 59.6881C43.6217 59.9104 43.933 60.8033 44.536 60.2417C44.91 59.9011 45.3721 59.5807 45.8884 59.76C46.4525 59.9869 46.5864 59.3866 46.6962 58.9647C47.0636 58.6259 47.4471 58.033 47.9546 58.3846C48.5328 58.665 49.1408 57.8701 48.5016 57.4728C48.144 57.267 47.9153 56.6028 48.4885 56.5574C49.0305 56.2718 48.6178 55.6321 48.6907 55.2601C48.9677 54.9554 49.8866 54.6416 49.3677 54.126C48.8362 53.9633 48.2361 53.6204 48.4199 52.9283C48.3893 52.3373 47.6985 52.4589 47.6331 51.8825C47.454 51.3617 46.9556 51.3888 46.6356 51.6906C46.0101 51.7146 46.2454 50.3871 45.4693 50.6844C45.0152 50.9505 44.4114 51.3146 44.0351 50.7137C43.6866 50.3843 43.0145 50.6172 43.1334 51.1752C42.5711 51.3706 42.2194 50.4553 41.6487 50.7228C41.0402 51.1222 41.9791 51.4951 42.0104 51.9158L42.0104 51.9158Z" fill="#EFD5F3" stroke="black"/>
<path d="M42.0652 54.5172C42.6812 54.727 44.511 54.0588 44.0863 53.156C44.0082 52.9901 43.6057 53.0189 43.5739 52.8838C43.5477 52.7725 43.7692 52.428 43.7162 52.3998C43.3709 52.2164 43.0467 52.6471 42.8053 52.7326C42.4074 52.8735 42.1976 52.4134 41.809 52.5511C41.3146 52.7262 41.6196 53.1153 41.4105 53.3375C41.1549 53.609 40.6168 53.4816 40.4141 53.9122C39.9556 54.8867 40.1602 57.0612 40.8411 58.0259C40.9758 58.2167 41.3903 58.0188 41.5813 58.0864C42.2214 58.3132 42.4826 58.9501 43.1184 59.1754C43.2865 59.2349 44.0116 59.2302 44.1717 59.1451C44.3282 59.062 44.1196 58.5419 44.2856 58.6007C44.8167 58.7888 45.0478 59.0768 45.6235 58.8729C46.4702 58.573 45.3331 57.5843 45.3673 57.5722C46.1984 57.2779 47.6731 57.5904 47.6731 56.1506C47.6731 55.8379 47.1412 56.0615 47.303 55.5456C47.4892 54.952 48.3375 54.9613 47.8723 53.9727C47.6361 53.4707 47.206 53.7289 46.9045 53.9425C46.4617 54.2561 47.4646 54.806 47.1037 55.0616C46.8374 55.2503 46.377 55.0468 46.0789 55.1524C45.7137 55.2818 46.1213 55.8635 45.9366 56.0598C45.6767 56.336 45.1522 55.9926 44.8549 56.1506C44.5754 56.2991 44.8067 56.6183 44.5702 56.7858C43.2925 57.6909 43.2226 55.7219 42.7768 55.4851C42.5243 55.3509 42.1326 55.7987 41.9513 55.6061C41.7588 55.4015 42.0046 54.7103 42.0652 54.5172Z" fill="#D2B4D5"/>
<path d="M46.8076 76.1911C46.4487 76.8282 46.6757 77.6097 47.4841 77.643C48.2455 77.6745 48.4916 76.3726 48.4916 76.3726C48.4916 76.3726 48.1828 77.6874 48.9558 77.8548C50.505 78.1902 50.5327 76.5239 50.5327 76.5239C50.5327 76.5239 50.3594 78.0685 51.4598 78.248C52.356 78.3942 52.644 76.5541 52.644 76.5541C52.644 76.5541 52.2846 78.0786 53.0816 78.3387C54.016 78.6437 54.3713 77.6107 54.4005 76.7356C54.4157 76.2798 53.977 75.8063 53.505 75.6164C51.2919 74.7261 47.8871 74.275 46.8075 76.1911H46.8076Z" fill="#FFEAD5" stroke="black" stroke-width="1.0999"/>
<path d="M44.8145 70.5965C44.6136 69.7047 45.6723 70.3095 46.0293 70.2982C46.5261 70.0005 46.556 68.9986 47.254 69.0956C47.7336 69.7153 48.4223 68.6412 48.8895 69.2601C49.4464 69.4527 50.4114 69.0884 50.4458 70.0437C50.7431 69.5183 51.6904 69.0462 52.0235 69.8387C52.0284 70.1974 52.1799 70.4525 52.3133 69.9493C52.5523 69.1883 53.7139 69.3076 53.3717 70.1996C53.2468 70.5508 53.435 71.0208 53.6884 70.4772C53.969 70.03 54.9488 70.0647 54.7575 70.7684C55.0033 70.0557 56.1982 70.4672 55.672 71.1395C56.0243 70.8169 56.5418 70.792 56.5969 71.4018C56.5241 71.7359 56.3743 72.2409 56.8942 72.1006C57.3867 72.2267 57.871 72.8006 57.6855 73.3572C57.4738 73.9079 56.4668 73.4877 56.459 74.1503C56.6841 74.4366 57.7863 74.7249 57.1255 75.1814C56.4276 75.3206 57.8033 75.3203 57.5721 75.854C57.6893 76.546 56.7565 76.437 56.5683 76.7059C56.9362 77.0636 56.974 77.7062 56.3572 77.7651C55.9998 77.7883 55.5876 77.6135 55.4863 78.1015C55.1003 78.3979 54.1556 78.1973 54.3537 77.5551C53.9535 77.7328 53.0348 78.4263 52.968 77.577C53.1057 76.7956 52.5165 77.8265 52.1623 77.7158C51.766 77.8834 51.248 77.2852 51.6152 76.9836C51.3217 77.7045 50.0919 77.0584 50.077 76.6252C49.8143 76.9822 49.2536 77.5203 48.8141 77.1768C48.5533 76.9936 48.4439 76.3229 48.2391 76.891C47.9039 77.4623 47.0255 76.8426 47.2381 76.4281C47.1847 76.9812 45.9791 77.3986 45.876 76.6698C45.8037 76.1003 44.8117 76.9511 44.6792 76.1819C44.3448 75.5497 45.4801 75.2002 44.9289 74.6616C45.0493 74.22 45.6358 73.4352 44.8299 73.4306C44.2543 73.178 44.6346 72.5892 45.101 72.5489C45.2172 72.0325 44.0685 71.521 44.9023 71.0755C44.9442 70.9119 44.8868 70.7399 44.8145 70.5965H44.8145Z" fill="#D3AFD5" stroke="black"/>
<path d="M48.9709 70.6255C47.7008 70.7157 48.5321 71.7787 48.3446 72.0774C48.0684 72.5177 47.2911 72.6813 47.5191 73.4083C47.7103 74.0179 48.48 73.4953 48.8855 73.7108C49.2809 73.9208 49.1299 74.6544 49.7964 74.8904C50.4033 75.1054 50.9668 74.808 51.3906 74.4972C52.8938 73.3946 54.331 76.4233 55.6036 75.6466C55.9313 75.4466 53.3883 73.7078 55.1197 72.7126C55.7873 72.3288 55.0188 71.8354 54.2373 71.8329C53.6625 71.831 53.0457 72.2374 52.9847 72.1076C52.775 71.6621 53.0925 71.076 52.5861 70.807C52.1585 70.5798 51.659 71.3946 51.3336 71.5329C50.5616 71.8611 49.7114 70.8222 48.9709 70.6255Z" fill="#EDE4F7"/>
<path d="M42.2788 76.1004C42.6377 76.7374 42.4107 77.5189 41.6023 77.5523C40.8409 77.5837 40.5948 76.2819 40.5948 76.2819C40.5948 76.2819 40.9036 77.5967 40.1306 77.764C38.5814 78.0994 38.5537 76.4331 38.5537 76.4331C38.5537 76.4331 38.7271 77.9777 37.6267 78.1572C36.7304 78.3034 36.4424 76.4634 36.4424 76.4634C36.4424 76.4634 36.8018 77.9878 36.0048 78.248C35.0704 78.553 34.7151 77.52 34.6859 76.6448C34.6707 76.1891 35.1094 75.7155 35.5814 75.5257C37.7945 74.6353 41.1993 74.1842 42.279 76.1004H42.2788Z" fill="#FFEAD5" stroke="black" stroke-width="1.0999"/>
<path d="M31.537 72.236C31.1277 71.4287 32.2969 71.725 32.6393 71.6169C33.0476 71.1938 32.835 70.2172 33.5331 70.1209C34.1461 70.5894 34.5528 69.3636 35.1537 69.8347C35.7384 69.8691 36.5833 69.2543 36.8469 70.1683C37.0076 69.5795 37.8095 68.8652 38.3225 69.5406C38.4137 69.8859 38.6217 70.0913 38.6293 69.5685C38.6768 68.7679 39.8284 68.5669 39.7128 69.5223C39.6767 69.8958 39.9719 70.2988 40.0858 69.7044C40.2492 69.1958 41.2047 68.9626 41.1894 69.6948C41.2552 68.939 42.5093 69.0114 42.1629 69.8045C42.4256 69.3967 42.9199 69.2318 43.1201 69.8061C43.1304 70.1489 43.1073 70.6779 43.576 70.4006C44.0825 70.3885 44.689 70.8113 44.644 71.3999C44.5722 71.9898 43.4974 71.8578 43.6497 72.5005C43.9363 72.7159 45.0713 72.6945 44.5427 73.3156C43.9016 73.6402 45.2313 73.2653 45.1365 73.8441C45.4167 74.4811 44.4887 74.6297 44.3717 74.941C44.8136 75.1865 45.0051 75.7973 44.4231 76.0222C44.0832 76.1419 43.6427 76.0852 43.6624 76.5845C43.3608 76.9762 42.3993 77.0395 42.4359 76.3648C42.0919 76.6455 41.3711 77.566 41.1018 76.7633C41.0464 75.9705 40.7254 77.1274 40.3563 77.1169C40.0137 77.3868 39.3687 76.9496 39.651 76.558C39.5411 77.3348 38.1965 77.0451 38.0777 76.6304C37.9099 77.047 37.4977 77.7199 36.9901 77.5075C36.6938 77.4015 36.4262 76.7829 36.3653 77.3879C36.1791 78.0313 35.1805 77.6716 35.286 77.213C35.3679 77.7621 34.3032 78.4938 34.0278 77.8174C33.8206 77.2866 33.0668 78.3792 32.7532 77.6717C32.2776 77.1517 33.2907 76.5047 32.628 76.1342C32.6378 75.6745 33.0155 74.7562 32.2354 74.9712C31.6181 74.8838 31.8437 74.2112 32.2848 74.0452C32.2726 73.5144 31.0389 73.3327 31.7375 72.6751C31.7386 72.5055 31.6415 72.355 31.537 72.2359L31.537 72.236Z" fill="#D3AFD5" stroke="black"/>
<path d="M35.8271 76.1996C34.557 76.1094 35.3883 75.0464 35.2008 74.7477C34.9246 74.3073 34.1473 74.1437 34.3753 73.4168C34.5665 72.8072 35.3362 73.3297 35.7417 73.1143C36.1371 72.9042 35.9861 72.1707 36.6526 71.9346C37.2595 71.7197 37.823 72.017 38.2468 72.3278C39.75 73.4305 41.1872 70.4018 42.4598 71.1784C42.7875 71.3784 40.2445 73.1173 41.9759 74.1125C42.6435 74.4962 41.875 74.9897 41.0935 74.9922C40.5187 74.9941 39.9019 74.5877 39.8409 74.7174C39.6312 75.1629 39.9487 75.7491 39.4423 76.0181C39.0147 76.2453 38.5152 75.4305 38.1898 75.2921C37.4178 74.964 36.5676 76.0029 35.8271 76.1996Z" fill="#EDE4F7"/>
<path d="M26.4115 44.7437C25.0202 44.5407 23.6249 44.0693 22.4262 43.2918C12.6784 36.2077 23.0676 29.0583 27.0947 21.8763C31.9966 12.2669 36.6644 7.03252 47.0212 8.3252C49.7173 8.64336 52.0861 9.43251 54.2516 11.1685C57.0249 13.3916 59.1217 16.8278 60.5712 20.1824C62.1158 23.757 62.2545 27.8636 63.5317 31.5556C63.936 32.7242 64.5032 33.8218 65.0119 34.9434C65.2699 35.512 65.7613 36.008 65.809 36.6372C65.8601 37.3111 65.5296 37.9713 65.2397 38.5731C64.8937 39.2911 64.2603 39.8151 63.8733 40.509C63.6394 40.9282 63.3147 42.0724 62.9624 42.3843C62.1207 43.1294 61.1987 42.5115 60.1157 42.6868C48.9908 44.4876 37.5601 46.3703 26.4115 44.7437Z" fill="#CFCCF9" stroke="black"/>
<path d="M59.8469 28.6566L58.3171 36.613L54.6135 36.3564L58.5587 26.4321L59.8469 28.6566Z" fill="#E9D0BC" stroke="black"/>
<path d="M58.5581 41.0607C57.0868 44.1784 26.5163 46.8838 23.615 45.2528C22.3541 44.544 23.6955 41.3175 23.6955 41.3175L21.1996 42.2586C21.1996 42.2586 23.4481 40.7452 23.0515 39.7775C22.643 38.7809 19.9919 39.5208 19.9919 39.5208L21.7632 36.6976C21.7632 36.6976 20.1817 33.4342 19.9919 31.6498C19.7395 29.2773 20.2091 26.8286 20.8776 24.5488C21.7023 21.736 22.7937 18.855 24.6618 16.6779C25.946 15.1812 36.7889 6.65417 38.5103 7.52362C44.7909 10.6953 53.1692 31.0853 60.6527 38.7007C61.4089 39.4704 57.6496 38.3755 57.7757 39.2597C57.9062 40.1745 58.9329 40.2671 58.5587 41.0599L58.5581 41.0607Z" fill="#583F3A" stroke="black"/>
<path d="M57.6997 36.584C58.3529 32.4192 56.91 11.5024 44.6953 11.6379C35.7937 11.7374 29.1449 20.8563 27.9247 28.3457C26.3852 37.7946 31.9492 47.4456 43.1829 47.5877C48.4973 47.6549 57.4218 39.5367 57.6997 36.5833V36.584Z" fill="#FDEAD9" stroke="black"/>
<path opacity="0.4824" d="M36.5775 44.1072C36.5775 44.1072 27.8636 28.0047 32.7933 23.2321C35.5621 20.5516 40.5865 28.9576 43.5823 26.5688C45.0205 25.4219 41.9281 21.5858 43.5823 20.8367C46.1491 19.6742 46.9304 27.7821 49.621 26.9966C51.6616 26.4009 49.3926 21.4416 51.3119 20.4945C53.6971 19.3175 56.6977 26.0594 58.4777 24.0023C60.9832 21.1067 56.4854 15.0688 53.0025 13.7359C44.2752 10.3961 31.1148 15.4273 26.9956 24.259C25.2687 27.9621 28.4582 32.5092 30.2968 36.1511C31.8367 39.2015 36.577 44.1075 36.577 44.1075L36.5775 44.1072Z" fill="#E4C09E"/>
<path d="M28.9168 41.2349C25.3544 40.9107 21.7916 32.839 23.4513 30.5876C25.2067 29.8779 25.7764 32.0941 26.4687 33.189C26.8112 33.7126 27.1833 34.216 27.4935 34.7618C27.748 35.2097 27.9587 35.6842 28.1767 36.1532C28.332 37.602 30.7211 41.1792 28.9168 41.2349Z" fill="#E9D0BC" stroke="black"/>
<path d="M36.6821 13.1987C36.6821 13.1987 35.8364 25.3598 46.2928 27.1043C43.7199 22.0933 42.8625 19.4976 43.1194 18.1359C44.3829 21.8235 46.5941 23.497 49.219 24.2915L47.5046 20.8193C53.2787 26.1083 57.9071 28.231 61.3768 31.5636L61.0507 22.6617C59.6379 13.0731 50.0779 6.57733 42.0768 6.76584C35.0042 6.67246 26.0734 13.6149 24.9191 26.3387C24.5713 30.1717 25.5556 34.8816 27.8022 36.0124L30.8617 21.0404L28.6878 33.1892C32.9576 26.8391 37.9285 11.365 36.6823 13.199L36.6821 13.1987Z" fill="#583F3A" stroke="black"/>
<g opacity="0.6275">
<path opacity="0.6275" d="M42.7511 12.5599C44.1641 12.7732 48.4221 14.642 49.64 16.9458C48.8649 13.728 46.7686 12.694 44.6584 11.6827C55.8792 11.7291 59.754 21.7378 60.5996 29.9524C56.288 24.8725 51.6124 20.0916 46.1671 17.702C45.3699 19.3959 46.8256 21.0898 47.562 22.7837C45.7145 20.9894 43.8846 19.1728 42.7796 16.4316C41.4609 19.9982 42.6367 22.5637 44.8007 25.8085C38.9057 21.5784 39.253 19.244 39.4206 12.1667C40.7236 16.9979 42.9966 14.3016 45.4555 17.8835C45.344 14.7641 43.8472 14.0525 42.7511 12.5599Z" fill="#6B5045"/>
<path opacity="0.6275" d="M35.8053 13.6198C35.3368 18.9736 32.1748 24.3275 30.2258 29.6814C30.947 25.8297 33.8675 21.9132 32.9017 17.7032C32.3175 21.687 29.971 25.2025 27.6069 28.7135C29.7177 24.6227 31.0354 14.0299 35.8053 13.6198Z" fill="#6B5045"/>
</g>
<path d="M30.5064 36.2355L31.0554 37.359C35.3458 36.6513 37.3594 36.0423 38.3551 34.8528C40.826 21.2524 27.864 25.005 29.4289 33.4916" fill="white"/>
<path d="M30.5064 36.2355L31.0554 37.359C35.3458 36.6513 37.3594 36.0423 38.3551 34.8528C40.826 21.2524 27.864 25.005 29.4289 33.4916" stroke="black"/>
<path d="M34.8402 27.5919C32.599 28.0691 31.4745 30.5296 31.7596 32.9395C31.9258 34.3445 32.4398 36.2227 33.7571 36.4373C35.1198 36.6592 37.2832 36.2781 38.1908 34.7718C38.863 33.6558 38.5721 30.9787 38.0201 29.6313C37.4533 28.2477 36.2328 27.2955 34.8403 27.592L34.8402 27.5919Z" fill="#385525" stroke="black"/>
<path opacity="0.2667" d="M34.9856 29.6657C33.7957 29.9191 33.1987 31.2253 33.35 32.5047C33.4382 33.2506 33.7111 34.2478 34.4105 34.3617C35.134 34.4795 36.2825 34.2772 36.7643 33.4774C37.1212 32.8849 36.9667 31.4636 36.6737 30.7483C36.3728 30.0138 35.7248 29.5082 34.9855 29.6657L34.9856 29.6657Z" fill="black"/>
<g filter="url(#filter0_f)">
<path opacity="0.7882" d="M33.6601 28.7631C32.7463 30.0502 36.9804 32.2835 37.6023 31.5384C38.7165 29.3242 35.2875 26.8418 33.6601 28.7631Z" fill="white"/>
<path opacity="0.5882" d="M33.7811 31.1587C33.3224 32.1228 32.29 30.8323 32.4929 30.4743C32.7048 29.9158 33.9225 30.4772 33.7811 31.1587Z" fill="white"/>
<path opacity="0.5882" d="M38.1078 32.1847C39.8899 34.2763 33.0964 39.0677 32.3761 33.6655C32.3246 33.2795 32.9421 33.1026 33.2186 33.552C34.1139 35.0074 36.3059 35.5517 37.5844 32.3036C37.6519 32.1322 37.9328 32.2618 38.1079 32.1847L38.1078 32.1847Z" fill="white"/>
</g>
<path d="M38.2081 27.4927C35.3107 21.7224 27.7824 27.0523 28.8192 31.7214C29.8726 27.7993 33.7901 24.9069 38.2081 27.4927Z" fill="black"/>
<path d="M56.1286 34.4207L56.1489 35.4534C52.1151 35.0865 50.0573 35.7571 48.5645 35.0948C44.9527 20.924 57.7205 22.9656 56.1813 31.465" fill="white"/>
<path d="M51.8515 26.382C54.0927 26.8592 55.2171 29.3197 54.932 31.7296C54.7658 33.1346 53.8249 34.9978 52.5076 35.2122C51.1448 35.4341 49.4084 35.0681 48.5009 33.5618C47.8286 32.4458 48.1196 29.7687 48.6715 28.4213C49.2383 27.0377 50.4589 26.0855 51.8513 26.382L51.8515 26.382Z" fill="#385525" stroke="black"/>
<path opacity="0.2667" d="M51.5346 28.6687C52.7245 28.9221 53.3215 30.2283 53.1702 31.5076C53.0819 32.2536 52.8091 33.2508 52.1097 33.3647C51.3862 33.4825 50.2376 33.2802 49.7559 32.4804C49.399 31.8879 49.5534 30.4666 49.8465 29.7513C50.1474 29.0168 50.7954 28.5112 51.5347 28.6686L51.5346 28.6687Z" fill="black"/>
<g opacity="0.7882" filter="url(#filter1_f)">
<path d="M53.9077 30.1569C54.3768 30.8991 49.8115 28.5497 49.8864 27.7711C51.0923 25.6885 54.2985 27.8375 53.9077 30.1569Z" fill="white"/>
</g>
<g opacity="0.5882" filter="url(#filter2_f)">
<path d="M50.6266 29.4649C50.1679 30.429 49.1355 29.1385 49.3384 28.7804C49.5503 28.222 50.768 28.7833 50.6266 29.4649Z" fill="white"/>
</g>
<g opacity="0.5882" filter="url(#filter3_f)">
<path d="M48.8683 31.3378C46.9331 33.2441 52.6616 37.3162 53.8884 32.7884C53.9899 32.4137 53.4346 32.3318 53.0459 32.6748C51.6595 33.8984 50.5172 34.6326 49.3917 31.4567C49.3301 31.2828 49.0072 31.2009 48.8682 31.3378L48.8683 31.3378Z" fill="white"/>
</g>
<path d="M48.4241 26.7208C50.5285 20.0529 57.7984 26.2983 56.3603 31.2069C56.0796 26.8255 53.3438 22.7055 48.4241 26.7208Z" fill="black"/>
<path d="M48.5586 35.0958C50.906 35.6861 53.1201 35.344 55.9883 35.61L56.1022 34.5816" stroke="black"/>
<g opacity="0.3882">
<path opacity="0.3882" d="M49.6973 18.2175C51.3459 20.4859 52.7006 21.5051 54.0526 22.5127L53.1417 20.0324C54.6221 20.4659 54.8924 20.8995 55.5329 21.333C54.4859 19.4794 53.4794 17.3638 52.1169 15.8582C52.2414 16.9473 52.4879 18.058 53.5118 19.3064C52.6061 19.2369 51.9848 18.4121 51.3768 17.552C52.4117 19.0448 52.4363 19.6787 52.7716 20.5768C51.9324 19.2976 50.8365 18.6999 49.6973 18.2175Z" fill="white"/>
<path opacity="0.3882" d="M55.3906 17.7626L57.3263 20.4849L56.9278 21.4831L55.3906 17.7626Z" fill="white"/>
</g>
<path d="M48.9004 21.5133C50.6093 18.6223 54.3477 16.4752 57.2695 22.6627" stroke="black"/>
<path d="M27.6641 25.2035C28.4232 20.6463 32.9042 18.534 38.1397 20.9688" stroke="black"/>
<path d="M23.9336 31.1636L23.3074 32.313C24.4278 36.4671 25.8479 36.4812 27.1788 37.7274C25.6456 36.0791 24.2682 34.2447 23.9336 31.1636Z" fill="#F3D0BD"/>
<path d="M24.2758 33.7334C23.5682 32.6374 23.6939 31.916 24.9589 31.7068" stroke="black"/>
<path d="M26.7532 38.3311C28.0398 39.3225 29.135 39.9747 28.4042 37.3934" stroke="black"/>
<path d="M36.5819 3.50488C35.1074 4.1497 33.3402 3.56433 31.828 4.10229C27.3891 6.21023 21.1862 12.2063 19.2673 16.4207C19.8729 24.4804 16.755 32.5772 16.207 38.3277C17.4615 41.8483 20.9106 44.6551 24.3414 45.5947C33.4023 48.0765 43.9807 47.4611 53.0788 43.8025C44.208 45.1275 35.2215 46.033 26.4137 44.7477C25.0224 44.5447 23.6272 44.0733 22.4284 43.2958C12.6806 36.2118 23.0699 29.0624 27.0969 21.8803C31.9988 12.2709 36.6667 7.03658 47.0234 8.32925C49.7195 8.64741 52.0884 9.43657 54.2539 11.1726C57.0272 13.3957 59.1239 16.8318 60.5734 20.1864C62.1181 23.761 62.2568 27.8677 63.534 31.5596C63.728 32.1206 63.9582 32.6618 64.2029 33.2006C64.3924 29.3201 63.8773 25.0356 62.9077 21.3812C61.9999 17.9598 61.103 14.6458 59.2071 11.7168C56.1837 7.66675 51.4653 3.52569 46.8881 3.33065C45.7492 3.29929 43.4872 5.10821 43.0828 3.97646C42.8697 3.38031 45.2701 4.05398 45.1943 3.4214C44.9378 1.27917 41.0838 3.57786 39.9636 3.33065C38.9072 3.09755 42.4073 2.39169 42.4342 1.81134C42.5168 0.0234222 37.7858 3.50459 37.7858 3.50459C37.1717 3.2146 39.7439 1.64323 39.7976 1.19494C38.5315 0.262259 37.6884 2.94936 36.5831 3.50459L36.5819 3.50488Z" fill="#EAE8F5" stroke="black"/>
<path d="M35.3568 4.36637C33.4548 4.40587 31.5177 4.85955 30.055 6.03C28.6852 7.12602 27.7107 9.04826 27.6638 10.8697C27.6239 12.4212 29.1995 13.5823 29.4856 15.1044C29.5868 15.6423 29.7308 16.2639 29.8842 16.9192C33.3475 11.4877 37.2335 8.33102 43.477 8.14735C43.3841 7.76018 43.2462 7.41141 43.0358 7.11893C41.7554 5.33933 39.3258 4.68506 37.2286 4.45711C36.6214 4.39114 35.9909 4.3532 35.3569 4.36637H35.3568ZM47.156 4.60079C46.6835 4.61944 46.2465 4.75512 45.8821 5.06206C45.1027 5.71858 44.8846 6.84409 44.9214 8.15484C45.5948 8.18198 46.2932 8.23795 47.0208 8.32877C49.7069 8.64574 52.0709 9.42682 54.2298 11.1493C54.4074 10.7309 54.4879 10.3157 54.422 9.90161C54.0997 7.87709 52.0679 6.42746 50.3228 5.54591C49.3989 5.07917 48.1954 4.55964 47.156 4.60068L47.156 4.60079ZM57.4467 12.0568C56.9952 12.0428 56.5227 12.3715 56.0448 12.8735C56.6104 13.495 57.1363 14.1674 57.6318 14.8698C58.3622 13.8564 58.7839 12.9382 58.0659 12.3215C57.864 12.1481 57.6574 12.0634 57.4467 12.0568V12.0568ZM25.0451 14.9908C24.0034 15.0351 22.8065 15.9175 22.5401 16.9191C22.2532 17.9975 24.0639 18.7049 24.1342 19.8229C24.1999 20.8692 23.1353 21.6887 22.9955 22.7267C22.7903 24.2514 22.5246 26.1051 23.1307 27.4682C24.5715 25.6068 26.0482 23.7462 27.0946 21.8798C27.1838 21.705 27.276 21.5374 27.3651 21.3656C27.3442 18.7594 27.4171 15.8075 25.7282 15.1043C25.5178 15.0166 25.2854 14.9806 25.045 14.9908L25.0451 14.9908ZM60.266 16.8511C59.951 16.8444 59.5909 17.0645 59.2057 17.388C59.7112 18.3081 60.1678 19.2504 60.5721 20.1858C60.8873 20.9153 61.1423 21.6659 61.362 22.4317C62.0273 20.5546 61.9711 18.7296 60.7998 17.161C60.6441 16.9525 60.4636 16.8552 60.266 16.851V16.8511Z" fill="white"/>
<g filter="url(#filter4_f)">
<path d="M31.0756 38.636C30.9566 37.5684 33.1013 37.8331 34.0928 37.6197C35.4608 37.3252 37.912 36.1032 38.2796 37.5341C38.596 38.766 36.1501 39.0309 34.9686 39.2651C33.6888 39.5187 31.2286 40.0097 31.0753 38.6359L31.0756 38.636Z" fill="#EC9C98"/>
<path d="M51.0727 37.1042C50.8628 35.6804 52.4571 35.8991 53.8134 35.8927C54.8336 35.8879 56.4793 35.8699 56.4656 36.9539C56.4536 37.8979 54.7595 37.9014 53.8792 38.0307C52.5593 38.2246 51.2788 38.5031 51.0727 37.1043V37.1042Z" fill="#EC9C98"/>
</g>
<path d="M26.7075 42.3783C26.173 44.2607 26.5785 44.983 26.7477 46.0143C33.5426 41.8391 37.1496 41.6782 41.16 41.0094C36.3425 41.1401 31.5249 40.1707 26.7074 42.3782L26.7075 42.3783Z" fill="#F5FAFD" stroke="black"/>
<path d="M26.7485 46.1C30.5803 42.9593 47.9148 36.6029 60.364 42.9347C60.364 42.9347 60.9678 47.1268 60.1627 47.255C59.9109 47.2952 58.5926 47.0411 58.5926 47.0411L58.6329 49.6079L59.8406 50.934C60.319 51.6708 59.9124 52.8778 58.6732 54.5272C47.4399 48.6455 38.0439 46.9824 26.7498 46.1001L26.7485 46.1Z" fill="#F5FAFD" stroke="black"/>
<path d="M27.1492 46.1848L24.7739 46.9548C24.4782 49.1964 25.4182 49.6129 27.2296 49.5215L25.579 49.6926C25.0158 50.3913 24.8686 51.09 25.3777 51.7887L25.6998 52.2164C26.0915 53.382 26.0937 53.9445 25.74 54.9968C25.956 56.0994 26.7415 56.5611 27.1893 56.7935C34.4011 51.2252 44.7287 50.8433 57.5026 57.3496C58.6942 57.3038 58.8246 56.1306 58.6299 54.6118C50.0034 50.3894 41.9085 46.8439 27.1483 46.1847L27.1492 46.1848Z" fill="#F5FAFD" stroke="black"/>
<path d="M34.8376 40.9046C32.5562 40.8984 30.2727 41.0636 27.9915 41.8575C27.9971 41.9753 27.9962 42.0927 27.9915 42.2053C27.8926 43.2417 27.8283 44.3221 27.7852 45.3966C33.1505 42.2731 36.4601 41.7373 39.7481 41.2299C39.7677 41.1603 39.787 41.0877 39.805 41.0181C38.1478 41.0052 36.4947 40.9093 34.8378 40.9047L34.8376 40.9046Z" fill="#9767A1"/>
<path d="M27.7576 46.2138C27.7274 47.3254 27.7211 48.416 27.7505 49.4351C27.5416 49.7092 26.9833 49.4056 26.7897 49.6922C26.4993 50.1222 26.6665 50.8113 26.9107 51.2726C27.1463 51.7176 27.8661 51.7142 28.0778 52.1725C28.2672 52.5823 28.0976 53.0896 28.0351 53.5412C27.9746 53.9792 27.6514 54.3892 27.7149 54.8267C27.7841 55.3034 27.9675 55.834 28.2629 56.2257C32.559 53.35 37.88 52.1062 44.0688 52.9134C43.1993 51.3934 38.2284 52.7786 36.9736 50.7658C36.7974 49.9506 37.311 48.4948 37.0946 47.3403C37.1361 47.2912 37.177 47.2473 37.2227 47.2117C34.3801 46.7356 31.2577 46.391 27.7577 46.2136L27.7576 46.2138Z" fill="#9767A1"/>
<path d="M39.7908 41.0716C34.5696 42.1111 30.1359 43.9243 27.7851 45.3818C27.7743 45.649 27.7639 45.9175 27.7566 46.1833C31.0011 46.4538 34.1012 46.7917 37.1364 47.295C37.7698 46.6437 38.8649 47.4884 39.2643 46.6144C39.6637 45.7404 38.5192 45.362 38.5028 44.3912C38.4935 43.8427 39.0829 43.4579 39.2287 42.9317C39.3869 42.3604 39.6198 41.7157 39.7909 41.0715L39.7908 41.0716Z" fill="#9767A1"/>
<path d="M30.7339 49.6063C36.6718 50.1701 36.5155 51.241 41.1606 52.6435" stroke="black"/>
<path d="M39.5421 41.8799C38.9876 42.0329 38.5455 42.205 38.4248 42.205C38.1027 42.205 35.5731 42.9074 35.0017 43.7023C34.5195 43.7393 33.9517 43.8388 34.7598 45.0332C35.3448 45.7605 37.5283 45.3961 39.1935 45.7743C38.953 45.3681 38.5133 44.9929 38.5032 44.3904C38.4939 43.842 39.0833 43.4572 39.2291 42.931C39.3208 42.5998 39.4411 42.2461 39.5564 41.8799C39.5521 41.8811 39.5466 41.8787 39.5422 41.8799H39.5421Z" fill="#CA97CF"/>
<path d="M29.6044 47.2543C29.7628 46.3424 31.3487 47.1499 32.2211 47.1687C33.5392 47.1971 35.0846 47.1221 36.1663 47.4681C36.5647 47.8598 36.7947 48.7747 36.4078 49.1792C35.4187 50.2133 33.635 48.8602 32.3016 48.452C31.3652 48.1654 29.4274 48.2725 29.6044 47.2543L29.6044 47.2543Z" fill="#CA97CF"/>
<path d="M29.4836 42.4194C29.4347 42.2119 32.2157 41.515 33.6301 41.3927C34.2333 41.3406 35.3858 40.8808 35.4417 41.5211C34.7335 42.4683 29.9174 42.309 29.6446 43.1038C29.4544 42.9835 29.4835 42.4194 29.4835 42.4194L29.4836 42.4194Z" fill="#CA97CF"/>
<path d="M47.8002 49.8847C47.5978 49.9402 47.3875 49.9797 47.1597 49.9905C46.878 49.9905 46.6632 50.7865 46.5121 51.2307C46.3109 51.8223 46.0172 52.4707 45.7649 53.1212C49.0082 53.7367 52.4843 54.8937 56.1695 56.6375C56.2222 56.5122 56.2779 56.3944 56.3403 56.282C56.7064 55.6223 57.1019 54.9742 57.3864 54.2705C57.4213 54.1844 57.4611 54.0929 57.5003 54.0059C54.3633 52.4917 51.2452 51.08 47.8003 49.8846L47.8002 49.8847Z" fill="#BD95B8"/>
<path d="M49.3734 40.29C49.6177 40.7167 49.96 41.1704 49.9783 41.6058C50.0023 42.176 49.9 42.793 49.6154 43.277C49.1096 43.8106 48.4213 44.1519 48.3699 44.9482C48.3485 45.388 48.5835 45.6464 48.8112 46.0144C49.0529 46.4053 49.5397 46.6653 49.6153 47.126C49.6707 48.5468 48.9676 49.5522 47.8362 49.8786C50.9873 50.9066 54.1935 52.2137 57.5503 53.8941C58.1289 52.6535 59.0378 51.3351 58.632 50.0753C58.2041 48.7468 55.5708 49.074 55.3727 47.6857C55.2781 47.023 55.9545 46.3477 56.5398 46.0977C56.892 45.9474 57.3662 46.5214 57.6643 46.2717C58.5682 45.5143 58.4822 43.5406 58.013 41.8782C55.2399 40.8749 52.301 40.392 49.3733 40.2902L49.3734 40.29Z" fill="#BD95B8"/>
<path d="M49.1938 43.6124C48.7431 44.0139 48.2684 44.3681 48.226 45.0265C48.2141 45.2694 48.2819 45.4569 48.3825 45.639C51.5671 46.2186 53.3033 46.841 55.2359 47.4766C55.3303 46.9155 55.8952 46.3897 56.3959 46.1759C56.7481 46.0256 57.2223 46.5996 57.5203 46.3499C57.6319 46.2564 57.7295 46.1449 57.8121 46.0171C55.2761 44.38 52.4148 43.5511 49.1938 43.6124V43.6124Z" fill="#966495"/>
<path d="M49.2071 48.3989C48.7448 49.0965 55.2855 54.3132 58.2096 52.0664L49.2071 48.3989Z" fill="#96719C"/>
<path d="M59.5009 50.7799C56.0269 47.2726 50.4586 46.4826 50.9093 46.2382C50.9093 46.2382 55.7137 46.9945 58.6403 49.3075" fill="black"/>
<path d="M26.7075 42.3783C26.173 44.2607 26.5785 44.983 26.7477 46.0143C33.5426 41.8391 37.1496 41.6782 41.16 41.0094C36.3425 41.1401 31.5249 40.1707 26.7074 42.3782L26.7075 42.3783Z" stroke="black"/>
<path d="M26.7485 46.1C30.5803 42.9593 47.9148 36.6029 60.364 42.9347C60.364 42.9347 60.9678 47.1268 60.1627 47.255C59.9109 47.2952 58.5926 47.0411 58.5926 47.0411L58.6329 49.6079L59.8406 50.934C60.319 51.6708 59.9124 52.8778 58.6732 54.5272C47.4399 48.6455 38.0439 46.9824 26.7498 46.1001L26.7485 46.1Z" stroke="black"/>
<path d="M27.1492 46.1848L24.7739 46.9548C24.4782 49.1964 25.4182 49.6129 27.2296 49.5215L25.579 49.6926C25.0158 50.3913 24.8686 51.09 25.3777 51.7887L25.6998 52.2164C26.0915 53.382 26.0937 53.9445 25.74 54.9968C25.956 56.0994 26.7415 56.5611 27.1893 56.7935C34.4011 51.2252 44.7287 50.8433 57.5026 57.3496C58.6942 57.3038 58.8246 56.1306 58.6299 54.6118C50.0034 50.3894 41.9085 46.8439 27.1483 46.1847L27.1492 46.1848Z" stroke="black"/>
<path d="M27.5549 56.3093C26.2419 58.5397 25.4955 61.0737 25.3956 63.7016C25.2401 67.57 24.9582 71.4589 24.4931 75.3785C24.29 80.3063 24.6402 85.2882 23.7711 90.163C22.9151 91.7578 20.8046 92.0285 19.7204 93.0888C19.5406 93.2647 19.8979 93.691 19.7513 93.9049C17.8901 94.7568 15.6002 93.7824 13.8274 93.7603C12.9835 93.7497 12.319 94.2527 11.7575 94.7158C11.2439 95.3616 11.2848 96.6919 10.7313 97.5736C10.1313 98.5295 9.05367 99.1794 9.90127 100.158C10.1492 100.444 8.69852 100.06 8.23675 100.025C5.89704 99.5564 6.57017 103.883 3.94538 103.464C2.68357 103.473 -1.24006 107.402 2.737 105.544C3.94536 104.888 6.08009 104.042 4.19083 105.615C3.78563 106.059 2.35149 106.52 2.72971 107.118C3.39377 108.167 4.90787 106.098 5.99697 105.589C4.84779 106.91 5.50229 107.539 6.92816 106.67C6.61471 107.391 6.44695 107.585 6.73177 107.841C7.39124 108.434 8.68589 106.804 9.17419 106.918C9.54692 107.004 9.4545 107.799 9.81352 107.967C10.49 108.284 11.4265 106.16 12.2361 107.859C16.2426 107.155 20.3245 107.266 24.3665 106.937C25.2881 106.914 26.2382 106.647 27.0353 107.202C28.8843 106.36 29.3752 103.883 30.7313 102.478C31.5727 101.388 35.204 101.093 32.8908 99.4449C32.4344 98.1028 35.6606 97.1989 33.8848 95.8703C33.5518 95.1795 31.7335 94.1204 33.0394 93.6704C34.7077 92.8999 34.6948 91.2229 34.7474 89.6566C34.7812 77.3684 37.6455 65.6484 36.2706 53.1002C33.4342 53.7939 30.6208 54.361 27.5549 56.3084L27.5549 56.3093Z" fill="#FBF6FC" stroke="black"/>
<path d="M28.7553 57.2917C28.2134 57.2871 27.5518 57.4171 26.8765 57.5942C25.9846 59.4929 25.4775 61.5615 25.3963 63.6967C25.2408 67.5651 24.9576 71.4605 24.4924 75.3799C24.2893 80.3077 24.6428 85.2887 23.7737 90.1637C22.9177 91.7585 20.8086 92.0299 19.7244 93.0902C19.5445 93.2661 19.8994 93.693 19.7529 93.9069C17.8916 94.7588 15.5977 93.7778 13.8248 93.7557C12.9809 93.7451 12.3225 94.253 11.761 94.716C11.2473 95.3619 11.2825 96.6928 10.7291 97.5743C10.4812 97.9692 10.1522 98.3054 9.91064 98.6406C13.4462 99.4391 17.477 99.2274 21.7386 97.718C23.0421 97.2563 18.4724 97.4208 15.8317 97.5743C26.231 95.8854 36.6251 76.2222 32.3351 76.5143C30.9684 76.6073 28.5669 86.1747 26.891 86.7683C25.5427 87.2459 25.4512 83.6649 26.0868 82.3144C29.9507 74.1027 27.3749 68.448 27.3749 62.1238C27.3749 60.8456 30.3072 58.6078 29.951 57.8513C29.7629 57.4515 29.3238 57.2965 28.7554 57.2917L28.7553 57.2917Z" fill="#EAE8EB"/>
<path d="M36.2703 53.1042C33.4339 53.7979 30.6185 54.3631 27.5525 56.3105C27.0009 57.2475 26.5532 58.2385 26.2075 59.2672C27.7136 58.7312 29.6328 59.0762 31.3174 58.9194L32.2994 59.5092L33.3242 58.8891L33.7939 56.9684C34.6624 56.5591 35.6029 56.5782 36.5552 56.6584C36.495 55.4805 36.4011 54.2959 36.2705 53.1041L36.2703 53.1042Z" fill="#97669D" stroke="black"/>
<path d="M19.2019 94.1869L26.0457 93.973L19.7052 93.6308" fill="black"/>
<path d="M9.41837 100.198C14.4344 101.986 17.6748 97.9142 23.7903 99.2139C24.9224 99.4545 26.8498 100.626 26.8498 100.626C29.0637 100.37 30.6812 101.033 32.5144 101.333C31.1918 101.721 30.2244 102.443 29.7584 103.513L29.1747 103.149C29.1747 103.149 23.1788 102.711 21.0226 102.711C17.3395 103.257 16.6285 104.131 16.9667 103.759C17.0095 102.762 16.1557 103.328 14.8129 102.893C14.0826 102.656 13.2387 103.936 13.2831 103.534C13.336 103.057 13.2245 102.639 12.6189 102.486C11.8437 102.291 10.9321 103.757 10.5758 103C10.5011 102.841 10.7601 101.807 10.1833 102.123C9.07188 102.73 6.5626 102.508 6.20142 102.414C5.75704 102.298 7.15056 100.153 7.46202 100.24C7.82362 100.341 8.4328 99.9757 9.41844 100.198L9.41837 100.198Z" fill="#906593"/>
<path d="M9.96254 100.433C11.4077 100.951 13.0317 101.137 14.4866 100.556C15.2799 99.9847 16.1435 100.092 16.9676 99.5993C18.3642 99.1656 20.0169 99.4149 21.4548 99.3405C22.3677 99.3265 23.2808 99.3377 24.1935 99.3631C21.9746 99.1214 19.735 98.8638 17.5055 99.1062C16.4433 99.4677 15.3621 99.7707 14.3156 100.178C13.2097 100.79 11.9937 100.555 10.7102 100.219C10.4608 100.206 10.2114 100.194 9.9624 100.176" fill="black"/>
<path d="M32.3694 54.2113C33.6959 55.0747 33.8271 57.1318 33.2998 58.3482C33.1227 58.7938 32.801 59.2746 32.3072 59.3131C32.0511 59.3423 31.7123 59.1877 31.7247 58.8726C31.725 58.3629 32.0142 57.9215 32.2698 57.5138C32.3641 57.3713 32.1305 57.6607 32.0716 57.7236C31.7536 58.0972 31.4308 58.5217 31.3707 59.0375C31.3471 59.5732 31.5941 59.9258 32.1342 59.9093C35.2621 58.8266 33.5366 55.7406 33.433 54.3471C33.4824 54.1352 33.6529 53.9937 33.7927 53.8483" fill="black"/>
<path d="M5.86816 102.547C6.34877 102.68 6.99122 101.977 7.23455 103.334C7.11684 102.74 9.5713 101.891 10.1381 102.184C10.5242 102.384 10.7502 103.515 10.7502 103.515C10.5242 103.174 12.3775 102.084 13.2693 102.729C13.3876 102.814 13.3628 103.686 13.3628 103.686C13.3628 103.686 13.6147 102.881 13.9456 102.924C14.4051 102.985 15.7599 102.91 16.4481 103.034C17.403 103.207 16.975 103.884 16.9724 103.885C17.0295 102.821 22.6146 102.605 24.0298 102.668C24.5702 102.693 29.2106 102.92 29.2106 103.213C29.2106 104.8 26.136 105.254 26.7625 107.085" stroke="black"/>
<path d="M28.3292 87.7284C27.7936 87.7907 27.5293 88.7182 26.9913 88.9383C26.0436 89.3259 24.9717 89.0707 23.9453 89.0896C23.8941 89.4478 23.8382 89.8062 23.7745 90.1634C22.9186 91.7582 20.8095 92.0296 19.7253 93.0899C19.5454 93.2658 19.9003 93.6927 19.7537 93.9066C19.735 93.9152 19.7156 93.9211 19.6968 93.9293C21.969 93.8852 24.7688 93.3853 26.2511 94.625C26.8839 95.1541 27.0731 96.1613 27.1336 97.0146C27.1658 97.4682 26.6833 97.9259 26.8489 98.3455C27.0517 98.8589 27.6914 99.0413 28.1868 99.2227C28.918 99.4903 29.7199 99.527 30.4926 99.4949C31.149 99.4676 31.7721 99.0693 32.4283 99.1017C32.5658 99.1084 32.7085 99.1316 32.8482 99.1697C32.8565 97.9722 35.5412 97.1024 33.8873 95.8652C33.5542 95.1744 31.7345 94.1148 33.0404 93.6647C34.7087 92.8942 34.6958 91.2233 34.7484 89.6569C34.7499 89.1087 34.7576 88.5621 34.7697 88.016C32.9219 88.0519 30.4248 87.9357 28.4431 87.7286C28.4048 87.7247 28.3649 87.7245 28.3292 87.7286L28.3292 87.7284Z" fill="#916296"/>
<path d="M25.7493 93.5626C28.3012 92.3552 31.0946 91.331 32.6381 89.3582C32.4894 90.794 32.4658 92.1434 33.3498 92.8669C32.5716 93.1562 32.1168 93.6769 31.6418 94.2886C29.8514 93.0003 27.7476 93.5985 25.7493 93.5626Z" fill="#BB94C3"/>
<path d="M26.7898 94.9855C27.8925 95.8948 28.8506 96.81 28.0139 97.7985C29.3802 97.0945 30.7466 97.7357 32.113 98.1918L32.4261 97.3448C30.7894 96.0807 28.9571 95.2027 26.7898 94.9855Z" fill="#BB94C3"/>
<path d="M32.754 99.1743C31.1848 99.2792 29.7389 99.8852 28.6833 99.5977C27.9046 99.358 27.5116 98.463 26.7334 98.2214C26.0776 98.0179 25.3435 98.59 24.7123 98.3122C24.2908 98.1267 24.2568 97.9652 24.2568 97.4804C24.2568 97.0526 24.1633 96.8255 24.5415 96.6788C25.1677 96.436 26.6765 96.7393 26.6765 96.7393C26.6765 96.7393 25.1817 96.5561 24.8831 97.1023C24.7559 97.3349 24.8502 97.7288 25.0539 97.8887C25.6966 98.3933 26.1238 97.6012 26.8757 97.8887C27.4188 98.0964 28.2727 98.9541 28.8114 99.1743C30.0872 99.6957 32.7967 98.8567 32.7967 98.8567" fill="black"/>
<path d="M26.851 91.0871C29.7391 89.7923 30.5184 86.4928 31.6416 83.4941C30.3048 86.2455 29.5925 89.5217 26.5691 90.9801" fill="black"/>
<path d="M25.3415 91.0653C26.5072 90.3119 27.6947 89.0484 28.5421 87.686C27.2799 89.3722 25.9491 90.5608 25.0598 90.9371" fill="black"/>
<path d="M36.3556 67.5857C33.9396 67.666 32.1314 68.0115 30.6409 69.0527C29.7129 69.701 28.2181 68.8177 26.9262 69.0981C26.3119 69.2314 25.6945 69.5853 25.0332 69.9072C24.8901 71.7253 24.7095 73.5517 24.4923 75.3821C24.4475 76.4682 24.4311 77.5517 24.4211 78.6414C24.506 78.6377 24.5925 78.6312 24.6773 78.6338C26.3256 78.6841 27.964 79.139 29.5806 78.9968C30.7645 78.8926 31.7784 78.1636 32.9326 78.0591C33.7577 77.9844 34.5887 77.9896 35.4162 78.0364C35.7394 74.5547 36.1062 71.0804 36.3556 67.5856V67.5857Z" fill="#BF94BF"/>
<path d="M27.3794 69.0497C26.6663 69.0086 25.7868 69.9245 25.1097 69.843C25.0942 69.7716 25.0805 69.7192 25.0649 69.6526C25.0345 69.6676 25.0059 69.6853 24.9753 69.7002C24.8252 71.6076 24.6358 73.5238 24.4079 75.4439C24.3609 76.5834 24.3437 77.7201 24.3333 78.8632C24.4223 78.8593 24.513 78.8525 24.602 78.8552C25.5017 78.8827 26.3975 79.0236 27.2897 79.1329C27.2616 78.297 26.5615 77.4242 26.7148 76.9354C26.8922 76.37 27.6576 76.3315 27.8123 75.6739C27.9859 74.9365 26.937 73.6707 27.006 73.524C27.274 72.9545 28.3902 72.6417 27.9393 71.6835C27.8497 71.4932 26.929 71.0774 27.006 70.9139C27.1865 70.5303 28.4481 70.1581 28.0214 69.478C27.8345 69.1802 27.617 69.0633 27.3793 69.0496L27.3794 69.0497Z" fill="#97669D"/>
<path d="M33.3667 72.5972C33.2322 72.6653 31.0757 78.3767 30.8757 77.8678C30.921 78 31.035 78.2661 31.1746 78.556C31.7512 78.3366 32.3234 78.112 32.9324 78.0569C33.1008 78.0416 33.269 78.028 33.4377 78.0191C33.8353 76.4934 33.3737 74.42 33.3737 72.6047C33.3737 72.5947 33.3709 72.5949 33.3666 72.5971L33.3667 72.5972Z" fill="#97669D"/>
<path d="M29.2668 58.1901L31.5414 58.019L31.6823 55.6021L29.2668 58.1901Z" fill="#BF94BF"/>
<path d="M34.4183 54.4902C34.2492 54.1206 35.3575 53.5027 35.4852 53.5705C36.4731 54.0954 35.8712 55.5043 35.0021 55.966C34.8481 56.0478 34.8925 56.2916 34.7807 56.351C34.7262 56.3799 34.6459 56.3247 34.5995 56.3083C33.8404 56.0394 34.58 55.6012 34.7002 55.3458C34.7604 55.2178 34.4495 54.6885 34.4184 54.4902L34.4183 54.4902Z" fill="#BF94BF"/>
<path d="M27.5549 56.3093C26.2419 58.5397 25.4955 61.0737 25.3956 63.7016C25.2401 67.57 24.9582 71.4589 24.4931 75.3785C24.29 80.3063 24.6402 85.2882 23.7711 90.163C22.9151 91.7578 20.8046 92.0285 19.7204 93.0888C19.5406 93.2647 19.8979 93.691 19.7513 93.9049C17.8901 94.7568 15.6002 93.7824 13.8274 93.7603C12.9835 93.7497 12.319 94.2527 11.7575 94.7158C11.2439 95.3616 11.2848 96.6919 10.7313 97.5736C10.1313 98.5295 9.05367 99.1794 9.90127 100.158C10.1492 100.444 8.69852 100.06 8.23675 100.025C5.89704 99.5564 6.57017 103.883 3.94538 103.464C2.68357 103.473 -1.24006 107.402 2.737 105.544C3.94536 104.888 6.08009 104.042 4.19083 105.615C3.78563 106.059 2.35149 106.52 2.72971 107.118C3.39377 108.167 4.90787 106.098 5.99697 105.589C4.84779 106.91 5.50229 107.539 6.92816 106.67C6.61471 107.391 6.44695 107.585 6.73177 107.841C7.39124 108.434 8.68589 106.804 9.17419 106.918C9.54692 107.004 9.4545 107.799 9.81352 107.967C10.49 108.284 11.4265 106.16 12.2361 107.859C16.2426 107.155 20.3245 107.266 24.3665 106.937C25.2881 106.914 26.2382 106.647 27.0353 107.202C28.8843 106.36 29.3752 103.883 30.7313 102.478C31.5727 101.388 35.204 101.093 32.8908 99.4449C32.4344 98.1028 35.6606 97.1989 33.8848 95.8703C33.5518 95.1795 31.7335 94.1204 33.0394 93.6704C34.7077 92.8999 34.6948 91.2229 34.7474 89.6566C34.7812 77.3684 37.6455 65.6484 36.2706 53.1002C33.4342 53.7939 30.6208 54.361 27.5549 56.3084L27.5549 56.3093Z" stroke="black"/>
<defs>
<filter id="filter0_f" x="31.176" y="26.8778" width="8.42566" height="10.4668" filterUnits="userSpaceOnUse" color-interpolation-filters="sRGB">
<feFlood flood-opacity="0" result="BackgroundImageFix"/>
<feBlend mode="normal" in="SourceGraphic" in2="BackgroundImageFix" result="shape"/>
<feGaussianBlur stdDeviation="0.5985" result="effect1_foregroundBlur"/>
</filter>
<filter id="filter1_f" x="48.7505" y="25.7926" width="6.32602" height="5.64233" filterUnits="userSpaceOnUse" color-interpolation-filters="sRGB">
<feFlood flood-opacity="0" result="BackgroundImageFix"/>
<feBlend mode="normal" in="SourceGraphic" in2="BackgroundImageFix" result="shape"/>
<feGaussianBlur stdDeviation="0.5675" result="effect1_foregroundBlur"/>
</filter>
<filter id="filter2_f" x="48.1773" y="27.4177" width="3.59571" height="3.533" filterUnits="userSpaceOnUse" color-interpolation-filters="sRGB">
<feFlood flood-opacity="0" result="BackgroundImageFix"/>
<feBlend mode="normal" in="SourceGraphic" in2="BackgroundImageFix" result="shape"/>
<feGaussianBlur stdDeviation="0.5675" result="effect1_foregroundBlur"/>
</filter>
<filter id="filter3_f" x="47.3377" y="30.134" width="7.69794" height="5.84927" filterUnits="userSpaceOnUse" color-interpolation-filters="sRGB">
<feFlood flood-opacity="0" result="BackgroundImageFix"/>
<feBlend mode="normal" in="SourceGraphic" in2="BackgroundImageFix" result="shape"/>
<feGaussianBlur stdDeviation="0.5675" result="effect1_foregroundBlur"/>
</filter>
<filter id="filter4_f" x="27.4016" y="32.2149" width="32.7333" height="11.0162" filterUnits="userSpaceOnUse" color-interpolation-filters="sRGB">
<feFlood flood-opacity="0" result="BackgroundImageFix"/>
<feBlend mode="normal" in="SourceGraphic" in2="BackgroundImageFix" result="shape"/>
<feGaussianBlur stdDeviation="1.8346" result="effect1_foregroundBlur"/>
</filter>
</defs>
</svg>
