<svg width="541" height="438" viewBox="0 0 501 398" fill="none" xmlns="http://www.w3.org/2000/svg">
<circle cx="302" cy="199" r="199" fill="#9AC875"/>
<path d="M251.169 342.664L242.675 338.972L236.848 295.016H159.25L152.934 338.792L145.334 342.714C144.97 342.902 144.679 343.211 144.507 343.591C144.334 343.971 144.291 344.4 144.385 344.808C144.478 345.217 144.702 345.581 145.021 345.841C145.34 346.102 145.735 346.243 146.141 346.243H250.469C250.886 346.243 251.29 346.095 251.612 345.822C251.934 345.55 252.156 345.171 252.238 344.749C252.321 344.328 252.259 343.89 252.064 343.509C251.869 343.129 251.553 342.83 251.169 342.664Z" fill="#E6E6E6"/>
<path d="M389.067 300.864H7.88293C5.88297 300.86 3.96645 300.036 2.55385 298.575C1.14125 297.113 0.347914 295.133 0.3479 293.069V237.583H396.602V293.069C396.601 295.133 395.808 297.113 394.396 298.575C392.983 300.036 391.066 300.86 389.067 300.864Z" fill="#CCCCCC"/>
<path d="M397 263.807H0V26.3973C0.0027887 23.9058 0.962861 21.5172 2.6696 19.7555C4.37633 17.9937 6.69035 17.0028 9.104 17H387.896C390.31 17.0028 392.624 17.9937 394.33 19.7554C396.037 21.5172 396.997 23.9058 397 26.3973V263.807Z" fill="#3F3D56"/>
<path d="M373.289 246.576H23.7111C21.8504 246.574 20.0664 245.81 18.7506 244.452C17.4348 243.094 16.6947 241.252 16.6926 239.331V41.4759C16.6947 39.5551 17.4348 37.7136 18.7506 36.3553C20.0664 34.9971 21.8503 34.233 23.7111 34.2308H373.289C375.15 34.233 376.934 34.9971 378.249 36.3553C379.565 37.7136 380.305 39.5551 380.307 41.4759V239.331C380.305 241.252 379.565 243.094 378.249 244.452C376.933 245.81 375.149 246.574 373.289 246.576Z" fill="white"/>
<path d="M373.289 246.576H23.7111C21.8504 246.574 20.0664 245.81 18.7506 244.452C17.4348 243.094 16.6947 241.252 16.6926 239.331V41.4759C16.6947 39.5551 17.4348 37.7136 18.7506 36.3553C20.0664 34.9971 21.8503 34.233 23.7111 34.2308H373.289C375.15 34.233 376.934 34.9971 378.249 36.3553C379.565 37.7136 380.305 39.5551 380.307 41.4759V239.331C380.305 241.252 379.565 243.094 378.249 244.452C376.933 245.81 375.149 246.574 373.289 246.576Z" fill="white"/>
<path d="M296.539 346.702H100.107C99.9057 346.706 99.7088 346.642 99.5467 346.519C99.3847 346.395 99.2667 346.22 99.2111 346.021C99.1763 345.885 99.1723 345.742 99.1992 345.605C99.2262 345.467 99.2834 345.337 99.3664 345.226C99.4495 345.115 99.5562 345.024 99.6784 344.962C99.8005 344.9 99.9348 344.868 100.071 344.868H296.467C296.679 344.86 296.887 344.927 297.058 345.057C297.229 345.187 297.352 345.373 297.407 345.585C297.436 345.719 297.436 345.858 297.405 345.992C297.375 346.126 297.316 346.251 297.233 346.358C297.15 346.465 297.044 346.552 296.924 346.611C296.804 346.671 296.673 346.702 296.539 346.702Z" fill="#CCCCCC"/>
<path d="M369.556 66.218H285.153V132.78H369.556V66.218Z" fill="#F2F2F2"/>
<path d="M365.363 69.5254H289.347V129.472H365.363V69.5254Z" fill="white"/>
<path d="M328.69 113.991C328.7 113.991 328.71 113.991 328.72 113.99C333.866 113.713 338.716 111.422 342.283 107.585C345.851 103.747 347.869 98.6512 347.927 93.3327C347.985 88.0142 346.078 82.8727 342.594 78.9537C339.111 75.0347 334.312 72.6326 329.173 72.2357C329.11 72.2306 329.046 72.239 328.986 72.2606C328.926 72.2821 328.87 72.3163 328.824 72.3609C328.777 72.4048 328.74 72.4582 328.714 72.5177C328.688 72.5772 328.675 72.6416 328.674 72.7067L328.231 113.508C328.23 113.635 328.278 113.757 328.364 113.847C328.45 113.938 328.567 113.99 328.69 113.991Z" fill="#3F3D56"/>
<path d="M312.795 78.9826C312.953 78.9846 313.103 79.051 313.214 79.1673L326.821 93.5319C326.876 93.5894 326.919 93.6575 326.948 93.7323C326.977 93.807 326.992 93.887 326.991 93.9676L326.778 113.491C326.778 113.575 326.761 113.658 326.727 113.734C326.694 113.811 326.646 113.879 326.586 113.936C326.526 113.993 326.455 114.037 326.378 114.064C326.301 114.092 326.219 114.103 326.137 114.097C322.354 113.804 318.724 112.429 315.657 110.124C312.589 107.82 310.205 104.678 308.771 101.052C307.338 97.4261 306.913 93.4592 307.544 89.5974C308.175 85.7355 309.836 82.1318 312.342 79.191C312.396 79.1276 312.462 79.0764 312.536 79.0406C312.61 79.0048 312.691 78.9851 312.773 78.9827C312.78 78.9825 312.788 78.9825 312.795 78.9826Z" fill="#E6E6E6"/>
<path d="M326.632 72.069C326.784 72.0709 326.929 72.1323 327.039 72.2408C327.098 72.2986 327.144 72.3684 327.176 72.4457C327.207 72.523 327.223 72.6063 327.222 72.6901L327.03 90.3055C327.029 90.4268 326.993 90.5449 326.926 90.645C326.86 90.7451 326.766 90.8226 326.657 90.8678C326.548 90.913 326.429 90.9237 326.314 90.8988C326.199 90.8738 326.094 90.8142 326.011 90.7275L314.137 78.1925C314.081 78.1329 314.037 78.0621 314.008 77.9843C313.979 77.9066 313.965 77.8236 313.968 77.7403C313.971 77.657 313.991 77.5753 314.025 77.5C314.06 77.4246 314.109 77.3574 314.169 77.3022C317.623 74.1645 322.001 72.3209 326.595 72.0698C326.607 72.0691 326.619 72.0689 326.632 72.069Z" fill="#9AC875"/>
<path d="M320.515 122.452C320.507 123.195 320.286 123.919 319.879 124.532C319.472 125.146 318.899 125.621 318.23 125.897C317.562 126.174 316.829 126.24 316.125 126.087C315.42 125.934 314.776 125.568 314.272 125.037C313.769 124.506 313.43 123.832 313.297 123.102C313.165 122.371 313.245 121.616 313.528 120.933C313.811 120.25 314.284 119.668 314.887 119.262C315.49 118.856 316.196 118.644 316.916 118.653C317.881 118.665 318.802 119.072 319.477 119.784C320.151 120.496 320.525 121.456 320.515 122.452Z" fill="#9AC875"/>
<path d="M330.915 122.572C330.907 123.315 330.685 124.039 330.279 124.653C329.872 125.266 329.298 125.741 328.63 126.018C327.962 126.294 327.229 126.36 326.525 126.207C325.82 126.054 325.175 125.689 324.672 125.157C324.169 124.626 323.829 123.952 323.697 123.222C323.564 122.491 323.644 121.737 323.927 121.053C324.21 120.37 324.683 119.789 325.286 119.383C325.889 118.977 326.596 118.764 327.316 118.773C328.281 118.785 329.201 119.192 329.876 119.904C330.551 120.617 330.924 121.576 330.915 122.572Z" fill="#3F3D56"/>
<path d="M341.314 122.693C341.306 123.436 341.085 124.16 340.678 124.773C340.272 125.386 339.698 125.861 339.03 126.138C338.361 126.415 337.629 126.481 336.924 126.327C336.22 126.174 335.575 125.809 335.072 125.278C334.568 124.746 334.229 124.073 334.096 123.342C333.964 122.612 334.044 121.857 334.327 121.174C334.61 120.49 335.083 119.909 335.686 119.503C336.289 119.097 336.995 118.885 337.715 118.893C338.68 118.905 339.601 119.312 340.276 120.025C340.951 120.737 341.324 121.696 341.314 122.693Z" fill="#E6E6E6"/>
<path d="M368.668 143.255H284.265V209.817H368.668V143.255Z" fill="#F2F2F2"/>
<path d="M364.474 146.563H288.458V206.51H364.474V146.563Z" fill="white"/>
<path d="M301.356 166.266C303.099 166.266 304.512 164.807 304.512 163.008C304.512 161.208 303.099 159.75 301.356 159.75C299.613 159.75 298.2 161.208 298.2 163.008C298.2 164.807 299.613 166.266 301.356 166.266Z" fill="#3F3D56"/>
<path d="M352.068 160.472C352.35 160.472 352.629 160.529 352.889 160.639C353.149 160.75 353.385 160.913 353.584 161.118C353.783 161.323 353.941 161.567 354.049 161.835C354.157 162.104 354.213 162.391 354.213 162.682C354.213 162.972 354.157 163.26 354.049 163.528C353.941 163.797 353.783 164.04 353.584 164.245C353.385 164.451 353.149 164.613 352.889 164.724C352.629 164.835 352.35 164.892 352.068 164.891H318.873C318.306 164.891 317.761 164.659 317.36 164.244C316.958 163.83 316.733 163.268 316.733 162.682C316.733 162.096 316.958 161.534 317.36 161.119C317.761 160.705 318.306 160.472 318.873 160.472H352.068ZM352.068 159.931H318.873C318.523 159.931 318.176 160.001 317.852 160.139C317.529 160.277 317.234 160.48 316.986 160.735C316.739 160.991 316.542 161.294 316.408 161.628C316.274 161.962 316.205 162.32 316.205 162.682C316.205 163.043 316.274 163.401 316.408 163.735C316.542 164.069 316.739 164.373 316.986 164.628C317.234 164.884 317.529 165.086 317.852 165.224C318.176 165.362 318.523 165.433 318.873 165.432H352.068C352.419 165.433 352.766 165.362 353.089 165.224C353.413 165.086 353.707 164.884 353.955 164.628C354.203 164.373 354.4 164.069 354.534 163.735C354.668 163.401 354.737 163.043 354.737 162.682C354.737 162.32 354.668 161.962 354.534 161.628C354.4 161.294 354.203 160.991 353.955 160.735C353.707 160.48 353.413 160.277 353.089 160.139C352.766 160.001 352.419 159.931 352.068 159.931Z" fill="#3F3D56"/>
<path d="M338.97 165.432H313.981C313.274 165.432 312.597 165.143 312.097 164.627C311.597 164.111 311.316 163.411 311.316 162.682C311.316 161.952 311.597 161.253 312.097 160.737C312.597 160.221 313.274 159.931 313.981 159.931H338.97C339.677 159.931 340.355 160.221 340.854 160.737C341.354 161.253 341.635 161.952 341.635 162.682C341.635 163.411 341.354 164.111 340.854 164.627C340.355 165.143 339.677 165.432 338.97 165.432Z" fill="#9AC875"/>
<path d="M301.356 179.794C303.099 179.794 304.512 178.336 304.512 176.536C304.512 174.737 303.099 173.278 301.356 173.278C299.613 173.278 298.2 174.737 298.2 176.536C298.2 178.336 299.613 179.794 301.356 179.794Z" fill="#3F3D56"/>
<path d="M352.068 174.001C352.35 174.001 352.629 174.057 352.889 174.168C353.149 174.279 353.385 174.442 353.584 174.647C353.783 174.852 353.941 175.096 354.049 175.364C354.157 175.633 354.212 175.92 354.212 176.211C354.212 176.501 354.157 176.789 354.049 177.057C353.941 177.325 353.783 177.569 353.584 177.774C353.385 177.98 353.149 178.142 352.889 178.253C352.629 178.364 352.35 178.421 352.068 178.42H318.873C318.306 178.42 317.761 178.187 317.36 177.773C316.958 177.359 316.733 176.797 316.733 176.211C316.733 175.625 316.958 175.063 317.36 174.648C317.761 174.234 318.306 174.001 318.873 174.001H352.068ZM352.068 173.46H318.873C318.167 173.46 317.489 173.75 316.989 174.266C316.489 174.781 316.208 175.481 316.208 176.211C316.208 176.94 316.489 177.64 316.989 178.156C317.489 178.672 318.167 178.961 318.873 178.961H352.068C352.775 178.961 353.453 178.672 353.953 178.156C354.452 177.64 354.733 176.94 354.733 176.211C354.733 175.481 354.452 174.781 353.953 174.266C353.453 173.75 352.775 173.46 352.068 173.46Z" fill="#3F3D56"/>
<path d="M348.407 178.961H313.981C313.274 178.961 312.597 178.671 312.097 178.156C311.597 177.64 311.316 176.94 311.316 176.21C311.316 175.481 311.597 174.781 312.097 174.265C312.597 173.75 313.274 173.46 313.981 173.46H348.407C349.113 173.46 349.791 173.75 350.291 174.265C350.791 174.781 351.071 175.481 351.071 176.21C351.071 176.94 350.791 177.64 350.291 178.156C349.791 178.671 349.113 178.961 348.407 178.961Z" fill="#9AC875"/>
<path d="M301.356 193.323C303.099 193.323 304.512 191.864 304.512 190.065C304.512 188.266 303.099 186.807 301.356 186.807C299.613 186.807 298.2 188.266 298.2 190.065C298.2 191.864 299.613 193.323 301.356 193.323Z" fill="#3F3D56"/>
<path d="M352.068 187.53C352.35 187.529 352.629 187.586 352.889 187.697C353.149 187.808 353.385 187.971 353.584 188.176C353.783 188.381 353.941 188.625 354.049 188.893C354.157 189.161 354.212 189.449 354.212 189.739C354.212 190.03 354.157 190.318 354.049 190.586C353.941 190.854 353.783 191.098 353.584 191.303C353.385 191.508 353.149 191.671 352.889 191.782C352.629 191.893 352.35 191.949 352.068 191.949H318.873C318.306 191.949 317.761 191.716 317.36 191.302C316.958 190.887 316.733 190.325 316.733 189.739C316.733 189.153 316.958 188.591 317.36 188.177C317.761 187.763 318.306 187.53 318.873 187.53H352.068ZM352.068 186.989H318.873C318.167 186.989 317.489 187.279 316.989 187.794C316.489 188.31 316.208 189.01 316.208 189.739C316.208 190.469 316.489 191.169 316.989 191.684C317.489 192.2 318.167 192.49 318.873 192.49H352.068C352.775 192.49 353.453 192.2 353.953 191.684C354.452 191.169 354.733 190.469 354.733 189.739C354.733 189.01 354.452 188.31 353.953 187.794C353.453 187.279 352.775 186.989 352.068 186.989Z" fill="#3F3D56"/>
<path d="M327.961 192.49H313.981C313.63 192.491 313.283 192.42 312.96 192.282C312.636 192.144 312.342 191.941 312.094 191.686C311.846 191.43 311.649 191.127 311.515 190.793C311.381 190.459 311.312 190.101 311.312 189.739C311.312 189.378 311.381 189.02 311.515 188.686C311.649 188.352 311.846 188.048 312.094 187.793C312.342 187.538 312.636 187.335 312.96 187.197C313.283 187.059 313.63 186.988 313.981 186.989H327.961C328.667 186.99 329.343 187.28 329.842 187.796C330.341 188.312 330.621 189.011 330.621 189.739C330.621 190.468 330.341 191.167 329.842 191.683C329.343 192.199 328.667 192.489 327.961 192.49Z" fill="#9AC875"/>
<path d="M265.607 77.9944H29.7974V202.744H265.607V77.9944Z" fill="#F2F2F2"/>
<path d="M257.746 84.1931H37.6577V196.545H257.746V84.1931Z" fill="white"/>
<path d="M230.451 179.405H70.0102C69.877 179.405 69.7493 179.35 69.6551 179.253C69.561 179.156 69.5081 179.024 69.5081 178.887V99.5075C69.5081 99.3701 69.561 99.2383 69.6551 99.1411C69.7493 99.0439 69.877 98.9893 70.0102 98.9893C70.1433 98.9893 70.271 99.0439 70.3652 99.1411C70.4594 99.2383 70.5123 99.3701 70.5123 99.5075V178.368H230.451C230.584 178.368 230.712 178.423 230.806 178.52C230.9 178.617 230.953 178.749 230.953 178.887C230.953 179.024 230.9 179.156 230.806 179.253C230.712 179.35 230.584 179.405 230.451 179.405Z" fill="#3F3D56"/>
<path d="M104.289 173.704H89.6968C89.3017 173.703 88.9228 173.541 88.6434 173.253C88.364 172.964 88.2068 172.573 88.2063 172.165V151.4C88.2068 150.992 88.364 150.601 88.6434 150.313C88.9228 150.025 89.3017 149.862 89.6968 149.862H104.289C104.685 149.862 105.063 150.025 105.343 150.313C105.622 150.601 105.78 150.992 105.78 151.4V172.165C105.78 172.573 105.622 172.964 105.343 173.253C105.063 173.541 104.685 173.703 104.289 173.704Z" fill="#9AC875"/>
<path d="M130.901 173.704H116.308C115.913 173.703 115.534 173.541 115.255 173.252C114.976 172.964 114.818 172.573 114.818 172.165V131.705C114.818 131.297 114.976 130.906 115.255 130.618C115.534 130.329 115.913 130.167 116.308 130.167H130.901C131.296 130.167 131.675 130.329 131.954 130.618C132.234 130.906 132.391 131.297 132.392 131.705V172.165C132.391 172.573 132.234 172.964 131.954 173.252C131.675 173.541 131.296 173.703 130.901 173.704Z" fill="#9AC875"/>
<path d="M157.513 173.704H142.92C142.525 173.703 142.146 173.541 141.867 173.253C141.587 172.964 141.43 172.573 141.43 172.165V151.4C141.43 150.992 141.587 150.601 141.867 150.313C142.146 150.025 142.525 149.862 142.92 149.862H157.513C157.908 149.862 158.287 150.025 158.566 150.313C158.846 150.601 159.003 150.992 159.003 151.4V172.165C159.003 172.573 158.846 172.964 158.566 173.253C158.287 173.541 157.908 173.703 157.513 173.704Z" fill="#9AC875"/>
<path d="M184.124 173.704H169.532C169.146 173.712 168.772 173.562 168.493 173.287C168.213 173.012 168.051 172.633 168.041 172.235V123.861C168.051 123.462 168.213 123.084 168.493 122.809C168.772 122.533 169.146 122.383 169.532 122.392H184.124C184.511 122.383 184.884 122.533 185.164 122.809C185.443 123.084 185.605 123.462 185.615 123.861V172.235C185.605 172.633 185.443 173.012 185.164 173.287C184.884 173.562 184.511 173.712 184.124 173.704Z" fill="#9AC875"/>
<path d="M210.736 173.704H196.143C195.748 173.703 195.369 173.541 195.09 173.252C194.811 172.964 194.653 172.573 194.653 172.165V109.937C194.653 109.529 194.811 109.138 195.09 108.849C195.369 108.561 195.748 108.399 196.143 108.398H210.736C211.131 108.399 211.51 108.561 211.789 108.849C212.069 109.138 212.226 109.529 212.227 109.937V172.165C212.226 172.573 212.069 172.964 211.789 173.252C211.51 173.541 211.131 173.703 210.736 173.704Z" fill="#9AC875"/>
<path d="M96.9931 143.642C98.6569 143.642 100.006 142.25 100.006 140.533C100.006 138.815 98.6569 137.423 96.9931 137.423C95.3293 137.423 93.9805 138.815 93.9805 140.533C93.9805 142.25 95.3293 143.642 96.9931 143.642Z" fill="#3F3D56"/>
<path d="M123.604 123.429C125.268 123.429 126.617 122.036 126.617 120.319C126.617 118.601 125.268 117.209 123.604 117.209C121.941 117.209 120.592 118.601 120.592 120.319C120.592 122.036 121.941 123.429 123.604 123.429Z" fill="#3F3D56"/>
<path d="M150.216 143.642C151.88 143.642 153.229 142.25 153.229 140.533C153.229 138.815 151.88 137.423 150.216 137.423C148.552 137.423 147.204 138.815 147.204 140.533C147.204 142.25 148.552 143.642 150.216 143.642Z" fill="#3F3D56"/>
<path d="M176.828 113.581C178.492 113.581 179.84 112.189 179.84 110.471C179.84 108.754 178.492 107.361 176.828 107.361C175.164 107.361 173.815 108.754 173.815 110.471C173.815 112.189 175.164 113.581 176.828 113.581Z" fill="#3F3D56"/>
<path d="M203.439 102.179C205.103 102.179 206.452 100.786 206.452 99.0688C206.452 97.3513 205.103 95.959 203.439 95.959C201.776 95.959 200.427 97.3513 200.427 99.0688C200.427 100.786 201.776 102.179 203.439 102.179Z" fill="#3F3D56"/>
<path d="M150.28 141.229L123.605 120.605L97.2943 140.947L96.6924 140.118L123.605 119.309L150.153 139.836L176.535 110.035L176.64 109.99L203.252 98.9226L203.627 99.884L177.122 110.908L150.28 141.229Z" fill="#3F3D56"/>
</svg>
