<svg width="75" height="100" viewBox="0 0 75 100" fill="none" xmlns="http://www.w3.org/2000/svg">
<path fill-rule="evenodd" clip-rule="evenodd" d="M30.6184 79.1714H44.3804V98.7756C40.067 98.5545 35.5822 99.1728 30.6184 98.7756V79.1714Z" fill="#4D4D4D"/>
<path fill-rule="evenodd" clip-rule="evenodd" d="M30.6184 79.1714H44.3804V89.5006C40.067 89.3841 35.5822 89.7098 30.6184 89.5006V79.1714Z" fill="#333333"/>
<path d="M2.59497 1.20241L2.59497 84.0158H72.3268V1.20241H2.59497Z" fill="#C5E1A5"/>
<path d="M9.91602 1.20241L9.91602 84.0158H65.005V1.20241H9.91602Z" fill="white"/>
<path d="M63.1859 4.56363C63.7105 4.56363 64.1359 4.17752 64.1359 3.70123C64.1359 3.22495 63.7105 2.83884 63.1859 2.83884C62.6612 2.83884 62.2358 3.22495 62.2358 3.70123C62.2358 4.17752 62.6612 4.56363 63.1859 4.56363Z" fill="#7986CB"/>
<path d="M60.462 4.56363C60.9867 4.56363 61.412 4.17752 61.412 3.70123C61.412 3.22495 60.9867 2.83884 60.462 2.83884C59.9373 2.83884 59.512 3.22495 59.512 3.70123C59.512 4.17752 59.9373 4.56363 60.462 4.56363Z" fill="#7986CB"/>
<path d="M57.8021 4.56363C58.3267 4.56363 58.7521 4.17752 58.7521 3.70123C58.7521 3.22495 58.3267 2.83884 57.8021 2.83884C57.2774 2.83884 56.8521 3.22495 56.8521 3.70123C56.8521 4.17752 57.2774 4.56363 57.8021 4.56363Z" fill="#7986CB"/>
<path fill-rule="evenodd" clip-rule="evenodd" d="M0 87.0822H75V0H0V87.0822ZM3.87592 82.8105V3.63174H70.8137V82.9421L3.87592 82.8105Z" fill="#4D4D4D"/>
<path fill-rule="evenodd" clip-rule="evenodd" d="M16.4185 100H58.5817C58.8105 100 59.08 99.9329 58.9946 99.8619L56.9311 98.1477C56.8456 98.0767 55.9731 98.0096 55.7444 98.0096H19.256C19.0272 98.0096 18.1547 98.0767 18.0693 98.1477L16.0057 99.8619C15.9202 99.9329 16.1898 100 16.4185 100V100Z" fill="#424242"/>
<path d="M41.4908 6.49146H13.2236V8.51346H41.4908V6.49146Z" fill="#FF8F00"/>
<path d="M20.9072 14.4255H14.7437V15.5852H20.9072V14.4255Z" fill="#26C6DA"/>
<path d="M14.7683 15.5808C14.7247 15.6091 14.3568 15.3744 14.3138 15.3448C14.2727 15.3165 13.9313 15.0625 13.9326 15.0055C13.934 14.946 14.287 14.6804 14.3298 14.6504C14.3708 14.6217 14.7245 14.3934 14.7649 14.4232C14.8071 14.4544 14.822 14.9547 14.8221 15.0142C14.8223 15.0713 14.81 15.5536 14.7683 15.5808L14.7683 15.5808Z" fill="#26C6DA"/>
<path d="M20.8958 15.5808C20.9393 15.6091 21.3073 15.3744 21.3502 15.3448C21.3914 15.3165 21.7328 15.0625 21.7315 15.0055C21.7301 14.946 21.377 14.6804 21.3342 14.6504C21.2932 14.6217 20.9395 14.3934 20.8991 14.4232C20.857 14.4544 20.8421 14.9547 20.8419 15.0142C20.8418 15.0713 20.8541 15.5536 20.8958 15.5808L20.8958 15.5808Z" fill="#26C6DA"/>
<path d="M24.3271 16.6678H18.1636V17.8275H24.3271V16.6678Z" fill="#26C6DA"/>
<path d="M18.1882 17.823C18.1447 17.8513 17.7767 17.6166 17.7338 17.587C17.6926 17.5587 17.3512 17.3047 17.3525 17.2477C17.3539 17.1882 17.707 16.9226 17.7497 16.8926C17.7907 16.864 18.1444 16.6356 18.1848 16.6654C18.227 16.6966 18.2419 17.197 18.2421 17.2565C18.2422 17.3135 18.2299 17.7958 18.1882 17.823L18.1882 17.823Z" fill="#26C6DA"/>
<path d="M24.316 17.823C24.3595 17.8513 24.7274 17.6166 24.7704 17.587C24.8116 17.5587 25.1529 17.3047 25.1516 17.2477C25.1503 17.1882 24.7972 16.9226 24.7544 16.8926C24.7134 16.864 24.3597 16.6356 24.3193 16.6654C24.2771 16.6966 24.2623 17.197 24.2621 17.2565C24.2619 17.3135 24.2742 17.7958 24.316 17.823L24.316 17.823Z" fill="#26C6DA"/>
<path d="M26.9865 18.7946H20.823V19.9543H26.9865V18.7946Z" fill="#26C6DA"/>
<path d="M20.8481 19.9503C20.8046 19.9786 20.4366 19.7439 20.3937 19.7143C20.3525 19.686 20.0111 19.432 20.0124 19.375C20.0138 19.3155 20.3669 19.0498 20.4096 19.0199C20.4506 18.9912 20.8043 18.7628 20.8448 18.7927C20.8869 18.8239 20.9018 19.3242 20.902 19.3837C20.9021 19.4407 20.8898 19.9231 20.8481 19.9502L20.8481 19.9503Z" fill="#26C6DA"/>
<path d="M26.9754 19.9503C27.0189 19.9786 27.3869 19.7439 27.4298 19.7143C27.471 19.686 27.8124 19.432 27.8111 19.375C27.8097 19.3155 27.4566 19.0498 27.4138 19.0199C27.3728 18.9912 27.0191 18.7628 26.9787 18.7927C26.9366 18.8239 26.9217 19.3242 26.9215 19.3837C26.9213 19.4407 26.9336 19.9231 26.9754 19.9502L26.9754 19.9503Z" fill="#26C6DA"/>
<path d="M27.051 20.9802H20.8875V22.1399H27.051V20.9802Z" fill="#26C6DA"/>
<path d="M20.9116 22.1349C20.868 22.1632 20.5001 21.9285 20.4571 21.8989C20.416 21.8706 20.0746 21.6166 20.0759 21.5596C20.0773 21.5001 20.4304 21.2344 20.4731 21.2045C20.5141 21.1758 20.8678 20.9474 20.9082 20.9773C20.9504 21.0085 20.9653 21.5088 20.9655 21.5683C20.9656 21.6253 20.9533 22.1077 20.9116 22.1348L20.9116 22.1349Z" fill="#26C6DA"/>
<path d="M27.0376 22.1349C27.0812 22.1632 27.4491 21.9285 27.4921 21.8989C27.5332 21.8706 27.8746 21.6166 27.8733 21.5596C27.8719 21.5001 27.5189 21.2344 27.4761 21.2045C27.4351 21.1758 27.0814 20.9474 27.041 20.9773C26.9988 21.0085 26.9839 21.5088 26.9838 21.5683C26.9836 21.6253 26.9959 22.1077 27.0376 22.1348L27.0376 22.1349Z" fill="#26C6DA"/>
<path d="M27.1135 23.1073H20.95V24.267H27.1135V23.1073Z" fill="#26C6DA"/>
<path d="M20.9748 24.2619C20.9313 24.2902 20.5633 24.0556 20.5204 24.026C20.4792 23.9976 20.1378 23.7436 20.1391 23.6867C20.1405 23.6272 20.4936 23.3615 20.5364 23.3316C20.5774 23.3029 20.9311 23.0745 20.9715 23.1044C21.0136 23.1355 21.0285 23.6359 21.0287 23.6954C21.0289 23.7524 21.0165 24.2348 20.9748 24.2619L20.9748 24.2619Z" fill="#26C6DA"/>
<path d="M27.1018 24.2619C27.1454 24.2902 27.5133 24.0556 27.5563 24.026C27.5974 23.9976 27.9388 23.7436 27.9375 23.6867C27.9362 23.6272 27.5831 23.3615 27.5403 23.3316C27.4993 23.3029 27.1456 23.0745 27.1052 23.1044C27.063 23.1355 27.0481 23.6359 27.048 23.6954C27.0478 23.7524 27.0601 24.2348 27.1018 24.2619L27.1018 24.2619Z" fill="#26C6DA"/>
<path d="M27.1135 25.291H20.95V26.4507H27.1135V25.291Z" fill="#26C6DA"/>
<path d="M20.9748 26.4475C20.9313 26.4758 20.5633 26.2412 20.5204 26.2116C20.4792 26.1833 20.1378 25.9293 20.1391 25.8723C20.1405 25.8128 20.4936 25.5471 20.5364 25.5172C20.5774 25.4885 20.9311 25.2601 20.9715 25.29C21.0136 25.3212 21.0285 25.8215 21.0287 25.881C21.0289 25.938 21.0165 26.4204 20.9748 26.4475L20.9748 26.4475Z" fill="#26C6DA"/>
<path d="M27.1018 26.4475C27.1454 26.4758 27.5133 26.2412 27.5563 26.2116C27.5974 26.1833 27.9388 25.9293 27.9375 25.8723C27.9362 25.8128 27.5831 25.5471 27.5403 25.5172C27.4993 25.4885 27.1456 25.2601 27.1052 25.29C27.063 25.3212 27.0481 25.8215 27.048 25.881C27.0478 25.938 27.0601 26.4204 27.1018 26.4475L27.1018 26.4475Z" fill="#26C6DA"/>
<path d="M27.1135 32.9953H20.95V34.155H27.1135V32.9953Z" fill="#26C6DA"/>
<path d="M20.9748 34.1518C20.9313 34.1801 20.5633 33.9454 20.5204 33.9158C20.4792 33.8875 20.1378 33.6335 20.1391 33.5765C20.1405 33.517 20.4936 33.2513 20.5364 33.2214C20.5774 33.1927 20.9311 32.9643 20.9715 32.9942C21.0136 33.0254 21.0285 33.5257 21.0287 33.5852C21.0289 33.6423 21.0165 34.1246 20.9748 34.1517L20.9748 34.1518Z" fill="#26C6DA"/>
<path d="M27.1018 34.1518C27.1454 34.1801 27.5133 33.9454 27.5563 33.9158C27.5974 33.8875 27.9388 33.6335 27.9375 33.5765C27.9362 33.517 27.5831 33.2513 27.5403 33.2214C27.4993 33.1927 27.1456 32.9643 27.1052 32.9942C27.063 33.0254 27.0481 33.5257 27.048 33.5852C27.0478 33.6423 27.0601 34.1246 27.1018 34.1517L27.1018 34.1518Z" fill="#26C6DA"/>
<path d="M27.3669 35.1808H21.2034V36.3405H27.3669V35.1808Z" fill="#26C6DA"/>
<path d="M21.2285 36.3355C21.1849 36.3638 20.817 36.1291 20.774 36.0996C20.7329 36.0712 20.3915 35.8172 20.3928 35.7602C20.3942 35.7007 20.7472 35.4351 20.79 35.4051C20.831 35.3765 21.1847 35.1481 21.2251 35.178C21.2673 35.2091 21.2822 35.7095 21.2823 35.769C21.2825 35.826 21.2702 36.3084 21.2285 36.3355L21.2285 36.3355Z" fill="#26C6DA"/>
<path d="M27.3557 36.3355C27.3993 36.3638 27.7672 36.1291 27.8102 36.0996C27.8514 36.0712 28.1927 35.8172 28.1914 35.7602C28.1901 35.7007 27.837 35.4351 27.7942 35.4051C27.7532 35.3765 27.3995 35.1481 27.3591 35.178C27.3169 35.2091 27.302 35.7095 27.3019 35.769C27.3017 35.826 27.314 36.3084 27.3557 36.3355L27.3557 36.3355Z" fill="#26C6DA"/>
<path d="M24.3271 37.5948H18.1636V38.7545H24.3271V37.5948Z" fill="#26C6DA"/>
<path d="M18.1882 38.7513C18.1447 38.7796 17.7767 38.5449 17.7338 38.5153C17.6926 38.487 17.3512 38.233 17.3525 38.176C17.3539 38.1165 17.707 37.8509 17.7497 37.8209C17.7907 37.7922 18.1444 37.5639 18.1848 37.5937C18.227 37.6249 18.2419 38.1253 18.2421 38.1848C18.2422 38.2418 18.2299 38.7241 18.1882 38.7513L18.1882 38.7513Z" fill="#26C6DA"/>
<path d="M24.316 38.7513C24.3595 38.7796 24.7274 38.5449 24.7704 38.5153C24.8116 38.487 25.1529 38.233 25.1516 38.176C25.1503 38.1165 24.7972 37.8509 24.7544 37.8209C24.7134 37.7922 24.3597 37.5639 24.3193 37.5937C24.2771 37.6249 24.2623 38.1253 24.2621 38.1848C24.2619 38.2418 24.2742 38.7241 24.316 38.7513L24.316 38.7513Z" fill="#26C6DA"/>
<path d="M24.3271 40.4711H18.1636V41.6308H24.3271V40.4711Z" fill="#26C6DA"/>
<path d="M18.1882 41.6258C18.1447 41.6541 17.7767 41.4194 17.7338 41.3898C17.6926 41.3615 17.3512 41.1075 17.3525 41.0505C17.3539 40.991 17.707 40.7253 17.7497 40.6954C17.7907 40.6667 18.1444 40.4383 18.1848 40.4682C18.227 40.4994 18.2419 40.9997 18.2421 41.0592C18.2422 41.1163 18.2299 41.5986 18.1882 41.6257L18.1882 41.6258Z" fill="#26C6DA"/>
<path d="M24.316 41.6258C24.3595 41.6541 24.7274 41.4194 24.7704 41.3898C24.8116 41.3615 25.1529 41.1075 25.1516 41.0505C25.1503 40.991 24.7972 40.7253 24.7544 40.6954C24.7134 40.6667 24.3597 40.4383 24.3193 40.4682C24.2771 40.4994 24.2623 40.9997 24.2621 41.0592C24.2619 41.1163 24.2742 41.5986 24.316 41.6257L24.316 41.6258Z" fill="#26C6DA"/>
<path d="M59.0721 25.291H29.5488V26.4507H59.0721V25.291Z" fill="#CCCCCC"/>
<path d="M29.5735 26.4475C29.5299 26.4758 29.162 26.2412 29.119 26.2116C29.0778 26.1833 28.7365 25.9293 28.7378 25.8723C28.7391 25.8128 29.0922 25.5471 29.135 25.5172C29.176 25.4885 29.5297 25.2601 29.5701 25.29C29.6123 25.3212 29.6272 25.8215 29.6273 25.881C29.6275 25.938 29.6152 26.4204 29.5735 26.4475L29.5735 26.4475Z" fill="#CCCCCC"/>
<path d="M59.0076 26.4475C59.0511 26.4758 59.4191 26.2412 59.462 26.2116C59.5032 26.1833 59.8446 25.9293 59.8433 25.8723C59.8419 25.8128 59.4888 25.5471 59.4461 25.5172C59.4051 25.4885 59.0514 25.2601 59.011 25.29C58.9688 25.3212 58.9539 25.8215 58.9537 25.881C58.9536 25.938 58.9659 26.4204 59.0076 26.4475L59.0076 26.4475Z" fill="#CCCCCC"/>
<path d="M59.0185 27.3614H21.1008V28.5211H59.0185V27.3614Z" fill="#CCCCCC"/>
<path d="M21.1334 28.5161C21.0775 28.5444 20.6055 28.3097 20.5504 28.2802C20.4975 28.2518 20.0595 27.9978 20.0612 27.9408C20.063 27.8814 20.516 27.6157 20.5709 27.5858C20.6235 27.5571 21.0773 27.3287 21.1291 27.3586C21.1832 27.3897 21.2023 27.8901 21.2025 27.9496C21.2027 28.0066 21.1869 28.489 21.1334 28.5161L21.1334 28.5161Z" fill="#CCCCCC"/>
<path d="M58.8978 28.5161C58.9537 28.5444 59.4258 28.3097 59.4809 28.2802C59.5337 28.2518 59.9717 27.9978 59.97 27.9408C59.9683 27.8814 59.5153 27.6157 59.4604 27.5858C59.4078 27.5571 58.954 27.3287 58.9021 27.3586C58.848 27.3897 58.8289 27.8901 58.8287 27.9496C58.8285 28.0066 58.8443 28.489 58.8978 28.5161L58.8978 28.5161Z" fill="#CCCCCC"/>
<path d="M59.0185 29.3167H21.1008V30.4764H59.0185V29.3167Z" fill="#CCCCCC"/>
<path d="M21.1334 30.4714C21.0775 30.4997 20.6055 30.265 20.5504 30.2355C20.4975 30.2071 20.0595 29.9531 20.0612 29.8961C20.063 29.8366 20.516 29.571 20.5709 29.541C20.6235 29.5124 21.0773 29.284 21.1291 29.3139C21.1832 29.345 21.2023 29.8454 21.2025 29.9049C21.2027 29.9619 21.1869 30.4443 21.1334 30.4714L21.1334 30.4714Z" fill="#CCCCCC"/>
<path d="M58.8978 30.4714C58.9537 30.4997 59.4258 30.265 59.4809 30.2355C59.5337 30.2071 59.9717 29.9531 59.97 29.8961C59.9683 29.8366 59.5153 29.571 59.4604 29.541C59.4078 29.5124 58.954 29.284 58.9021 29.3139C58.848 29.345 58.8289 29.8454 58.8287 29.9049C58.8285 29.9619 58.8443 30.4443 58.8978 30.4714L58.8978 30.4714Z" fill="#CCCCCC"/>
<path d="M54.5676 31.0984H20.9819V32.2581H54.5676V31.0984Z" fill="#CCCCCC"/>
<path d="M21.011 32.2531C20.9615 32.2815 20.5434 32.0468 20.4946 32.0172C20.4478 31.9889 20.0599 31.7349 20.0613 31.6779C20.0629 31.6184 20.4641 31.3527 20.5128 31.3228C20.5593 31.2941 20.9613 31.0657 21.0072 31.0956C21.0551 31.1268 21.0721 31.6271 21.0722 31.6866C21.0724 31.7436 21.0584 32.226 21.011 32.2531L21.011 32.2531Z" fill="#CCCCCC"/>
<path d="M54.4597 32.2531C54.5092 32.2815 54.9273 32.0468 54.9761 32.0172C55.0229 31.9889 55.4109 31.7349 55.4094 31.6779C55.4078 31.6184 55.0066 31.3527 54.9579 31.3228C54.9114 31.2941 54.5094 31.0657 54.4635 31.0956C54.4156 31.1268 54.3987 31.6271 54.3985 31.6866C54.3983 31.7436 54.4123 32.226 54.4597 32.2531L54.4597 32.2531Z" fill="#CCCCCC"/>
<path d="M35.8545 20.9217H29.6909V22.0814H35.8545V20.9217Z" fill="#FF7043"/>
<path d="M29.7153 22.0782C29.6718 22.1066 29.3038 21.8719 29.2609 21.8423C29.2197 21.814 28.8783 21.56 28.8796 21.503C28.881 21.4435 29.2341 21.1778 29.2768 21.1479C29.3178 21.1192 29.6715 20.8908 29.7119 20.9207C29.7541 20.9519 29.769 21.4522 29.7692 21.5117C29.7693 21.5687 29.757 22.0511 29.7153 22.0782L29.7153 22.0782Z" fill="#FF7043"/>
<path d="M35.8428 22.0782C35.8863 22.1066 36.2543 21.8719 36.2972 21.8423C36.3384 21.814 36.6798 21.56 36.6785 21.503C36.6771 21.4435 36.324 21.1778 36.2813 21.1479C36.2403 21.1192 35.8866 20.8908 35.8462 20.9207C35.804 20.9519 35.7891 21.4522 35.7889 21.5117C35.7888 21.5687 35.8011 22.0511 35.8428 22.0782L35.8428 22.0782Z" fill="#FF7043"/>
<path d="M51.2446 20.9217H45.0811V22.0814H51.2446V20.9217Z" fill="#FF7043"/>
<path d="M45.1059 22.0782C45.0624 22.1066 44.6944 21.8719 44.6515 21.8423C44.6103 21.814 44.2689 21.56 44.2702 21.503C44.2716 21.4435 44.6247 21.1778 44.6675 21.1479C44.7085 21.1192 45.0622 20.8908 45.1026 20.9207C45.1447 20.9519 45.1596 21.4522 45.1598 21.5117C45.16 21.5687 45.1476 22.0511 45.1059 22.0782L45.1059 22.0782Z" fill="#FF7043"/>
<path d="M51.2322 22.0782C51.2758 22.1066 51.6437 21.8719 51.6867 21.8423C51.7278 21.814 52.0692 21.56 52.0679 21.503C52.0665 21.4435 51.7134 21.1778 51.6707 21.1479C51.6297 21.1192 51.276 20.8908 51.2356 20.9207C51.1934 20.9519 51.1785 21.4522 51.1783 21.5117C51.1782 21.5687 51.1905 22.0511 51.2322 22.0782L51.2322 22.0782Z" fill="#FF7043"/>
<path d="M59.478 20.9217H53.3145V22.0814H59.478V20.9217Z" fill="#26C6DA"/>
<path d="M53.3393 22.0782C53.2958 22.1066 52.9278 21.8719 52.8849 21.8423C52.8437 21.814 52.5023 21.56 52.5036 21.503C52.505 21.4435 52.8581 21.1778 52.9009 21.1479C52.9419 21.1192 53.2956 20.8908 53.336 20.9207C53.3781 20.9519 53.393 21.4522 53.3932 21.5117C53.3934 21.5687 53.381 22.0511 53.3393 22.0782L53.3393 22.0782Z" fill="#26C6DA"/>
<path d="M59.4656 22.0782C59.5091 22.1066 59.8771 21.8719 59.92 21.8423C59.9612 21.814 60.3026 21.56 60.3013 21.503C60.2999 21.4435 59.9468 21.1778 59.9041 21.1479C59.8631 21.1192 59.5094 20.8908 59.469 20.9207C59.4268 20.9519 59.4119 21.4522 59.4117 21.5117C59.4116 21.5687 59.4239 22.0511 59.4656 22.0782L59.4656 22.0782Z" fill="#26C6DA"/>
<path d="M43.1447 20.9217H37.9824V22.0814H43.1447V20.9217Z" fill="#CCCCCC"/>
<path d="M38.0034 22.0782C37.9669 22.1066 37.6587 21.8719 37.6228 21.8423C37.5883 21.814 37.3024 21.56 37.3035 21.503C37.3046 21.4435 37.6003 21.1778 37.6362 21.1479C37.6705 21.1192 37.9667 20.8908 38.0006 20.9207C38.0359 20.9519 38.0484 21.4522 38.0485 21.5117C38.0486 21.5687 38.0383 22.0511 38.0034 22.0782L38.0034 22.0782Z" fill="#CCCCCC"/>
<path d="M43.1336 22.0782C43.17 22.1066 43.4782 21.8719 43.5142 21.8423C43.5487 21.814 43.8346 21.56 43.8335 21.503C43.8323 21.4435 43.5366 21.1778 43.5008 21.1479C43.4665 21.1192 43.1702 20.8908 43.1364 20.9207C43.1011 20.9519 43.0886 21.4522 43.0885 21.5117C43.0883 21.5687 43.0986 22.0511 43.1336 22.0782L43.1336 22.0782Z" fill="#CCCCCC"/>
<path d="M36.9626 37.5948H26.8406V38.7545H36.9626V37.5948Z" fill="#FF7043"/>
<path d="M26.865 38.7513C26.8214 38.7796 26.4535 38.5449 26.4105 38.5153C26.3694 38.487 26.028 38.233 26.0293 38.176C26.0306 38.1165 26.3837 37.8509 26.4265 37.8209C26.4675 37.7922 26.8212 37.5639 26.8616 37.5937C26.9038 37.6249 26.9187 38.1253 26.9188 38.1848C26.919 38.2418 26.9067 38.7241 26.865 38.7513L26.865 38.7513Z" fill="#FF7043"/>
<path d="M36.9178 38.7513C36.9613 38.7796 37.3292 38.5449 37.3722 38.5153C37.4134 38.487 37.7548 38.233 37.7534 38.176C37.7521 38.1165 37.399 37.8509 37.3562 37.8209C37.3152 37.7922 36.9615 37.5639 36.9211 37.5937C36.8789 37.6249 36.8641 38.1253 36.8639 38.1848C36.8637 38.2418 36.876 38.7241 36.9178 38.7513L36.9178 38.7513Z" fill="#FF7043"/>
<path d="M37.0578 40.356H26.9358V41.5157H37.0578V40.356Z" fill="#FF7043"/>
<path d="M26.9602 41.5106C26.9166 41.539 26.5487 41.3043 26.5057 41.2747C26.4646 41.2464 26.1232 40.9924 26.1245 40.9354C26.1259 40.8759 26.4789 40.6102 26.5217 40.5803C26.5627 40.5516 26.9164 40.3232 26.9568 40.3531C26.999 40.3843 27.0139 40.8846 27.014 40.9441C27.0142 41.0011 27.0019 41.4835 26.9602 41.5106L26.9602 41.5106Z" fill="#FF7043"/>
<path d="M37.0144 41.5106C37.058 41.539 37.4259 41.3043 37.4689 41.2747C37.51 41.2464 37.8514 40.9924 37.8501 40.9354C37.8488 40.8759 37.4957 40.6102 37.4529 40.5803C37.4119 40.5516 37.0582 40.3232 37.0178 40.3531C36.9756 40.3843 36.9607 40.8846 36.9606 40.9441C36.9604 41.0011 36.9727 41.4835 37.0144 41.5106L37.0144 41.5106Z" fill="#FF7043"/>
<path d="M27.3669 43.0569H21.2034V44.2166H27.3669V43.0569Z" fill="#26C6DA"/>
<path d="M21.2285 44.2133C21.1849 44.2417 20.817 44.007 20.774 43.9774C20.7329 43.9491 20.3915 43.6951 20.3928 43.6381C20.3942 43.5786 20.7472 43.3129 20.79 43.283C20.831 43.2543 21.1847 43.0259 21.2251 43.0558C21.2673 43.087 21.2822 43.5873 21.2823 43.6468C21.2825 43.7038 21.2702 44.1862 21.2285 44.2133L21.2285 44.2133Z" fill="#26C6DA"/>
<path d="M27.3557 44.2133C27.3993 44.2417 27.7672 44.007 27.8102 43.9774C27.8514 43.9491 28.1927 43.6951 28.1914 43.6381C28.1901 43.5786 27.837 43.3129 27.7942 43.283C27.7532 43.2543 27.3995 43.0259 27.3591 43.0558C27.3169 43.087 27.302 43.5873 27.3019 43.6468C27.3017 43.7038 27.314 44.1862 27.3557 44.2133L27.3557 44.2133Z" fill="#26C6DA"/>
<path d="M46.1436 42.9417H29.9756V44.1014H46.1436V42.9417Z" fill="#FF7043"/>
<path d="M30 44.0982C29.9564 44.1265 29.5885 43.8919 29.5455 43.8623C29.5044 43.8339 29.163 43.58 29.1643 43.523C29.1657 43.4635 29.5187 43.1978 29.5615 43.1679C29.6025 43.1392 29.9562 42.9108 29.9966 42.9407C30.0388 42.9718 30.0537 43.4722 30.0538 43.5317C30.054 43.5887 30.0417 44.0711 30 44.0982L30 44.0982Z" fill="#FF7043"/>
<path d="M46.0105 44.0982C46.0541 44.1265 46.422 43.8919 46.465 43.8623C46.5061 43.8339 46.8475 43.58 46.8462 43.523C46.8448 43.4635 46.4918 43.1978 46.449 43.1679C46.408 43.1392 46.0543 42.9108 46.0139 42.9407C45.9717 42.9718 45.9568 43.4722 45.9567 43.5317C45.9565 43.5887 45.9688 44.0711 46.0105 44.0982L46.0105 44.0982Z" fill="#FF7043"/>
<path d="M27.3669 45.2424H21.2034V46.4021H27.3669V45.2424Z" fill="#26C6DA"/>
<path d="M21.2285 46.3971C21.1849 46.4254 20.817 46.1907 20.774 46.1611C20.7329 46.1328 20.3915 45.8788 20.3928 45.8218C20.3942 45.7623 20.7472 45.4966 20.79 45.4667C20.831 45.438 21.1847 45.2096 21.2251 45.2395C21.2673 45.2707 21.2822 45.771 21.2823 45.8305C21.2825 45.8876 21.2702 46.3699 21.2285 46.397L21.2285 46.3971Z" fill="#26C6DA"/>
<path d="M27.3557 46.3971C27.3993 46.4254 27.7672 46.1907 27.8102 46.1611C27.8514 46.1328 28.1927 45.8788 28.1914 45.8218C28.1901 45.7623 27.837 45.4966 27.7942 45.4667C27.7532 45.438 27.3995 45.2096 27.3591 45.2395C27.3169 45.2707 27.302 45.771 27.3019 45.8305C27.3017 45.8876 27.314 46.3699 27.3557 46.397L27.3557 46.3971Z" fill="#26C6DA"/>
<path d="M36.3857 9.41852H13.2236V10.0584H36.3857V9.41852Z" fill="#FF8F00"/>
<path d="M9.91602 11.5506V11.9756L65.005 11.9756V11.5506L9.91602 11.5506Z" fill="#2196F3"/>
<path d="M55.5173 37.5381H39.3494V38.6978H55.5173V37.5381Z" fill="#CCCCCC"/>
<path d="M39.3737 38.6928C39.3302 38.7211 38.9623 38.4864 38.9193 38.4569C38.8781 38.4285 38.5367 38.1745 38.5381 38.1175C38.5394 38.058 38.8925 37.7924 38.9353 37.7624C38.9763 37.7338 39.33 37.5054 39.3704 37.5353C39.4126 37.5664 39.4274 38.0668 39.4276 38.1263C39.4278 38.1833 39.4155 38.6657 39.3737 38.6928L39.3737 38.6928Z" fill="#CCCCCC"/>
<path d="M55.3838 38.6928C55.4274 38.7211 55.7953 38.4864 55.8383 38.4569C55.8794 38.4285 56.2208 38.1745 56.2195 38.1175C56.2181 38.058 55.8651 37.7924 55.8223 37.7624C55.7813 37.7338 55.4276 37.5054 55.3872 37.5353C55.345 37.5664 55.3301 38.0668 55.33 38.1263C55.3298 38.1833 55.3421 38.6657 55.3838 38.6928L55.3838 38.6928Z" fill="#CCCCCC"/>
<path d="M55.7705 40.1824H39.6025V41.3421H55.7705V40.1824Z" fill="#CCCCCC"/>
<path d="M39.6272 41.337C39.5836 41.3653 39.2157 41.1307 39.1727 41.1011C39.1316 41.0727 38.7902 40.8188 38.7915 40.7618C38.7929 40.7023 39.1459 40.4366 39.1887 40.4067C39.2297 40.378 39.5834 40.1496 39.6238 40.1795C39.666 40.2106 39.6809 40.711 39.681 40.7705C39.6812 40.8275 39.6689 41.3099 39.6272 41.337L39.6272 41.337Z" fill="#CCCCCC"/>
<path d="M55.6368 41.337C55.6803 41.3653 56.0482 41.1307 56.0912 41.1011C56.1324 41.0727 56.4737 40.8188 56.4724 40.7618C56.4711 40.7023 56.118 40.4366 56.0752 40.4067C56.0342 40.378 55.6805 40.1496 55.6401 40.1795C55.5979 40.2106 55.5831 40.711 55.5829 40.7705C55.5827 40.8275 55.595 41.3099 55.6368 41.337L55.6368 41.337Z" fill="#CCCCCC"/>
<path d="M54.7277 43.0569H48.5642V44.2166H54.7277V43.0569Z" fill="#CCCCCC"/>
<path d="M48.5886 44.2133C48.545 44.2417 48.1771 44.007 48.1342 43.9774C48.093 43.9491 47.7516 43.6951 47.7529 43.6381C47.7543 43.5786 48.1074 43.3129 48.1501 43.283C48.1911 43.2543 48.5448 43.0259 48.5852 43.0558C48.6274 43.087 48.6423 43.5873 48.6425 43.6468C48.6426 43.7038 48.6303 44.1862 48.5886 44.2133L48.5886 44.2133Z" fill="#CCCCCC"/>
<path d="M54.7159 44.2133C54.7594 44.2417 55.1273 44.007 55.1703 43.9774C55.2115 43.9491 55.5529 43.6951 55.5515 43.6381C55.5502 43.5786 55.1971 43.3129 55.1543 43.283C55.1133 43.2543 54.7596 43.0259 54.7192 43.0558C54.677 43.087 54.6622 43.5873 54.662 43.6468C54.6618 43.7038 54.6741 44.1862 54.7159 44.2133L54.7159 44.2133Z" fill="#CCCCCC"/>
<path d="M58.8415 45.2991H30.1597V46.4588H58.8415V45.2991Z" fill="#CCCCCC"/>
<path d="M30.1835 46.4555C30.1412 46.4838 29.7838 46.2492 29.742 46.2196C29.702 46.1912 29.3704 45.9373 29.3717 45.8803C29.373 45.8208 29.716 45.5551 29.7575 45.5252C29.7974 45.4965 30.141 45.2681 30.1802 45.298C30.2212 45.3291 30.2357 45.8295 30.2358 45.889C30.236 45.946 30.224 46.4284 30.1835 46.4555L30.1835 46.4555Z" fill="#CCCCCC"/>
<path d="M58.7782 46.4555C58.8205 46.4838 59.1779 46.2492 59.2196 46.2196C59.2596 46.1912 59.5913 45.9373 59.59 45.8803C59.5887 45.8208 59.2457 45.5551 59.2041 45.5252C59.1643 45.4965 58.8207 45.2681 58.7814 45.298C58.7405 45.3291 58.726 45.8295 58.7258 45.889C58.7257 45.946 58.7376 46.4284 58.7782 46.4555L58.7782 46.4555Z" fill="#CCCCCC"/>
<path d="M27.6408 47.7587H21.4773V48.9184H27.6408V47.7587Z" fill="#26C6DA"/>
<path d="M21.5019 48.9134C21.4584 48.9417 21.0904 48.707 21.0475 48.6774C21.0063 48.6491 20.6649 48.3951 20.6662 48.3381C20.6676 48.2786 21.0207 48.0129 21.0635 47.983C21.1045 47.9543 21.4582 47.7259 21.4986 47.7558C21.5407 47.787 21.5556 48.2873 21.5558 48.3468C21.556 48.4039 21.5436 48.8862 21.5019 48.9133L21.5019 48.9134Z" fill="#26C6DA"/>
<path d="M27.6294 48.9134C27.673 48.9417 28.0409 48.707 28.0839 48.6774C28.125 48.6491 28.4664 48.3951 28.4651 48.3381C28.4637 48.2786 28.1107 48.0129 28.0679 47.983C28.0269 47.9543 27.6732 47.7259 27.6328 47.7558C27.5906 47.787 27.5757 48.2873 27.5756 48.3468C27.5754 48.4039 27.5877 48.8862 27.6294 48.9133L27.6294 48.9134Z" fill="#26C6DA"/>
<path d="M27.6408 50.6332H21.4773V51.7929H27.6408V50.6332Z" fill="#26C6DA"/>
<path d="M21.5019 51.7897C21.4584 51.818 21.0904 51.5833 21.0475 51.5537C21.0063 51.5254 20.6649 51.2714 20.6662 51.2144C20.6676 51.1549 21.0207 50.8892 21.0635 50.8593C21.1045 50.8306 21.4582 50.6023 21.4986 50.6321C21.5407 50.6633 21.5556 51.1636 21.5558 51.2231C21.556 51.2802 21.5436 51.7625 21.5019 51.7897L21.5019 51.7897Z" fill="#26C6DA"/>
<path d="M27.6294 51.7897C27.673 51.818 28.0409 51.5833 28.0839 51.5537C28.125 51.5254 28.4664 51.2714 28.4651 51.2144C28.4637 51.1549 28.1107 50.8892 28.0679 50.8593C28.0269 50.8306 27.6732 50.6023 27.6328 50.6321C27.5906 50.6633 27.5757 51.1636 27.5756 51.2231C27.5754 51.2802 27.5877 51.7625 27.6294 51.7897L27.6294 51.7897Z" fill="#26C6DA"/>
<path d="M40.2768 47.7587H30.1548V48.9184H40.2768V47.7587Z" fill="#FF7043"/>
<path d="M30.1792 48.9134C30.1356 48.9417 29.7677 48.707 29.7247 48.6774C29.6836 48.6491 29.3422 48.3951 29.3435 48.3381C29.3449 48.2786 29.6979 48.0129 29.7407 47.983C29.7817 47.9543 30.1354 47.7259 30.1758 47.7558C30.218 47.787 30.2329 48.2873 30.233 48.3468C30.2332 48.4039 30.2209 48.8862 30.1792 48.9133L30.1792 48.9134Z" fill="#FF7043"/>
<path d="M40.2332 48.9134C40.2767 48.9417 40.6447 48.707 40.6876 48.6774C40.7288 48.6491 41.0702 48.3951 41.0689 48.3381C41.0675 48.2786 40.7144 48.0129 40.6717 47.983C40.6306 47.9543 40.2769 47.7259 40.2365 47.7558C40.1944 47.787 40.1795 48.2873 40.1793 48.3468C40.1792 48.4039 40.1915 48.8862 40.2332 48.9133L40.2332 48.9134Z" fill="#FF7043"/>
<path d="M40.3717 50.5181H30.2498V51.6778H40.3717V50.5181Z" fill="#FF7043"/>
<path d="M30.2744 51.6745C30.2308 51.7028 29.8629 51.4682 29.8199 51.4386C29.7788 51.4102 29.4374 51.1562 29.4387 51.0992C29.4401 51.0398 29.7931 50.7741 29.8359 50.7442C29.8769 50.7155 30.2306 50.4871 30.271 50.517C30.3132 50.5481 30.3281 51.0485 30.3282 51.108C30.3284 51.165 30.3161 51.6474 30.2744 51.6745L30.2744 51.6745Z" fill="#FF7043"/>
<path d="M40.3274 51.6745C40.371 51.7028 40.7389 51.4682 40.7819 51.4386C40.823 51.4102 41.1644 51.1562 41.1631 51.0992C41.1617 51.0398 40.8087 50.7741 40.7659 50.7442C40.7249 50.7155 40.3712 50.4871 40.3308 50.517C40.2886 50.5481 40.2737 51.0485 40.2736 51.108C40.2734 51.165 40.2857 51.6474 40.3274 51.6745L40.3274 51.6745Z" fill="#FF7043"/>
<path d="M58.8311 47.702H42.6631V48.8617H58.8311V47.702Z" fill="#CCCCCC"/>
<path d="M42.6884 48.8567C42.6449 48.8851 42.277 48.6504 42.234 48.6208C42.1928 48.5925 41.8514 48.3385 41.8528 48.2815C41.8541 48.222 42.2072 47.9563 42.25 47.9264C42.291 47.8977 42.6447 47.6693 42.6851 47.6992C42.7273 47.7304 42.7421 48.2307 42.7423 48.2902C42.7425 48.3472 42.7302 48.8296 42.6884 48.8567L42.6884 48.8567Z" fill="#CCCCCC"/>
<path d="M58.6975 48.8567C58.7411 48.8851 59.109 48.6504 59.152 48.6208C59.1931 48.5925 59.5345 48.3385 59.5332 48.2815C59.5319 48.222 59.1788 47.9563 59.136 47.9264C59.095 47.8977 58.7413 47.6693 58.7009 47.6992C58.6587 47.7304 58.6438 48.2307 58.6437 48.2902C58.6435 48.3472 58.6558 48.8296 58.6975 48.8567L58.6975 48.8567Z" fill="#CCCCCC"/>
<path d="M59.0847 50.3463H42.9167V51.506H59.0847V50.3463Z" fill="#CCCCCC"/>
<path d="M42.9419 51.501C42.8983 51.5293 42.5304 51.2946 42.4874 51.265C42.4463 51.2367 42.1049 50.9827 42.1062 50.9257C42.1075 50.8662 42.4606 50.6005 42.5034 50.5706C42.5444 50.5419 42.8981 50.3136 42.9385 50.3434C42.9807 50.3746 42.9956 50.8749 42.9957 50.9344C42.9959 50.9915 42.9836 51.4738 42.9419 51.501L42.9419 51.501Z" fill="#CCCCCC"/>
<path d="M58.951 51.501C58.9945 51.5293 59.3624 51.2946 59.4054 51.265C59.4466 51.2367 59.788 50.9827 59.7866 50.9257C59.7853 50.8662 59.4322 50.6005 59.3894 50.5706C59.3484 50.5419 58.9947 50.3136 58.9543 50.3434C58.9121 50.3746 58.8973 50.8749 58.8971 50.9344C58.8969 50.9915 58.9092 51.4738 58.951 51.501L58.951 51.501Z" fill="#CCCCCC"/>
<path d="M27.6408 52.8005H21.4773V53.9602H27.6408V52.8005Z" fill="#26C6DA"/>
<path d="M21.5019 53.9551C21.4584 53.9834 21.0904 53.7487 21.0475 53.7192C21.0063 53.6908 20.6649 53.4368 20.6662 53.3798C20.6676 53.3203 21.0207 53.0547 21.0635 53.0247C21.1045 52.9961 21.4582 52.7677 21.4986 52.7976C21.5407 52.8287 21.5556 53.3291 21.5558 53.3886C21.556 53.4456 21.5436 53.928 21.5019 53.9551L21.5019 53.9551Z" fill="#26C6DA"/>
<path d="M27.6294 53.9551C27.673 53.9834 28.0409 53.7487 28.0839 53.7192C28.125 53.6908 28.4664 53.4368 28.4651 53.3798C28.4637 53.3203 28.1107 53.0547 28.0679 53.0247C28.0269 52.9961 27.6732 52.7677 27.6328 52.7976C27.5906 52.8287 27.5757 53.3291 27.5756 53.3886C27.5754 53.4456 27.5877 53.928 27.6294 53.9551L27.6294 53.9551Z" fill="#26C6DA"/>
<path d="M27.6408 55.675H21.4773V56.8347H27.6408V55.675Z" fill="#26C6DA"/>
<path d="M21.5019 56.8296C21.4584 56.8579 21.0904 56.6232 21.0475 56.5937C21.0063 56.5653 20.6649 56.3113 20.6662 56.2543C20.6676 56.1949 21.0207 55.9292 21.0635 55.8993C21.1045 55.8706 21.4582 55.6422 21.4986 55.6721C21.5407 55.7032 21.5556 56.2036 21.5558 56.2631C21.556 56.3201 21.5436 56.8025 21.5019 56.8296L21.5019 56.8296Z" fill="#26C6DA"/>
<path d="M27.6294 56.8296C27.673 56.8579 28.0409 56.6232 28.0839 56.5937C28.125 56.5653 28.4664 56.3113 28.4651 56.2543C28.4637 56.1949 28.1107 55.9292 28.0679 55.8993C28.0269 55.8706 27.6732 55.6422 27.6328 55.6721C27.5906 55.7032 27.5757 56.2036 27.5756 56.2631C27.5754 56.3201 27.5877 56.8025 27.6294 56.8296L27.6294 56.8296Z" fill="#26C6DA"/>
<path d="M40.2768 52.8005H30.1548V53.9602H40.2768V52.8005Z" fill="#FF7043"/>
<path d="M30.1792 53.9551C30.1356 53.9834 29.7677 53.7487 29.7247 53.7192C29.6836 53.6908 29.3422 53.4368 29.3435 53.3798C29.3449 53.3203 29.6979 53.0547 29.7407 53.0247C29.7817 52.9961 30.1354 52.7677 30.1758 52.7976C30.218 52.8287 30.2329 53.3291 30.233 53.3886C30.2332 53.4456 30.2209 53.928 30.1792 53.9551L30.1792 53.9551Z" fill="#FF7043"/>
<path d="M40.2332 53.9551C40.2767 53.9834 40.6447 53.7487 40.6876 53.7192C40.7288 53.6908 41.0702 53.4368 41.0689 53.3798C41.0675 53.3203 40.7144 53.0547 40.6717 53.0247C40.6306 52.9961 40.2769 52.7677 40.2365 52.7976C40.1944 52.8287 40.1795 53.3291 40.1793 53.3886C40.1792 53.4456 40.1915 53.928 40.2332 53.9551L40.2332 53.9551Z" fill="#FF7043"/>
<path d="M40.3717 55.5598H30.2498V56.7195H40.3717V55.5598Z" fill="#FF7043"/>
<path d="M30.2744 56.7145C30.2308 56.7428 29.8629 56.5081 29.8199 56.4786C29.7788 56.4502 29.4374 56.1962 29.4387 56.1392C29.4401 56.0797 29.7931 55.8141 29.8359 55.7841C29.8769 55.7555 30.2306 55.5271 30.271 55.557C30.3132 55.5881 30.3281 56.0885 30.3282 56.148C30.3284 56.205 30.3161 56.6874 30.2744 56.7145L30.2744 56.7145Z" fill="#FF7043"/>
<path d="M40.3274 56.7145C40.371 56.7428 40.7389 56.5081 40.7819 56.4786C40.823 56.4502 41.1644 56.1962 41.1631 56.1392C41.1617 56.0797 40.8087 55.8141 40.7659 55.7841C40.7249 55.7555 40.3712 55.5271 40.3308 55.557C40.2886 55.5881 40.2737 56.0885 40.2736 56.148C40.2734 56.205 40.2857 56.6874 40.3274 56.7145L40.3274 56.7145Z" fill="#FF7043"/>
<path d="M58.8311 52.742H42.6631V53.9017H58.8311V52.742Z" fill="#CCCCCC"/>
<path d="M42.6884 53.8985C42.6449 53.9268 42.277 53.6921 42.234 53.6625C42.1928 53.6342 41.8514 53.3802 41.8528 53.3232C41.8541 53.2637 42.2072 52.9981 42.25 52.9681C42.291 52.9395 42.6447 52.7111 42.6851 52.7409C42.7273 52.7721 42.7421 53.2725 42.7423 53.332C42.7425 53.389 42.7302 53.8713 42.6884 53.8985L42.6884 53.8985Z" fill="#CCCCCC"/>
<path d="M58.6975 53.8985C58.7411 53.9268 59.109 53.6921 59.152 53.6625C59.1931 53.6342 59.5345 53.3802 59.5332 53.3232C59.5319 53.2637 59.1788 52.9981 59.136 52.9681C59.095 52.9395 58.7413 52.7111 58.7009 52.7409C58.6587 52.7721 58.6438 53.2725 58.6437 53.332C58.6435 53.389 58.6558 53.8713 58.6975 53.8985L58.6975 53.8985Z" fill="#CCCCCC"/>
<path d="M59.0847 55.388H42.9167V56.5477H59.0847V55.388Z" fill="#CCCCCC"/>
<path d="M42.9419 56.5427C42.8983 56.571 42.5304 56.3363 42.4874 56.3067C42.4463 56.2784 42.1049 56.0244 42.1062 55.9674C42.1075 55.9079 42.4606 55.6423 42.5034 55.6123C42.5444 55.5836 42.8981 55.3553 42.9385 55.3851C42.9807 55.4163 42.9956 55.9167 42.9957 55.9762C42.9959 56.0332 42.9836 56.5155 42.9419 56.5427L42.9419 56.5427Z" fill="#CCCCCC"/>
<path d="M58.951 56.5427C58.9945 56.571 59.3624 56.3363 59.4054 56.3067C59.4466 56.2784 59.788 56.0244 59.7866 55.9674C59.7853 55.9079 59.4322 55.6423 59.3894 55.6123C59.3484 55.5836 58.9947 55.3553 58.9543 55.3851C58.9121 55.4163 58.8973 55.9167 58.8971 55.9762C58.8969 56.0332 58.9092 56.5155 58.951 56.5427L58.951 56.5427Z" fill="#CCCCCC"/>
<path d="M24.3271 58.8984H18.1636V60.0581H24.3271V58.8984Z" fill="#26C6DA"/>
<path d="M18.1882 60.0531C18.1447 60.0814 17.7767 59.8467 17.7338 59.8172C17.6926 59.7888 17.3512 59.5348 17.3525 59.4778C17.3539 59.4183 17.707 59.1527 17.7497 59.1227C17.7907 59.0941 18.1444 58.8657 18.1848 58.8955C18.227 58.9267 18.2419 59.4271 18.2421 59.4866C18.2422 59.5436 18.2299 60.026 18.1882 60.0531L18.1882 60.0531Z" fill="#26C6DA"/>
<path d="M24.316 60.0531C24.3595 60.0814 24.7274 59.8467 24.7704 59.8172C24.8116 59.7888 25.1529 59.5348 25.1516 59.4778C25.1503 59.4183 24.7972 59.1527 24.7544 59.1227C24.7134 59.0941 24.3597 58.8657 24.3193 58.8955C24.2771 58.9267 24.2623 59.4271 24.2621 59.4866C24.2619 59.5436 24.2742 60.026 24.316 60.0531L24.316 60.0531Z" fill="#26C6DA"/>
<path d="M24.3271 61.7729H18.1636V62.9326H24.3271V61.7729Z" fill="#26C6DA"/>
<path d="M18.1882 62.9276C18.1447 62.9559 17.7767 62.7212 17.7338 62.6916C17.6926 62.6633 17.3512 62.4093 17.3525 62.3523C17.3539 62.2928 17.707 62.0272 17.7497 61.9972C17.7907 61.9685 18.1444 61.7402 18.1848 61.77C18.227 61.8012 18.2419 62.3016 18.2421 62.3611C18.2422 62.4181 18.2299 62.9004 18.1882 62.9276L18.1882 62.9276Z" fill="#26C6DA"/>
<path d="M24.316 62.9276C24.3595 62.9559 24.7274 62.7212 24.7704 62.6916C24.8116 62.6633 25.1529 62.4093 25.1516 62.3523C25.1503 62.2928 24.7972 62.0272 24.7544 61.9972C24.7134 61.9685 24.3597 61.7402 24.3193 61.77C24.2771 61.8012 24.2623 62.3016 24.2621 62.3611C24.2619 62.4181 24.2742 62.9004 24.316 62.9276L24.316 62.9276Z" fill="#26C6DA"/>
<path d="M36.9626 58.8984H26.8406V60.0581H36.9626V58.8984Z" fill="#FF7043"/>
<path d="M26.865 60.0531C26.8214 60.0814 26.4535 59.8467 26.4105 59.8172C26.3694 59.7888 26.028 59.5348 26.0293 59.4778C26.0306 59.4183 26.3837 59.1527 26.4265 59.1227C26.4675 59.0941 26.8212 58.8657 26.8616 58.8955C26.9038 58.9267 26.9187 59.4271 26.9188 59.4866C26.919 59.5436 26.9067 60.026 26.865 60.0531L26.865 60.0531Z" fill="#FF7043"/>
<path d="M36.9178 60.0531C36.9613 60.0814 37.3292 59.8467 37.3722 59.8172C37.4134 59.7888 37.7548 59.5348 37.7534 59.4778C37.7521 59.4183 37.399 59.1527 37.3562 59.1227C37.3152 59.0941 36.9615 58.8657 36.9211 58.8955C36.8789 58.9267 36.8641 59.4271 36.8639 59.4866C36.8637 59.5436 36.876 60.026 36.9178 60.0531L36.9178 60.0531Z" fill="#FF7043"/>
<path d="M37.0578 61.6578H26.9358V62.8175H37.0578V61.6578Z" fill="#FF7043"/>
<path d="M26.9602 62.8125C26.9166 62.8408 26.5487 62.6061 26.5057 62.5765C26.4646 62.5482 26.1232 62.2942 26.1245 62.2372C26.1259 62.1777 26.4789 61.912 26.5217 61.8821C26.5627 61.8534 26.9164 61.6251 26.9568 61.6549C26.999 61.6861 27.0139 62.1864 27.014 62.2459C27.0142 62.303 27.0019 62.7853 26.9602 62.8124L26.9602 62.8125Z" fill="#FF7043"/>
<path d="M37.0144 62.8125C37.058 62.8408 37.4259 62.6061 37.4689 62.5765C37.51 62.5482 37.8514 62.2942 37.8501 62.2372C37.8488 62.1777 37.4957 61.912 37.4529 61.8821C37.4119 61.8534 37.0582 61.6251 37.0178 61.6549C36.9756 61.6861 36.9607 62.1864 36.9606 62.2459C36.9604 62.303 36.9727 62.7853 37.0144 62.8124L37.0144 62.8125Z" fill="#FF7043"/>
<path d="M55.5173 58.84H39.3494V59.9997H55.5173V58.84Z" fill="#CCCCCC"/>
<path d="M39.3737 59.9965C39.3302 60.0248 38.9623 59.7901 38.9193 59.7605C38.8781 59.7322 38.5367 59.4782 38.5381 59.4212C38.5394 59.3617 38.8925 59.0961 38.9353 59.0661C38.9763 59.0374 39.33 58.8091 39.3704 58.8389C39.4126 58.8701 39.4274 59.3705 39.4276 59.43C39.4278 59.487 39.4155 59.9693 39.3737 59.9965L39.3737 59.9965Z" fill="#CCCCCC"/>
<path d="M55.3838 59.9965C55.4274 60.0248 55.7953 59.7901 55.8383 59.7605C55.8794 59.7322 56.2208 59.4782 56.2195 59.4212C56.2181 59.3617 55.8651 59.0961 55.8223 59.0661C55.7813 59.0374 55.4276 58.8091 55.3872 58.8389C55.345 58.8701 55.3301 59.3705 55.33 59.43C55.3298 59.487 55.3421 59.9693 55.3838 59.9965L55.3838 59.9965Z" fill="#CCCCCC"/>
<path d="M55.7705 61.486H39.6025V62.6457H55.7705V61.486Z" fill="#CCCCCC"/>
<path d="M39.6272 62.6407C39.5836 62.669 39.2157 62.4343 39.1727 62.4048C39.1316 62.3764 38.7902 62.1224 38.7915 62.0654C38.7929 62.006 39.1459 61.7403 39.1887 61.7104C39.2297 61.6817 39.5834 61.4533 39.6238 61.4832C39.666 61.5143 39.6809 62.0147 39.681 62.0742C39.6812 62.1312 39.6689 62.6136 39.6272 62.6407L39.6272 62.6407Z" fill="#CCCCCC"/>
<path d="M55.6368 62.6407C55.6803 62.669 56.0482 62.4343 56.0912 62.4048C56.1324 62.3764 56.4737 62.1224 56.4724 62.0654C56.4711 62.006 56.118 61.7403 56.0752 61.7104C56.0342 61.6817 55.6805 61.4533 55.6401 61.4832C55.5979 61.5143 55.5831 62.0147 55.5829 62.0742C55.5827 62.1312 55.595 62.6136 55.6368 62.6407L55.6368 62.6407Z" fill="#CCCCCC"/>
<path d="M27.3669 64.3605H21.2034V65.5202H27.3669V64.3605Z" fill="#26C6DA"/>
<path d="M21.2285 65.5152C21.1849 65.5435 20.817 65.3088 20.774 65.2792C20.7329 65.2509 20.3915 64.9969 20.3928 64.9399C20.3942 64.8804 20.7472 64.6147 20.79 64.5848C20.831 64.5561 21.1847 64.3278 21.2251 64.3576C21.2673 64.3888 21.2822 64.8891 21.2823 64.9486C21.2825 65.0057 21.2702 65.488 21.2285 65.5151L21.2285 65.5152Z" fill="#26C6DA"/>
<path d="M27.3557 65.5152C27.3993 65.5435 27.7672 65.3088 27.8102 65.2792C27.8514 65.2509 28.1927 64.9969 28.1914 64.9399C28.1901 64.8804 27.837 64.6147 27.7942 64.5848C27.7532 64.5561 27.3995 64.3278 27.3591 64.3576C27.3169 64.3888 27.302 64.8891 27.3019 64.9486C27.3017 65.0057 27.314 65.488 27.3557 65.5151L27.3557 65.5152Z" fill="#26C6DA"/>
<path d="M46.1436 64.2454H29.9756V65.4051H46.1436V64.2454Z" fill="#FF7043"/>
<path d="M30 65.4C29.9564 65.4283 29.5885 65.1936 29.5455 65.1641C29.5044 65.1357 29.163 64.8817 29.1643 64.8247C29.1657 64.7653 29.5187 64.4996 29.5615 64.4697C29.6025 64.441 29.9562 64.2126 29.9966 64.2425C30.0388 64.2736 30.0537 64.774 30.0538 64.8335C30.054 64.8905 30.0417 65.3729 30 65.4L30 65.4Z" fill="#FF7043"/>
<path d="M46.0105 65.4C46.0541 65.4283 46.422 65.1936 46.465 65.1641C46.5061 65.1357 46.8475 64.8817 46.8462 64.8247C46.8448 64.7653 46.4918 64.4996 46.449 64.4697C46.408 64.441 46.0543 64.2126 46.0139 64.2425C45.9717 64.2736 45.9568 64.774 45.9567 64.8335C45.9565 64.8905 45.9688 65.3729 46.0105 65.4L46.0105 65.4Z" fill="#FF7043"/>
<path d="M27.3669 66.5442H21.2034V67.7039H27.3669V66.5442Z" fill="#26C6DA"/>
<path d="M21.2285 67.7007C21.1849 67.7291 20.817 67.4944 20.774 67.4648C20.7329 67.4365 20.3915 67.1825 20.3928 67.1255C20.3942 67.066 20.7472 66.8003 20.79 66.7704C20.831 66.7417 21.1847 66.5133 21.2251 66.5432C21.2673 66.5744 21.2822 67.0747 21.2823 67.1342C21.2825 67.1912 21.2702 67.6736 21.2285 67.7007L21.2285 67.7007Z" fill="#26C6DA"/>
<path d="M27.3557 67.7007C27.3993 67.7291 27.7672 67.4944 27.8102 67.4648C27.8514 67.4365 28.1927 67.1825 28.1914 67.1255C28.1901 67.066 27.837 66.8003 27.7942 66.7704C27.7532 66.7417 27.3995 66.5133 27.3591 66.5432C27.3169 66.5744 27.302 67.0747 27.3019 67.1342C27.3017 67.1912 27.314 67.6736 27.3557 67.7007L27.3557 67.7007Z" fill="#26C6DA"/>
<path d="M54.7277 64.3605H48.5642V65.5202H54.7277V64.3605Z" fill="#CCCCCC"/>
<path d="M48.5886 65.5152C48.545 65.5435 48.1771 65.3088 48.1342 65.2792C48.093 65.2509 47.7516 64.9969 47.7529 64.9399C47.7543 64.8804 48.1074 64.6147 48.1501 64.5848C48.1911 64.5561 48.5448 64.3278 48.5852 64.3576C48.6274 64.3888 48.6423 64.8891 48.6425 64.9486C48.6426 65.0057 48.6303 65.488 48.5886 65.5151L48.5886 65.5152Z" fill="#CCCCCC"/>
<path d="M54.7159 65.5152C54.7594 65.5435 55.1273 65.3088 55.1703 65.2792C55.2115 65.2509 55.5529 64.9969 55.5515 64.9399C55.5502 64.8804 55.1971 64.6147 55.1543 64.5848C55.1133 64.5561 54.7596 64.3278 54.7192 64.3576C54.677 64.3888 54.6622 64.8891 54.662 64.9486C54.6618 65.0057 54.6741 65.488 54.7159 65.5151L54.7159 65.5152Z" fill="#CCCCCC"/>
<path d="M58.8415 66.6027H30.1597V67.7624H58.8415V66.6027Z" fill="#CCCCCC"/>
<path d="M30.1835 67.7573C30.1412 67.7857 29.7838 67.551 29.742 67.5214C29.702 67.4931 29.3704 67.2391 29.3717 67.1821C29.373 67.1226 29.716 66.8569 29.7575 66.827C29.7974 66.7983 30.141 66.5699 30.1802 66.5998C30.2212 66.631 30.2357 67.1313 30.2358 67.1908C30.236 67.2478 30.224 67.7302 30.1835 67.7573L30.1835 67.7573Z" fill="#CCCCCC"/>
<path d="M58.7782 67.7573C58.8205 67.7857 59.1779 67.551 59.2196 67.5214C59.2596 67.4931 59.5913 67.2391 59.59 67.1821C59.5887 67.1226 59.2457 66.8569 59.2041 66.827C59.1643 66.7983 58.8207 66.5699 58.7814 66.5998C58.7405 66.631 58.726 67.1313 58.7258 67.1908C58.7257 67.2478 58.7376 67.7302 58.7782 67.7573L58.7782 67.7573Z" fill="#CCCCCC"/>
<path d="M27.3669 69.0752H21.2034V70.2349H27.3669V69.0752Z" fill="#26C6DA"/>
<path d="M21.2285 70.2298C21.1849 70.2581 20.817 70.0235 20.774 69.9939C20.7329 69.9655 20.3915 69.7115 20.3928 69.6545C20.3942 69.5951 20.7472 69.3294 20.79 69.2995C20.831 69.2708 21.1847 69.0424 21.2251 69.0723C21.2673 69.1034 21.2822 69.6038 21.2823 69.6633C21.2825 69.7203 21.2702 70.2027 21.2285 70.2298L21.2285 70.2298Z" fill="#26C6DA"/>
<path d="M27.3557 70.2298C27.3993 70.2581 27.7672 70.0235 27.8102 69.9939C27.8514 69.9655 28.1927 69.7115 28.1914 69.6545C28.1901 69.5951 27.837 69.3294 27.7942 69.2995C27.7532 69.2708 27.3995 69.0424 27.3591 69.0723C27.3169 69.1034 27.302 69.6038 27.3019 69.6633C27.3017 69.7203 27.314 70.2027 27.3557 70.2298L27.3557 70.2298Z" fill="#26C6DA"/>
<path d="M46.1436 68.96H29.9756V70.1197H46.1436V68.96Z" fill="#FF7043"/>
<path d="M30 70.1147C29.9564 70.143 29.5885 69.9083 29.5455 69.8787C29.5044 69.8504 29.163 69.5964 29.1643 69.5394C29.1657 69.4799 29.5187 69.2143 29.5615 69.1843C29.6025 69.1556 29.9562 68.9273 29.9966 68.9571C30.0388 68.9883 30.0537 69.4887 30.0538 69.5482C30.054 69.6052 30.0417 70.0875 30 70.1147L30 70.1147Z" fill="#FF7043"/>
<path d="M46.0105 70.1147C46.0541 70.143 46.422 69.9083 46.465 69.8787C46.5061 69.8504 46.8475 69.5964 46.8462 69.5394C46.8448 69.4799 46.4918 69.2143 46.449 69.1843C46.408 69.1556 46.0543 68.9273 46.0139 68.9571C45.9717 68.9883 45.9568 69.4887 45.9567 69.5482C45.9565 69.6052 45.9688 70.0875 46.0105 70.1147L46.0105 70.1147Z" fill="#FF7043"/>
<path d="M54.7277 69.0752H48.5642V70.2349H54.7277V69.0752Z" fill="#CCCCCC"/>
<path d="M48.5886 70.2298C48.545 70.2581 48.1771 70.0235 48.1342 69.9939C48.093 69.9655 47.7516 69.7115 47.7529 69.6545C47.7543 69.5951 48.1074 69.3294 48.1501 69.2995C48.1911 69.2708 48.5448 69.0424 48.5852 69.0723C48.6274 69.1034 48.6423 69.6038 48.6425 69.6633C48.6426 69.7203 48.6303 70.2027 48.5886 70.2298L48.5886 70.2298Z" fill="#CCCCCC"/>
<path d="M54.7159 70.2298C54.7594 70.2581 55.1273 70.0235 55.1703 69.9939C55.2115 69.9655 55.5529 69.7115 55.5515 69.6545C55.5502 69.5951 55.1971 69.3294 55.1543 69.2995C55.1133 69.2708 54.7596 69.0424 54.7192 69.0723C54.677 69.1034 54.6622 69.6038 54.662 69.6633C54.6618 69.7203 54.6741 70.2027 54.7159 70.2298L54.7159 70.2298Z" fill="#CCCCCC"/>
<path d="M27.1135 71.4745H20.95V72.6342H27.1135V71.4745Z" fill="#26C6DA"/>
<path d="M20.9748 72.6292C20.9313 72.6575 20.5633 72.4228 20.5204 72.3932C20.4792 72.3649 20.1378 72.1109 20.1391 72.0539C20.1405 71.9944 20.4936 71.7288 20.5364 71.6988C20.5774 71.6701 20.9311 71.4418 20.9715 71.4716C21.0136 71.5028 21.0285 72.0032 21.0287 72.0627C21.0289 72.1197 21.0165 72.602 20.9748 72.6292L20.9748 72.6292Z" fill="#26C6DA"/>
<path d="M27.1018 72.6292C27.1454 72.6575 27.5133 72.4228 27.5563 72.3932C27.5974 72.3649 27.9388 72.1109 27.9375 72.0539C27.9362 71.9944 27.5831 71.7288 27.5403 71.6988C27.4993 71.6701 27.1456 71.4418 27.1052 71.4716C27.063 71.5028 27.0481 72.0032 27.048 72.0627C27.0478 72.1197 27.0601 72.602 27.1018 72.6292L27.1018 72.6292Z" fill="#26C6DA"/>
<path d="M59.0722 71.4745H41.6409V72.6342H59.0722V71.4745Z" fill="#CCCCCC"/>
<path d="M41.6655 72.6292C41.622 72.6575 41.254 72.4228 41.2111 72.3932C41.1699 72.3649 40.8285 72.1109 40.8298 72.0539C40.8312 71.9944 41.1843 71.7288 41.227 71.6988C41.268 71.6701 41.6217 71.4418 41.6621 71.4716C41.7043 71.5028 41.7192 72.0032 41.7194 72.0627C41.7195 72.1197 41.7072 72.602 41.6655 72.6292L41.6655 72.6292Z" fill="#CCCCCC"/>
<path d="M59.0076 72.6292C59.0511 72.6575 59.4191 72.4228 59.462 72.3932C59.5032 72.3649 59.8446 72.1109 59.8433 72.0539C59.8419 71.9944 59.4888 71.7288 59.4461 71.6988C59.4051 71.6701 59.0514 71.4418 59.011 71.4716C58.9688 71.5028 58.9539 72.0032 58.9537 72.0627C58.9536 72.1197 58.9659 72.602 59.0076 72.6292L59.0076 72.6292Z" fill="#CCCCCC"/>
<path d="M59.0185 73.545H21.1008V74.7046H59.0185V73.545Z" fill="#CCCCCC"/>
<path d="M21.1334 74.6996C21.0775 74.7279 20.6055 74.4932 20.5504 74.4636C20.4975 74.4353 20.0595 74.1813 20.0612 74.1243C20.063 74.0648 20.516 73.7992 20.5709 73.7692C20.6235 73.7405 21.0773 73.5122 21.1291 73.542C21.1832 73.5732 21.2023 74.0736 21.2025 74.1331C21.2027 74.1901 21.1869 74.6724 21.1334 74.6996L21.1334 74.6996Z" fill="#CCCCCC"/>
<path d="M58.8978 74.6996C58.9537 74.7279 59.4258 74.4932 59.4809 74.4636C59.5337 74.4353 59.9717 74.1813 59.97 74.1243C59.9683 74.0648 59.5153 73.7992 59.4604 73.7692C59.4078 73.7405 58.954 73.5122 58.9021 73.542C58.848 73.5732 58.8289 74.0736 58.8287 74.1331C58.8285 74.1901 58.8443 74.6724 58.8978 74.6996L58.8978 74.6996Z" fill="#CCCCCC"/>
<path d="M59.0185 75.5002H21.1008V76.6599H59.0185V75.5002Z" fill="#CCCCCC"/>
<path d="M21.1334 76.6549C21.0775 76.6832 20.6055 76.4485 20.5504 76.419C20.4975 76.3906 20.0595 76.1366 20.0612 76.0796C20.063 76.0201 20.516 75.7545 20.5709 75.7245C20.6235 75.6959 21.0773 75.4675 21.1291 75.4974C21.1832 75.5285 21.2023 76.0289 21.2025 76.0884C21.2027 76.1454 21.1869 76.6278 21.1334 76.6549L21.1334 76.6549Z" fill="#CCCCCC"/>
<path d="M58.8978 76.6549C58.9537 76.6832 59.4258 76.4485 59.4809 76.419C59.5337 76.3906 59.9717 76.1366 59.97 76.0796C59.9683 76.0201 59.5153 75.7545 59.4604 75.7245C59.4078 75.6959 58.954 75.4675 58.9021 75.4974C58.848 75.5285 58.8289 76.0289 58.8287 76.0884C58.8285 76.1454 58.8443 76.6278 58.8978 76.6549L58.8978 76.6549Z" fill="#CCCCCC"/>
<path d="M39.0069 71.4745H30.0112V72.6342H39.0069V71.4745Z" fill="#FF7043"/>
<path d="M30.0474 72.6292C29.9838 72.6575 29.4468 72.4228 29.3841 72.3932C29.324 72.3649 28.8258 72.1109 28.8277 72.0539C28.8297 71.9944 29.345 71.7288 29.4074 71.6988C29.4673 71.6701 29.9835 71.4418 30.0425 71.4716C30.104 71.5028 30.1257 72.0032 30.126 72.0627C30.1262 72.1197 30.1083 72.602 30.0474 72.6292L30.0474 72.6292Z" fill="#FF7043"/>
<path d="M38.9883 72.6292C39.0518 72.6575 39.5888 72.4228 39.6515 72.3932C39.7116 72.3649 40.2099 72.1109 40.2079 72.0539C40.206 71.9944 39.6906 71.7288 39.6282 71.6988C39.5684 71.6701 39.0521 71.4418 38.9932 71.4716C38.9316 71.5028 38.9099 72.0032 38.9097 72.0627C38.9094 72.1197 38.9274 72.602 38.9883 72.6292L38.9883 72.6292Z" fill="#FF7043"/>
<path d="M33.2334 77.4537H39.397V78.6134H33.2334V77.4537Z" fill="#26C6DA"/>
<path d="M39.3733 78.6102C39.4169 78.6385 39.7848 78.4039 39.8278 78.3743C39.8689 78.3459 40.2103 78.0919 40.209 78.0349C40.2076 77.9755 39.8546 77.7098 39.8118 77.6799C39.7708 77.6512 39.4171 77.4228 39.3767 77.4527C39.3345 77.4838 39.3196 77.9842 39.3195 78.0437C39.3193 78.1007 39.3316 78.5831 39.3733 78.6102L39.3733 78.6102Z" fill="#26C6DA"/>
<path d="M33.2458 78.6102C33.2023 78.6385 32.8343 78.4039 32.7914 78.3743C32.7502 78.3459 32.4088 78.0919 32.4101 78.0349C32.4115 77.9755 32.7646 77.7098 32.8074 77.6799C32.8484 77.6512 33.2021 77.4228 33.2425 77.4527C33.2846 77.4838 33.2995 77.9842 33.2997 78.0437C33.2998 78.1007 33.2875 78.5831 33.2458 78.6102L33.2458 78.6102Z" fill="#26C6DA"/>
<path d="M21.3405 77.4537H30.3362V78.6134H21.3405V77.4537Z" fill="#FF7043"/>
<path d="M30.2998 78.6102C30.3634 78.6385 30.9004 78.4039 30.9631 78.3743C31.0231 78.3459 31.5214 78.0919 31.5195 78.0349C31.5175 77.9755 31.0022 77.7098 30.9397 77.6799C30.8799 77.6512 30.3637 77.4228 30.3047 77.4527C30.2431 77.4838 30.2214 77.9842 30.2212 78.0437C30.2209 78.1007 30.2389 78.5831 30.2998 78.6102L30.2998 78.6102Z" fill="#FF7043"/>
<path d="M21.3591 78.6102C21.2956 78.6385 20.7586 78.4039 20.6959 78.3743C20.6358 78.3459 20.1375 78.0919 20.1395 78.0349C20.1415 77.9755 20.6568 77.7098 20.7192 77.6799C20.779 77.6512 21.2953 77.4228 21.3542 77.4527C21.4158 77.4838 21.4375 77.9842 21.4378 78.0437C21.438 78.1007 21.42 78.5831 21.3591 78.6102L21.3591 78.6102Z" fill="#FF7043"/>
</svg>
