<svg width="100" height="90" viewBox="0 0 100 90" fill="none" xmlns="http://www.w3.org/2000/svg">
<path fill-rule="evenodd" clip-rule="evenodd" d="M3.12576 3.47373e-08C2.71526 -6.32052e-05 2.30878 0.0862207 1.92952 0.253753C1.55026 0.421284 1.20564 0.66695 0.91538 0.976563C0.625115 1.28618 0.394885 1.65347 0.23782 2.05801C0.0807551 2.46255 -5.46062e-05 2.89629 2.76841e-08 3.33415V70C-5.46062e-05 70.4379 0.0807551 70.8716 0.23782 71.2762C0.394885 71.6807 0.625115 72.048 0.91538 72.3576C1.20564 72.6672 1.55026 72.9129 1.92952 73.0804C2.30878 73.2479 2.71526 73.3342 3.12576 73.3342H96.8754C97.7042 73.334 98.4991 72.9825 99.085 72.3573C99.671 71.732 100 70.8841 100 70V3.33415C100 2.45006 99.671 1.60213 99.085 0.97687C98.4991 0.351612 97.7042 0.000196434 96.8754 3.47373e-08H3.12576Z" fill="#5599FF"/>
<path fill-rule="evenodd" clip-rule="evenodd" d="M6.25049 6.66716H93.7498V66.6672H6.25049V6.66716Z" fill="white"/>
<path fill-rule="evenodd" clip-rule="evenodd" d="M46.875 70V86.6671H53.1254V70H46.875Z" fill="#5599FF"/>
<path fill-rule="evenodd" clip-rule="evenodd" d="M31.2505 83.3342V90H34.3751H65.6246H68.7503V83.3342H65.6246H34.3751H31.2505Z" fill="#5599FF"/>
<path fill-rule="evenodd" clip-rule="evenodd" d="M18.7501 18.7501C18.5947 18.7477 18.4405 18.7783 18.2962 18.84C18.152 18.9017 18.0208 18.9934 17.9101 19.1097C17.7994 19.226 17.7115 19.3647 17.6515 19.5176C17.5914 19.6704 17.5605 19.8344 17.5605 20.0001C17.5605 20.1659 17.5914 20.3298 17.6515 20.4827C17.7115 20.6356 17.7994 20.7743 17.9101 20.8906C18.0208 21.0069 18.152 21.0986 18.2962 21.1603C18.4405 21.222 18.5947 21.2526 18.7501 21.2501H34.3754C34.5308 21.2526 34.6851 21.222 34.8293 21.1603C34.9735 21.0986 35.1048 21.0069 35.2155 20.8906C35.3262 20.7743 35.4141 20.6356 35.4741 20.4827C35.5341 20.3298 35.565 20.1659 35.565 20.0001C35.565 19.8344 35.5341 19.6704 35.4741 19.5176C35.4141 19.3647 35.3262 19.226 35.2155 19.1097C35.1048 18.9934 34.9735 18.9017 34.8293 18.84C34.6851 18.7783 34.5308 18.7477 34.3754 18.7501H18.7501Z" fill="#5599FF"/>
<path fill-rule="evenodd" clip-rule="evenodd" d="M25.0001 25.4173C24.8447 25.4148 24.6905 25.4454 24.5462 25.5071C24.402 25.5688 24.2708 25.6605 24.1601 25.7769C24.0494 25.8932 23.9615 26.0318 23.9015 26.1847C23.8414 26.3376 23.8105 26.5016 23.8105 26.6673C23.8105 26.833 23.8414 26.997 23.9015 27.1499C23.9615 27.3028 24.0494 27.4414 24.1601 27.5577C24.2708 27.6741 24.402 27.7658 24.5462 27.8275C24.6905 27.8892 24.8447 27.9198 25.0001 27.9173H50.0004C50.1558 27.9198 50.3101 27.8892 50.4543 27.8275C50.5985 27.7658 50.7298 27.6741 50.8405 27.5577C50.9511 27.4414 51.0391 27.3028 51.0991 27.1499C51.1591 26.997 51.19 26.833 51.19 26.6673C51.19 26.5016 51.1591 26.3376 51.0991 26.1847C51.0391 26.0318 50.9511 25.8932 50.8405 25.7769C50.7298 25.6605 50.5985 25.5688 50.4543 25.5071C50.3101 25.4454 50.1558 25.4148 50.0004 25.4173H25.0001Z" fill="#5599FF"/>
<path fill-rule="evenodd" clip-rule="evenodd" d="M53.1251 25.4173C52.9697 25.4148 52.8155 25.4454 52.6712 25.5071C52.527 25.5688 52.3958 25.6605 52.2851 25.7769C52.1744 25.8932 52.0865 26.0318 52.0265 26.1847C51.9664 26.3376 51.9355 26.5016 51.9355 26.6673C51.9355 26.833 51.9664 26.997 52.0265 27.1499C52.0865 27.3028 52.1744 27.4414 52.2851 27.5577C52.3958 27.6741 52.527 27.7658 52.6712 27.8275C52.8155 27.8892 52.9697 27.9198 53.1251 27.9173H81.25C81.4054 27.9198 81.5597 27.8892 81.7039 27.8275C81.8481 27.7658 81.9794 27.6741 82.0901 27.5577C82.2008 27.4414 82.2887 27.3028 82.3487 27.1499C82.4087 26.997 82.4396 26.833 82.4396 26.6673C82.4396 26.5016 82.4087 26.3376 82.3487 26.1847C82.2887 26.0318 82.2008 25.8932 82.0901 25.7769C81.9794 25.6605 81.8481 25.5688 81.7039 25.5071C81.5597 25.4454 81.4054 25.4148 81.25 25.4173H53.1251Z" fill="#5599FF"/>
<path fill-rule="evenodd" clip-rule="evenodd" d="M37.5001 18.7501C37.3447 18.7477 37.1905 18.7783 37.0462 18.84C36.902 18.9017 36.7708 18.9934 36.6601 19.1097C36.5494 19.226 36.4615 19.3647 36.4015 19.5176C36.3414 19.6704 36.3105 19.8344 36.3105 20.0001C36.3105 20.1659 36.3414 20.3298 36.4015 20.4827C36.4615 20.6356 36.5494 20.7743 36.6601 20.8906C36.7708 21.0069 36.902 21.0986 37.0462 21.1603C37.1905 21.222 37.3447 21.2526 37.5001 21.2501H59.3758C59.5312 21.2526 59.6855 21.222 59.8297 21.1603C59.9739 21.0986 60.1052 21.0069 60.2158 20.8906C60.3265 20.7743 60.4145 20.6356 60.4745 20.4827C60.5345 20.3298 60.5654 20.1659 60.5654 20.0001C60.5654 19.8344 60.5345 19.6704 60.4745 19.5176C60.4145 19.3647 60.3265 19.226 60.2158 19.1097C60.1052 18.9934 59.9739 18.9017 59.8297 18.84C59.6855 18.7783 59.5312 18.7477 59.3758 18.7501H37.5001Z" fill="#5599FF"/>
<path fill-rule="evenodd" clip-rule="evenodd" d="M25.0001 32.0843C24.8447 32.0818 24.6905 32.1124 24.5462 32.1741C24.402 32.2358 24.2708 32.3275 24.1601 32.4439C24.0494 32.5602 23.9615 32.6988 23.9015 32.8517C23.8414 33.0046 23.8105 33.1685 23.8105 33.3343C23.8105 33.5 23.8414 33.664 23.9015 33.8169C23.9615 33.9698 24.0494 34.1084 24.1601 34.2247C24.2708 34.3411 24.402 34.4328 24.5462 34.4945C24.6905 34.5562 24.8447 34.5868 25.0001 34.5843H34.3751C34.5304 34.5868 34.6847 34.5562 34.8289 34.4945C34.9732 34.4328 35.1044 34.3411 35.2151 34.2247C35.3258 34.1084 35.4137 33.9698 35.4737 33.8169C35.5337 33.664 35.5646 33.5 35.5646 33.3343C35.5646 33.1685 35.5337 33.0046 35.4737 32.8517C35.4137 32.6988 35.3258 32.5602 35.2151 32.4439C35.1044 32.3275 34.9732 32.2358 34.8289 32.1741C34.6847 32.1124 34.5304 32.0818 34.3751 32.0843H25.0001Z" fill="#5599FF"/>
<path fill-rule="evenodd" clip-rule="evenodd" d="M25.0001 38.7501C24.8447 38.7477 24.6905 38.7783 24.5462 38.84C24.402 38.9017 24.2708 38.9934 24.1601 39.1097C24.0494 39.226 23.9615 39.3647 23.9015 39.5176C23.8414 39.6704 23.8105 39.8344 23.8105 40.0001C23.8105 40.1659 23.8414 40.3298 23.9015 40.4827C23.9615 40.6356 24.0494 40.7743 24.1601 40.8906C24.2708 41.0069 24.402 41.0986 24.5462 41.1603C24.6905 41.222 24.8447 41.2526 25.0001 41.2501H50.0004C50.1558 41.2526 50.3101 41.222 50.4543 41.1603C50.5985 41.0986 50.7298 41.0069 50.8405 40.8906C50.9511 40.7743 51.0391 40.6356 51.0991 40.4827C51.1591 40.3298 51.19 40.1659 51.19 40.0001C51.19 39.8344 51.1591 39.6704 51.0991 39.5176C51.0391 39.3647 50.9511 39.226 50.8405 39.1097C50.7298 38.9934 50.5985 38.9017 50.4543 38.84C50.3101 38.7783 50.1558 38.7477 50.0004 38.7501H25.0001Z" fill="#5599FF"/>
<path fill-rule="evenodd" clip-rule="evenodd" d="M25.0001 38.7501C24.8447 38.7477 24.6905 38.7783 24.5462 38.84C24.402 38.9017 24.2708 38.9934 24.1601 39.1097C24.0494 39.226 23.9615 39.3647 23.9015 39.5176C23.8414 39.6704 23.8105 39.8344 23.8105 40.0001C23.8105 40.1659 23.8414 40.3298 23.9015 40.4827C23.9615 40.6356 24.0494 40.7743 24.1601 40.8906C24.2708 41.0069 24.402 41.0986 24.5462 41.1603C24.6905 41.222 24.8447 41.2526 25.0001 41.2501H53.125C53.2804 41.2526 53.4347 41.222 53.5789 41.1603C53.7231 41.0986 53.8544 41.0069 53.9651 40.8906C54.0758 40.7743 54.1637 40.6356 54.2237 40.4827C54.2837 40.3298 54.3146 40.1659 54.3146 40.0001C54.3146 39.8344 54.2837 39.6704 54.2237 39.5176C54.1637 39.3647 54.0758 39.226 53.9651 39.1097C53.8544 38.9934 53.7231 38.9017 53.5789 38.84C53.4347 38.7783 53.2804 38.7477 53.125 38.7501H25.0001Z" fill="#5599FF"/>
<path fill-rule="evenodd" clip-rule="evenodd" d="M37.5001 32.0843C37.3447 32.0818 37.1905 32.1124 37.0462 32.1741C36.902 32.2358 36.7708 32.3275 36.6601 32.4439C36.5494 32.5602 36.4615 32.6988 36.4015 32.8517C36.3414 33.0046 36.3105 33.1685 36.3105 33.3343C36.3105 33.5 36.3414 33.664 36.4015 33.8169C36.4615 33.9698 36.5494 34.1084 36.6601 34.2247C36.7708 34.3411 36.902 34.4328 37.0462 34.4945C37.1905 34.5562 37.3447 34.5868 37.5001 34.5843H78.1257C78.2811 34.5868 78.4354 34.5562 78.5796 34.4945C78.7238 34.4328 78.8551 34.3411 78.9658 34.2247C79.0765 34.1084 79.1644 33.9698 79.2244 33.8169C79.2844 33.664 79.3153 33.5 79.3153 33.3343C79.3153 33.1685 79.2844 33.0046 79.2244 32.8517C79.1644 32.6988 79.0765 32.5602 78.9658 32.4439C78.8551 32.3275 78.7238 32.2358 78.5796 32.1741C78.4354 32.1124 78.2811 32.0818 78.1257 32.0843H37.5001Z" fill="#5599FF"/>
<path fill-rule="evenodd" clip-rule="evenodd" d="M56.2501 38.7501C56.0947 38.7477 55.9405 38.7783 55.7962 38.84C55.652 38.9017 55.5208 38.9934 55.4101 39.1097C55.2994 39.226 55.2115 39.3647 55.1515 39.5176C55.0914 39.6704 55.0605 39.8344 55.0605 40.0001C55.0605 40.1659 55.0914 40.3298 55.1515 40.4827C55.2115 40.6356 55.2994 40.7743 55.4101 40.8906C55.5208 41.0069 55.652 41.0986 55.7962 41.1603C55.9405 41.222 56.0947 41.2526 56.2501 41.2501H81.2504C81.4058 41.2526 81.5601 41.222 81.7043 41.1603C81.8485 41.0986 81.9798 41.0069 82.0905 40.8906C82.2011 40.7743 82.2891 40.6356 82.3491 40.4827C82.4091 40.3298 82.44 40.1659 82.44 40.0001C82.44 39.8344 82.4091 39.6704 82.3491 39.5176C82.2891 39.3647 82.2011 39.226 82.0905 39.1097C81.9798 38.9934 81.8485 38.9017 81.7043 38.84C81.5601 38.7783 81.4058 38.7477 81.2504 38.7501H56.2501Z" fill="#5599FF"/>
<path fill-rule="evenodd" clip-rule="evenodd" d="M18.7501 45.4173C18.5947 45.4148 18.4405 45.4454 18.2962 45.5071C18.152 45.5688 18.0208 45.6605 17.9101 45.7769C17.7994 45.8932 17.7115 46.0318 17.6515 46.1847C17.5914 46.3376 17.5605 46.5016 17.5605 46.6673C17.5605 46.833 17.5914 46.997 17.6515 47.1499C17.7115 47.3028 17.7994 47.4414 17.9101 47.5577C18.0208 47.6741 18.152 47.7658 18.2962 47.8275C18.4405 47.8892 18.5947 47.9198 18.7501 47.9173H28.1251C28.2804 47.9198 28.4347 47.8892 28.5789 47.8275C28.7232 47.7658 28.8545 47.6741 28.9652 47.5577C29.0759 47.4414 29.1637 47.3028 29.2237 47.1499C29.2837 46.997 29.3146 46.833 29.3146 46.6673C29.3146 46.5016 29.2837 46.3376 29.2237 46.1847C29.1637 46.0318 29.0759 45.8932 28.9652 45.7769C28.8545 45.6605 28.7232 45.5688 28.5789 45.5071C28.4347 45.4454 28.2804 45.4148 28.1251 45.4173H18.7501Z" fill="#5599FF"/>
<path fill-rule="evenodd" clip-rule="evenodd" d="M53.1251 25.4173C52.9697 25.4148 52.8155 25.4454 52.6712 25.5071C52.527 25.5688 52.3958 25.6605 52.2851 25.7769C52.1744 25.8932 52.0865 26.0318 52.0265 26.1847C51.9664 26.3376 51.9355 26.5016 51.9355 26.6673C51.9355 26.833 51.9664 26.997 52.0265 27.1499C52.0865 27.3028 52.1744 27.4414 52.2851 27.5577C52.3958 27.6741 52.527 27.7658 52.6712 27.8275C52.8155 27.8892 52.9697 27.9198 53.1251 27.9173H81.25C81.4054 27.9198 81.5597 27.8892 81.7039 27.8275C81.8481 27.7658 81.9794 27.6741 82.0901 27.5577C82.2008 27.4414 82.2887 27.3028 82.3487 27.1499C82.4087 26.997 82.4396 26.833 82.4396 26.6673C82.4396 26.5016 82.4087 26.3376 82.3487 26.1847C82.2887 26.0318 82.2008 25.8932 82.0901 25.7769C81.9794 25.6605 81.8481 25.5688 81.7039 25.5071C81.5597 25.4454 81.4054 25.4148 81.25 25.4173H53.1251Z" fill="#5599FF"/>
<path fill-rule="evenodd" clip-rule="evenodd" d="M25.0001 52.0843C24.8447 52.0818 24.6905 52.1124 24.5462 52.1741C24.402 52.2358 24.2708 52.3275 24.1601 52.4439C24.0494 52.5602 23.9615 52.6988 23.9015 52.8517C23.8414 53.0046 23.8105 53.1685 23.8105 53.3343C23.8105 53.5 23.8414 53.664 23.9015 53.8169C23.9615 53.9698 24.0494 54.1084 24.1601 54.2247C24.2708 54.3411 24.402 54.4328 24.5462 54.4945C24.6905 54.5562 24.8447 54.5868 25.0001 54.5843H50.0004C50.1558 54.5868 50.3101 54.5562 50.4543 54.4945C50.5985 54.4328 50.7298 54.3411 50.8405 54.2247C50.9511 54.1084 51.0391 53.9698 51.0991 53.8169C51.1591 53.664 51.19 53.5 51.19 53.3343C51.19 53.1685 51.1591 53.0046 51.0991 52.8517C51.0391 52.6988 50.9511 52.5602 50.8405 52.4439C50.7298 52.3275 50.5985 52.2358 50.4543 52.1741C50.3101 52.1124 50.1558 52.0818 50.0004 52.0843H25.0001Z" fill="#5599FF"/>
<path fill-rule="evenodd" clip-rule="evenodd" d="M25.0001 52.0843C24.8447 52.0818 24.6905 52.1124 24.5462 52.1741C24.402 52.2358 24.2708 52.3275 24.1601 52.4439C24.0494 52.5602 23.9615 52.6988 23.9015 52.8517C23.8414 53.0046 23.8105 53.1685 23.8105 53.3343C23.8105 53.5 23.8414 53.664 23.9015 53.8169C23.9615 53.9698 24.0494 54.1084 24.1601 54.2247C24.2708 54.3411 24.402 54.4328 24.5462 54.4945C24.6905 54.5562 24.8447 54.5868 25.0001 54.5843H50.0004C50.1558 54.5868 50.3101 54.5562 50.4543 54.4945C50.5985 54.4328 50.7298 54.3411 50.8405 54.2247C50.9511 54.1084 51.0391 53.9698 51.0991 53.8169C51.1591 53.664 51.19 53.5 51.19 53.3343C51.19 53.1685 51.1591 53.0046 51.0991 52.8517C51.0391 52.6988 50.9511 52.5602 50.8405 52.4439C50.7298 52.3275 50.5985 52.2358 50.4543 52.1741C50.3101 52.1124 50.1558 52.0818 50.0004 52.0843H25.0001Z" fill="#5599FF"/>
<path fill-rule="evenodd" clip-rule="evenodd" d="M53.1251 52.0843C52.9697 52.0818 52.8155 52.1124 52.6712 52.1741C52.527 52.2358 52.3958 52.3275 52.2851 52.4439C52.1744 52.5602 52.0865 52.6988 52.0265 52.8517C51.9664 53.0046 51.9355 53.1685 51.9355 53.3343C51.9355 53.5 51.9664 53.664 52.0265 53.8169C52.0865 53.9698 52.1744 54.1084 52.2851 54.2247C52.3958 54.3411 52.527 54.4328 52.6712 54.4945C52.8155 54.5562 52.9697 54.5868 53.1251 54.5843H71.875C72.0304 54.5868 72.1847 54.5562 72.3289 54.4945C72.4731 54.4328 72.6044 54.3411 72.7151 54.2247C72.8258 54.1084 72.9137 53.9698 72.9737 53.8169C73.0337 53.664 73.0646 53.5 73.0646 53.3343C73.0646 53.1685 73.0337 53.0046 72.9737 52.8517C72.9137 52.6988 72.8258 52.5602 72.7151 52.4439C72.6044 52.3275 72.4731 52.2358 72.3289 52.1741C72.1847 52.1124 72.0304 52.0818 71.875 52.0843H53.1251Z" fill="#5599FF"/>
<path fill-rule="evenodd" clip-rule="evenodd" d="M31.2506 45.4173C31.0952 45.4148 30.941 45.4454 30.7967 45.5071C30.6525 45.5688 30.5212 45.6605 30.4105 45.7769C30.2998 45.8932 30.2119 46.0318 30.1519 46.1847C30.0919 46.3376 30.061 46.5016 30.061 46.6673C30.061 46.833 30.0919 46.997 30.1519 47.1499C30.2119 47.3028 30.2998 47.4414 30.4105 47.5577C30.5212 47.6741 30.6525 47.7658 30.7967 47.8275C30.941 47.8892 31.0952 47.9198 31.2506 47.9173H46.8748C47.0301 47.9198 47.1844 47.8892 47.3286 47.8275C47.4729 47.7658 47.6042 47.6741 47.7149 47.5577C47.8256 47.4414 47.9134 47.3028 47.9734 47.1499C48.0334 46.997 48.0643 46.833 48.0643 46.6673C48.0643 46.5016 48.0334 46.3376 47.9734 46.1847C47.9134 46.0318 47.8256 45.8932 47.7149 45.7769C47.6042 45.6605 47.4729 45.5688 47.3286 45.5071C47.1844 45.4454 47.0301 45.4148 46.8748 45.4173H31.2506Z" fill="#5599FF"/>
</svg>
