<svg width="91" height="70" viewBox="0 0 91 70" fill="none" xmlns="http://www.w3.org/2000/svg">
<path d="M9.59824 40.7018C9.85841 40.7348 10.109 40.7452 10.3373 40.8481C10.552 40.9449 12.0263 40.8909 12.1052 40.7131C12.1503 40.5815 12.1455 40.0357 12.1161 40.0069C11.9525 39.8594 9.68367 40.2103 9.63813 40.3642C9.6087 40.4637 9.58983 40.6266 9.59818 40.7018L9.59824 40.7018Z" fill="#BAB9C9" stroke="black"/>
<path d="M11.5957 36.2792C12.0123 36.7802 11.3836 37.7086 11.6257 38.3387C11.6865 38.4969 11.8849 38.5457 11.9553 38.6988C11.8585 39.2175 12.0927 39.7842 12.145 40.0718C9.71012 39.836 9.90522 41.0922 9.60808 40.8934C9.09568 40.5895 9.12873 39.6841 9.05873 39.0365C8.95214 38.0503 8.59696 36.7092 9.26848 36.0654C9.86124 35.4971 11.0635 35.6393 11.5957 36.2792L11.5957 36.2792Z" fill="#A4A2CA" stroke="black"/>
<path d="M10.9665 37.7982C10.7341 37.6182 9.76247 38.0028 10.0276 38.4509C10.1613 38.6768 10.8458 38.4676 11.0664 38.5297C11.1793 38.5615 11.2948 38.5852 11.396 38.6423C11.5146 38.709 11.5306 39.2135 11.7855 39.0699C11.8452 39.0363 11.8166 38.9161 11.7955 38.8448C11.7641 38.7387 11.4539 38.615 11.396 38.4847C11.3209 38.3153 11.2998 38.1482 11.2462 37.967C11.2232 37.8894 11.028 37.8675 10.9665 37.7982H10.9665Z" fill="#C9C8DE"/>
<path d="M10.4971 39.4751C10.4332 39.6415 10.3185 39.8774 10.4572 39.9816C10.6107 40.0969 10.89 39.8559 11.0265 39.779C11.1844 39.69 11.7335 40.0088 11.8455 39.7565C11.9411 39.541 10.4971 38.9759 10.4971 39.4751L10.4971 39.4751Z" fill="#C9C8DE"/>
<path d="M11.7454 40.3078C11.5808 40.2764 11.2022 40.4544 10.8729 40.5303C10.3734 40.6454 10.0654 40.6867 11.4058 40.6791C11.5429 40.6784 11.6996 40.7451 11.8453 40.6904C11.9464 40.6524 12.0082 40.2337 11.7454 40.3078H11.7454Z" fill="white"/>
<path d="M11.7457 38.5297L11.1365 37.8882L11.6359 38.2933" fill="black"/>
<path d="M12.0552 39.7787C11.6662 39.1878 10.1315 38.9116 9.80786 39.6324C10.0489 39.1439 10.5518 38.862 11.9553 39.4749" fill="black"/>
<path d="M12.1311 39.8988C12.0886 40.1023 11.9576 40.3311 12.0412 40.5178C12.107 40.6645 12.2884 40.7068 12.4308 40.7428C13.045 40.8984 13.6895 40.7043 14.3185 40.6753C14.6447 40.6075 15.2734 40.7656 15.3973 40.6303C15.497 40.5092 15.4727 40.2606 15.3773 40.1351C14.6877 39.2284 13.1723 38.8166 12.261 39.4261C12.1351 39.5103 12.1647 39.7382 12.1312 39.8988L12.1311 39.8988Z" fill="#F2F1F9" stroke="black"/>
<path d="M12.041 35.9612C11.5645 36.5669 12.3454 37.6258 12.1046 38.3884C12.066 38.5107 11.9117 38.5586 11.8786 38.6828C11.8158 38.9186 11.7948 39.2584 11.9634 39.415C11.9925 39.442 12.0487 39.3781 12.0764 39.407C12.2385 39.5768 11.8833 40.0485 12.0834 40.1551C12.1628 39.9328 12.3128 39.8335 12.4789 39.7969C13.1752 40.1465 13.9848 40.207 14.746 40.4734C15.0371 40.466 15.3919 40.5852 15.5694 40.3252C15.5711 39.6827 15.6845 39.1426 15.6359 38.7545C15.5777 38.523 15.4871 38.4668 15.4255 38.2364C15.2098 37.4286 15.8536 36.1998 15.304 35.627C14.5022 34.7915 12.7655 35.0405 12.041 35.9613L12.041 35.9612Z" fill="#A4A2CA" stroke="black"/>
<path d="M11.8816 38.7732L12.7705 37.3777L12.1712 38.1318" fill="black"/>
<path d="M15.5571 40.0108L14.0688 38.6265L15.597 39.8194" fill="black"/>
<path d="M12.1313 39.4488L12.391 38.7397L12.0015 39.37" fill="black"/>
<path d="M13.7692 38.5708C13.7085 38.5347 12.495 39.4196 12.7904 39.7525C12.9875 39.9746 13.2209 39.6236 13.4097 39.73C13.676 39.88 14.7439 40.4709 14.9178 40.0789C15.1602 39.5328 14.1906 39.1266 14.0289 38.7621C13.8885 38.4457 14.1943 38.4529 14.3585 38.5146C14.4472 38.5479 15.0179 39.5441 15.3074 39.0548C15.7901 38.239 14.8619 38.0025 14.788 37.7943C14.6361 37.3664 15.1695 37.5847 14.8579 36.8827C14.7882 36.7256 14.3757 37.2878 14.3485 37.2878C13.6591 37.2878 13.3161 36.9514 13.0601 37.8168C13.0203 37.9513 12.8286 37.9108 12.7804 38.0194C12.4173 38.8378 14.2934 37.5866 13.7692 38.5708L13.7692 38.5708Z" fill="#C7C8DD"/>
<path d="M19.2899 40.4787C19.6653 40.4855 20.0315 40.3383 20.3969 40.2398C20.5781 40.191 20.7705 40.166 20.9337 40.0647C21.0301 40.0049 21.1836 39.942 21.1809 39.8181C21.179 39.7332 21.0043 39.6589 21.0043 39.6589L20.3546 40.017L21.0114 39.6669C21.0114 39.6669 21.0125 39.5196 20.969 39.4759C20.8751 39.3814 20.5947 39.4202 20.5947 39.4202L20.1215 39.7464L20.6512 39.452C20.6512 39.452 20.5785 39.3403 20.5241 39.3167C20.4295 39.2758 20.2204 39.3247 20.2204 39.3247L19.6695 39.6111L20.1992 39.3247C20.1992 39.3247 20.1502 39.115 20.0721 39.0939C19.9221 39.0535 19.6765 39.3645 19.6765 39.3645L19.9732 39.1496C19.9732 39.1496 19.7778 39.2002 19.6977 39.1496C19.6544 39.1222 19.6674 39.0232 19.62 39.0063C19.5637 38.9863 19.5106 39.1152 19.4576 39.0859C19.3725 39.039 19.4681 38.8308 19.387 38.7756C19.3 38.7164 19.0903 38.8551 19.0903 38.8551L18.9067 39.07L19.0762 38.8711C19.0762 38.8711 18.9658 38.5678 18.8432 38.5368C18.6891 38.4979 18.5615 38.6979 18.4194 38.7756C18.1455 38.9252 17.5931 39.2133 17.5931 39.2133L18.4194 38.7756C18.4194 38.7756 18.2779 38.6904 18.2004 38.6721C18.0645 38.6399 17.9181 38.6242 17.7838 38.6642C17.5511 38.7334 17.1622 39.078 17.1622 39.078L17.6354 38.7994C17.6354 38.7994 17.5118 38.6883 17.4377 38.6642C17.3088 38.6221 17.1618 38.6063 17.0351 38.6562C16.9095 38.7057 16.5779 39.023 16.4883 39.1366" fill="white"/>
<path d="M19.2899 40.4787C19.6653 40.4855 20.0315 40.3383 20.3969 40.2398C20.5781 40.191 20.7705 40.166 20.9337 40.0647C21.0301 40.0049 21.1836 39.942 21.1809 39.8181C21.179 39.7332 21.0043 39.6589 21.0043 39.6589L20.3546 40.017L21.0114 39.6669C21.0114 39.6669 21.0125 39.5196 20.969 39.4759C20.8751 39.3814 20.5947 39.4202 20.5947 39.4202L20.1215 39.7464L20.6512 39.452C20.6512 39.452 20.5785 39.3403 20.5241 39.3167C20.4295 39.2758 20.2204 39.3247 20.2204 39.3247L19.6695 39.6111L20.1992 39.3247C20.1992 39.3247 20.1502 39.115 20.0721 39.0939C19.9221 39.0535 19.6765 39.3645 19.6765 39.3645L19.9732 39.1496C19.9732 39.1496 19.7778 39.2002 19.6977 39.1496C19.6544 39.1222 19.6674 39.0232 19.62 39.0063C19.5637 38.9863 19.5106 39.1152 19.4576 39.0859C19.3725 39.039 19.4681 38.8308 19.387 38.7756C19.3 38.7164 19.0903 38.8551 19.0903 38.8551L18.9067 39.07L19.0762 38.8711C19.0762 38.8711 18.9658 38.5678 18.8432 38.5368C18.6891 38.4979 18.5615 38.6979 18.4194 38.7756C18.1455 38.9252 17.5931 39.2133 17.5931 39.2133L18.4194 38.7756C18.4194 38.7756 18.2779 38.6904 18.2004 38.6721C18.0645 38.6399 17.9181 38.6242 17.7838 38.6642C17.5511 38.7334 17.1622 39.078 17.1622 39.078L17.6354 38.7994C17.6354 38.7994 17.5118 38.6883 17.4377 38.6642C17.3088 38.6221 17.1618 38.6063 17.0351 38.6562C16.9095 38.7057 16.5779 39.023 16.4883 39.1366" stroke="black"/>
<path d="M15.3749 29.2098C15.8565 30.0513 16.064 36.5641 16.5735 38.798C17.0198 39.4011 17.8133 39.7268 18.4213 40.0022C18.684 40.086 18.9781 39.8968 19.2103 40.0585C19.3201 40.1774 19.3339 40.516 19.2303 40.6325C18.4608 40.4551 15.9504 40.776 15.6146 40.3736C15.6143 39.8698 15.6177 39.3169 15.6072 38.7185C15.6039 38.5285 15.4961 38.3678 15.4999 38.1553C15.5545 35.0948 15.1226 30.3699 15.3749 29.2094L15.3749 29.2098Z" fill="white" stroke="black"/>
<path d="M16.131 35.7524C15.9097 35.8851 15.691 35.9709 15.4883 35.7683L15.4724 35.7703C15.4982 36.6037 15.5129 37.4146 15.5007 38.1338L15.5166 38.1318C16.0357 38.2817 16.1852 38.0152 16.3994 37.8214L16.4012 37.8194C16.3161 37.2227 16.2384 36.5145 16.1663 35.7624L16.131 35.7524L16.131 35.7524Z" fill="#9866A1"/>
<path d="M17.6834 39.6575L17.6781 39.6595C17.6558 40.1519 17.0879 40.3476 16.5339 40.5508L16.571 40.5806C17.4692 40.6136 18.7243 40.5158 19.2301 40.6324C19.3336 40.5159 19.3204 40.1783 19.2107 40.0594C18.9784 39.8977 18.6841 40.0855 18.4214 40.0017C18.1923 39.8979 17.9366 39.7877 17.6834 39.6575L17.6834 39.6575Z" fill="#9866A1"/>
<path d="M15.5748 31.3056C15.487 31.3032 15.4014 31.3505 15.3188 31.4309L15.3118 31.4687C15.3281 32.0792 15.3544 32.7653 15.3842 33.478C15.6414 33.2721 15.806 33.304 15.9474 33.3965L15.9545 33.3905C15.8925 32.6822 15.8319 31.9966 15.7673 31.3911C15.701 31.3346 15.6377 31.3073 15.5749 31.3056L15.5748 31.3056Z" fill="#9866A1"/>
<path d="M15.7566 36.3241C15.7422 36.3951 15.5946 36.2992 15.5659 36.3639C15.565 36.3659 15.8453 36.848 15.8696 36.8891C15.899 36.9387 15.7514 38.0848 16.1168 37.9475C16.1701 37.9275 16.229 37.814 16.251 37.7645C16.3051 37.6425 16.0956 37.4796 16.0956 37.3348C16.0956 37.0719 16.2043 36.5683 16.1239 36.3082C15.958 35.7715 15.8059 36.0819 15.7566 36.3241Z" fill="#AF8BAF"/>
<path d="M15.3749 29.2098C15.8565 30.0513 16.064 36.5641 16.5735 38.798C17.0198 39.4011 17.8133 39.7268 18.4213 40.0022C18.684 40.086 18.9781 39.8968 19.2103 40.0585C19.3201 40.1774 19.3339 40.516 19.2303 40.6325C18.4608 40.4551 15.9504 40.776 15.6146 40.3736C15.6143 39.8698 15.6177 39.3169 15.6072 38.7185C15.6039 38.5285 15.4961 38.3678 15.4999 38.1553C15.5545 35.0948 15.1226 30.3699 15.3749 29.2094L15.3749 29.2098Z" stroke="black"/>
<path d="M8.91298 36.0517C8.76992 36.2177 8.74129 36.6873 8.94012 36.7451C9.1222 36.7979 9.04672 36.1873 9.23425 36.2027C9.41653 36.2177 9.2664 36.7767 9.4491 36.7711C9.5793 36.7671 9.45241 36.3523 9.58259 36.3573C9.71482 36.3624 9.56196 36.7629 9.69253 36.787C9.81966 36.8105 9.78459 36.4108 9.91241 36.4289C10.0245 36.4448 9.94345 36.7055 10.0302 36.787C10.1093 36.8613 10.2544 36.9206 10.3343 36.8475C10.3983 36.7889 10.2508 36.576 10.3422 36.569C10.4297 36.5622 10.3333 36.763 10.3893 36.8316C10.4358 36.8885 10.525 36.9362 10.5935 36.9111C10.6844 36.8778 10.6622 36.6391 10.7577 36.646C10.854 36.6529 10.7966 36.9177 10.8919 36.935C11.0062 36.9558 11.0265 36.6498 11.1418 36.6628C11.2162 36.6713 11.1951 36.8571 11.2688 36.8713C11.3652 36.8899 11.4087 36.6633 11.5058 36.6765C11.5932 36.6884 11.5879 36.8987 11.6758 36.9041C11.7785 36.9105 11.7966 36.6726 11.8992 36.6643C11.9758 36.6581 12.0104 36.823 12.0869 36.8147C12.1659 36.8062 12.1718 36.623 12.2511 36.6204C12.3158 36.6182 12.3285 36.7669 12.3931 36.7696C12.4827 36.7732 12.5132 36.5898 12.6024 36.5795C12.6919 36.5691 12.7546 36.7387 12.8428 36.7182C12.9477 36.6937 12.9401 36.442 13.0473 36.4386C13.1516 36.4354 13.1562 36.7152 13.2595 36.6981C13.3748 36.679 13.2975 36.3655 13.4125 36.344C13.4991 36.3278 13.5106 36.5633 13.5981 36.5547C13.6838 36.5463 13.6604 36.3301 13.7455 36.3162C13.838 36.3011 13.871 36.5192 13.9643 36.5136C14.0842 36.5063 14.0998 36.2332 14.2197 36.2275C14.3098 36.2231 14.3369 36.4271 14.427 36.4231C14.5252 36.4187 14.5408 36.2107 14.6374 36.1903C14.7285 36.171 14.7176 36.3709 14.7931 36.3765C14.8801 36.3829 14.8761 36.1727 14.9958 36.1901C15.0638 36.2 15.1117 36.4514 15.1921 36.4035C15.2533 36.367 15.1029 36.2217 15.1568 36.1727C15.2608 36.0783 15.4479 36.4625 15.5281 36.3421C15.5587 36.2962 15.4198 36.2622 15.4335 36.2069C15.4505 36.1381 15.5949 36.2002 15.6114 36.1313C15.6339 36.037 15.4952 35.9855 15.4469 35.9045C15.4162 35.8531 15.417 35.7694 15.368 35.7413C14.9865 35.5232 14.5241 35.9141 14.0958 35.9323C13.8469 35.9429 13.5766 35.78 13.3498 35.8846C13.2598 35.9261 13.2583 36.0797 13.1692 36.1233C11.8916 36.7488 9.9016 34.9049 8.91305 36.0517L8.91298 36.0517Z" fill="#D3AFD5" stroke="black" stroke-width="1.0544"/>
<path d="M8.45142 28.3503C11.9903 26.9058 13.5827 28.2264 15.4632 29.1381C15.1886 31.3773 15.3563 33.6547 15.5631 35.9354C14.7659 36.2039 13.8954 36.0814 13.0645 36.3393C11.7888 36.7354 10.4069 36.781 8.7712 36.1605L8.45142 28.3503Z" fill="#FAFCF8" stroke="black"/>
<path d="M9.81609 36.0714C10.3835 36.5991 11.5008 35.6015 12.0196 35.6258C12.5385 35.65 12.6568 36.0106 12.8672 35.8804C13.0775 35.7503 12.7571 35.5894 13.0367 35.2756C13.3163 34.9618 14.4768 35.1675 14.7599 34.6708C15.0431 34.1741 14.4948 33.5665 14.5904 33.1747C14.6861 32.7829 15.0262 32.8177 15.099 32.4426C15.1717 32.0675 14.8054 31.5175 14.8164 31.1057C14.8275 30.6939 15.3989 30.908 15.099 30.0552C14.799 29.2025 12.5685 28.1476 11.7089 27.8589C10.8493 27.5701 10.555 27.3963 10.2398 27.7634C9.92468 28.1304 10.4828 28.7722 10.3528 29.164C10.2229 29.5557 9.78838 29.5073 9.64658 29.9279C9.50479 30.3486 9.86475 31.0701 9.75959 31.5195C9.65443 31.9689 9.17265 32.0884 9.16632 32.5063C9.15999 32.9242 9.63006 33.0182 9.78784 33.6204C9.94562 34.2225 9.24872 35.5437 9.81609 36.0714Z" fill="#DAD6F9"/>
<path d="M9.78533 27.2107C10.0961 29.1789 11.7555 30.81 11.8089 32.7202L9.07212 33.7781C8.18573 32.0132 7.92746 29.5089 8.04538 27.3774L9.78533 27.2107Z" fill="#F9F9F9" stroke="black"/>
<path d="M9.36505 30.1245C9.53977 29.8839 10.0827 30.5487 10.1841 30.2596C10.2913 29.9537 9.41347 30.0206 9.46494 29.6969C9.50253 29.4604 10.0497 29.7539 10.0842 29.5168C10.1394 29.1369 9.16594 29.2657 9.22521 28.8866C9.2762 28.5604 10.0598 28.9916 10.0842 28.6615C10.1201 28.1755 9.31691 28.0578 8.88564 28.0988C8.42577 28.2085 8.58068 28.2227 8.50609 28.3689C8.23043 28.9091 8.44572 29.614 8.44616 30.2371C8.44672 31.0329 9.53844 31.7006 9.57133 32.4957C9.5881 32.901 9.21803 33.0623 9.55135 33.216C10.0182 33.4311 10.2335 33.0877 10.3704 32.5407C10.4287 32.3076 10.3992 32.0949 10.3304 31.8654C10.23 31.5301 9.00769 31.2942 9.18527 31.0024C9.27188 30.8601 9.5566 31.1435 9.64472 31.0024C9.80348 30.7481 9.19033 30.3652 9.36505 30.1245L9.36505 30.1245Z" fill="#E0DFFE"/>
<path d="M13.3972 27.7872C12.8619 29.3809 12.4224 31.0127 12.2954 32.7689L15.297 33.2941C15.2773 31.5434 15.4108 29.7926 15.2335 28.0419L13.3972 27.7872Z" fill="#FEFEFE" stroke="black"/>
<path d="M13.5382 29.403C13.6347 29.3028 13.7988 29.3642 13.9267 29.3314C14.0248 29.3063 14.1221 29.1961 14.2163 29.2359C14.3104 29.2757 14.28 29.5004 14.3787 29.5224C14.4832 29.5456 14.5369 29.2857 14.64 29.3155C14.7746 29.3544 14.7089 29.649 14.8236 29.7372C14.8939 29.7913 15.0655 29.8559 15.0779 29.7611C15.1207 29.4329 15.4215 28.2338 15.1344 28.3924C14.7286 28.6165 13.6736 27.8001 13.5806 28.1457C13.4572 28.6047 12.3832 30.9177 12.4859 32.3554C12.5087 32.6746 14.0786 32.5586 14.8802 33.0079C15.2703 33.2267 15.2538 31.6817 14.8378 31.5357C14.6561 31.472 14.6805 32.1162 14.4988 32.053C14.2557 31.9684 14.7178 31.2611 14.4705 31.1935C14.2236 31.126 14.3486 31.9741 14.0962 31.9416C13.8719 31.9127 14.1282 31.2512 13.9055 31.2095C13.6156 31.1552 13.6653 32.1563 13.397 32.0212C13.0904 31.8667 13.9235 31.0838 13.623 30.915C13.3478 30.7605 13.3037 31.868 13.0297 31.7108C12.4029 31.3511 13.0211 29.9403 13.5382 29.403Z" fill="#E6E9EE"/>
<path d="M11.5074 27.8863C11.4231 27.8213 11.2137 27.6799 11.1885 27.8742C11.2773 28.0177 11.1345 28.1364 11.0131 28.0813C10.8323 28.11 10.9033 28.3366 10.9154 28.4682C10.8832 28.5813 10.7685 28.674 10.8931 28.7745C10.9994 28.8848 10.9217 29.0047 10.8362 29.0807C10.8109 29.2501 11.1143 29.218 11.0593 29.4136C10.9801 29.5573 11.0877 29.716 11.226 29.7185C11.3559 29.7022 11.4732 29.7811 11.4727 29.9377C11.5525 30.118 11.6806 29.8791 11.7925 29.9311C11.9072 29.9896 11.9844 30.2245 12.134 30.0768C12.2268 29.9872 12.3415 29.9029 12.4696 29.9501C12.6095 30.0098 12.6427 29.8518 12.67 29.7408C12.7611 29.6517 12.8563 29.4957 12.9822 29.5882C13.1256 29.662 13.2765 29.4528 13.1179 29.3483C13.0292 29.2942 12.9725 29.1194 13.1147 29.1075C13.2491 29.0323 13.1467 28.864 13.1648 28.7662C13.2335 28.686 13.4615 28.6035 13.3328 28.4678C13.2009 28.425 13.052 28.3348 13.0976 28.1527C13.0901 27.9972 12.9187 28.0292 12.9024 27.8776C12.858 27.7406 12.7343 27.7477 12.655 27.8271C12.4997 27.8334 12.5581 27.4842 12.3656 27.5624C12.2529 27.6324 12.1031 27.7282 12.0097 27.5701C11.9233 27.4834 11.7565 27.5447 11.786 27.6915C11.6465 27.7429 11.5593 27.5021 11.4177 27.5725C11.2667 27.6775 11.4996 27.7757 11.5074 27.8863L11.5074 27.8863Z" fill="#EFD5F3" stroke="black"/>
<path d="M11.521 28.5707C11.6738 28.6259 12.1278 28.4501 12.0224 28.2126C12.0031 28.169 11.9032 28.1765 11.8953 28.141C11.8888 28.1117 11.9438 28.0211 11.9306 28.0137C11.845 27.9654 11.7645 28.0787 11.7046 28.1012C11.6059 28.1383 11.5538 28.0173 11.4574 28.0535C11.3348 28.0995 11.4104 28.2019 11.3586 28.2604C11.2952 28.3318 11.1616 28.2983 11.1114 28.4116C10.9976 28.668 11.0484 29.24 11.2173 29.4938C11.2507 29.544 11.3536 29.492 11.4009 29.5098C11.5597 29.5694 11.6246 29.737 11.7823 29.7962C11.824 29.8119 12.0039 29.8107 12.0436 29.7883C12.0825 29.7664 12.0307 29.6296 12.0719 29.645C12.2037 29.6945 12.261 29.7703 12.4038 29.7167C12.6139 29.6378 12.3318 29.3777 12.3403 29.3745C12.5465 29.297 12.9123 29.3793 12.9123 29.0005C12.9123 28.9182 12.7804 28.977 12.8205 28.8413C12.8667 28.6851 13.0772 28.6876 12.9618 28.4275C12.9032 28.2954 12.7965 28.3633 12.7217 28.4195C12.6118 28.502 12.8606 28.6467 12.7711 28.714C12.705 28.7636 12.5908 28.7101 12.5168 28.7378C12.4262 28.7719 12.5274 28.9249 12.4815 28.9766C12.417 29.0492 12.2869 28.9589 12.2131 29.0005C12.1438 29.0395 12.2012 29.1235 12.1425 29.1676C11.8255 29.4057 11.8082 28.8877 11.6976 28.8254C11.6349 28.7901 11.5377 28.9079 11.4927 28.8572C11.445 28.8034 11.506 28.6215 11.521 28.5707Z" fill="#D2B4D5"/>
<path d="M12.6977 34.2729C12.6086 34.4405 12.665 34.6461 12.8655 34.6549C13.0544 34.6632 13.1155 34.3207 13.1155 34.3207C13.1155 34.3207 13.0389 34.6666 13.2307 34.7106C13.615 34.7988 13.6219 34.3604 13.6219 34.3604C13.6219 34.3604 13.5789 34.7668 13.8519 34.814C14.0743 34.8525 14.1457 34.3684 14.1457 34.3684C14.1457 34.3684 14.0566 34.7695 14.2543 34.8379C14.4861 34.9182 14.5743 34.6464 14.5815 34.4161C14.5853 34.2962 14.4765 34.1717 14.3593 34.1217C13.8103 33.8875 12.9655 33.7688 12.6976 34.2729H12.6977Z" fill="#FFEAD5" stroke="black" stroke-width="1.0999"/>
<path d="M12.203 32.801C12.1532 32.5663 12.4159 32.7255 12.5044 32.7225C12.6277 32.6441 12.6351 32.3806 12.8083 32.4061C12.9273 32.5691 13.0982 32.2865 13.2141 32.4494C13.3522 32.5 13.5916 32.4042 13.6002 32.6555C13.674 32.5173 13.909 32.3931 13.9916 32.6016C13.9928 32.696 14.0304 32.7631 14.0635 32.6307C14.1228 32.4305 14.411 32.4619 14.3261 32.6965C14.2951 32.7889 14.3418 32.9126 14.4047 32.7696C14.4743 32.6519 14.7174 32.6611 14.67 32.8462C14.7309 32.6587 15.0274 32.7669 14.8968 32.9438C14.9842 32.8589 15.1127 32.8524 15.1263 33.0128C15.1083 33.1007 15.0711 33.2336 15.2001 33.1967C15.3223 33.2299 15.4424 33.3808 15.3964 33.5273C15.3439 33.6722 15.094 33.5616 15.0921 33.7359C15.1479 33.8112 15.4214 33.8871 15.2575 34.0072C15.0843 34.0438 15.4256 34.0437 15.3683 34.1841C15.3973 34.3662 15.1659 34.3375 15.1192 34.4083C15.2105 34.5024 15.2199 34.6714 15.0669 34.6869C14.9782 34.693 14.8759 34.647 14.8508 34.7754C14.755 34.8534 14.5206 34.8006 14.5698 34.6317C14.4705 34.6784 14.2425 34.8609 14.226 34.6375C14.2601 34.4319 14.1139 34.7031 14.0261 34.674C13.9277 34.7181 13.7992 34.5607 13.8903 34.4813C13.8175 34.671 13.5124 34.501 13.5087 34.387C13.4435 34.481 13.3044 34.6225 13.1954 34.5322C13.1307 34.484 13.1035 34.3075 13.0527 34.457C12.9695 34.6073 12.7516 34.4443 12.8043 34.3352C12.7911 34.4807 12.492 34.5905 12.4664 34.3988C12.4485 34.2489 12.2024 34.4728 12.1695 34.2704C12.0865 34.1041 12.3682 34.0121 12.2314 33.8704C12.2613 33.7543 12.4068 33.5478 12.2069 33.5466C12.064 33.4801 12.1584 33.3252 12.2741 33.3146C12.3029 33.1788 12.018 33.0442 12.2248 32.927C12.2352 32.8839 12.221 32.8387 12.203 32.801H12.203Z" fill="#D3AFD5" stroke="black"/>
<path d="M13.2342 32.8086C12.9191 32.8323 13.1253 33.112 13.0788 33.1906C13.0103 33.3064 12.8174 33.3495 12.874 33.5407C12.9215 33.7011 13.1124 33.5636 13.213 33.6203C13.3111 33.6756 13.2737 33.8685 13.439 33.9307C13.5896 33.9872 13.7294 33.909 13.8345 33.8272C14.2075 33.5371 14.5641 34.3339 14.8798 34.1296C14.9611 34.077 14.3302 33.6195 14.7598 33.3577C14.9254 33.2567 14.7347 33.1269 14.5408 33.1262C14.3982 33.1257 14.2452 33.2327 14.2301 33.1985C14.178 33.0813 14.2568 32.9271 14.1312 32.8563C14.0251 32.7966 13.9012 33.0109 13.8204 33.0473C13.6289 33.1337 13.4179 32.8603 13.2342 32.8086Z" fill="#EDE4F7"/>
<path d="M11.5739 34.249C11.6629 34.4166 11.6066 34.6222 11.406 34.631C11.2171 34.6392 11.1561 34.2967 11.1561 34.2967C11.1561 34.2967 11.2327 34.6426 11.0409 34.6867C10.6565 34.7749 10.6497 34.3365 10.6497 34.3365C10.6497 34.3365 10.6927 34.7429 10.4196 34.7901C10.1973 34.8286 10.1258 34.3445 10.1258 34.3445C10.1258 34.3445 10.215 34.7456 10.0173 34.814C9.78543 34.8942 9.69728 34.6225 9.69004 34.3922C9.68626 34.2723 9.7951 34.1477 9.9122 34.0978C10.4613 33.8635 11.306 33.7449 11.5739 34.249H11.5739Z" fill="#FFEAD5" stroke="black" stroke-width="1.0999"/>
<path d="M8.90898 33.2323C8.80745 33.0199 9.09753 33.0979 9.18248 33.0694C9.28379 32.9581 9.23103 32.7012 9.40423 32.6759C9.55632 32.7991 9.65722 32.4766 9.8063 32.6005C9.95137 32.6096 10.161 32.4479 10.2264 32.6883C10.2663 32.5334 10.4652 32.3455 10.5925 32.5232C10.6151 32.614 10.6667 32.668 10.6686 32.5305C10.6804 32.3199 10.9661 32.267 10.9374 32.5184C10.9285 32.6166 11.0017 32.7226 11.03 32.5663C11.0705 32.4325 11.3076 32.3711 11.3038 32.5637C11.3201 32.3649 11.6313 32.3839 11.5453 32.5926C11.6105 32.4853 11.7331 32.4419 11.7828 32.593C11.7854 32.6832 11.7796 32.8224 11.8959 32.7494C12.0216 32.7462 12.1721 32.8575 12.1609 33.0123C12.1431 33.1675 11.8764 33.1328 11.9142 33.3019C11.9853 33.3586 12.2669 33.3529 12.1358 33.5163C11.9767 33.6017 12.3066 33.5031 12.2831 33.6554C12.3526 33.823 12.1224 33.8621 12.0933 33.944C12.203 34.0085 12.2505 34.1692 12.1061 34.2284C12.0218 34.2599 11.9125 34.245 11.9174 34.3764C11.8425 34.4794 11.604 34.496 11.613 34.3185C11.5277 34.3924 11.3489 34.6346 11.2821 34.4234C11.2683 34.2148 11.1887 34.5192 11.0971 34.5164C11.0121 34.5874 10.8521 34.4724 10.9221 34.3694C10.8949 34.5737 10.5613 34.4975 10.5318 34.3884C10.4901 34.498 10.3879 34.6751 10.2619 34.6192C10.1884 34.5913 10.122 34.4285 10.1069 34.5877C10.0607 34.757 9.81296 34.6623 9.83915 34.5417C9.85944 34.6861 9.5953 34.8787 9.52696 34.7007C9.47555 34.5611 9.28855 34.8485 9.21074 34.6624C9.09273 34.5256 9.34409 34.3554 9.17967 34.2579C9.18211 34.1369 9.27582 33.8953 9.08227 33.9519C8.92911 33.9289 8.98508 33.7519 9.09453 33.7083C9.09148 33.5686 8.78541 33.5208 8.95873 33.3478C8.95901 33.3032 8.93492 33.2636 8.90899 33.2323L8.90898 33.2323Z" fill="#D3AFD5" stroke="black"/>
<path d="M9.97323 34.2751C9.65812 34.2513 9.86436 33.9717 9.81786 33.8931C9.74931 33.7772 9.55646 33.7342 9.61304 33.5429C9.66048 33.3826 9.85144 33.52 9.95205 33.4634C10.0501 33.4081 10.0127 33.2151 10.1781 33.153C10.3286 33.0965 10.4684 33.1747 10.5736 33.2565C10.9465 33.5465 11.3031 32.7497 11.6188 32.9541C11.7001 33.0067 11.0692 33.4641 11.4988 33.726C11.6644 33.8269 11.4738 33.9568 11.2798 33.9574C11.1372 33.9579 10.9842 33.851 10.9691 33.8851C10.9171 34.0023 10.9958 34.1565 10.8702 34.2273C10.7641 34.2871 10.6402 34.0727 10.5594 34.0363C10.3679 33.95 10.1569 34.2233 9.97323 34.2751Z" fill="#EDE4F7"/>
<path d="M7.63732 25.9994C7.29213 25.946 6.94597 25.822 6.64855 25.6175C4.23007 23.7537 6.8077 21.8728 7.80682 19.9833C9.02301 17.4552 10.1811 16.0781 12.7507 16.4181C13.4196 16.5018 14.0073 16.7095 14.5446 17.1662C15.2327 17.7511 15.7529 18.6551 16.1125 19.5376C16.4957 20.4781 16.5301 21.5585 16.847 22.5298C16.9473 22.8372 17.0881 23.126 17.2143 23.4211C17.2783 23.5707 17.4002 23.7012 17.412 23.8667C17.4247 24.044 17.3427 24.2177 17.2708 24.376C17.1849 24.5649 17.0278 24.7028 16.9318 24.8853C16.8738 24.9956 16.7932 25.2967 16.7058 25.3787C16.4969 25.5747 16.2682 25.4122 15.9995 25.4583C13.2394 25.9321 10.4033 26.4274 7.63732 25.9994Z" fill="#CFCCF9" stroke="black"/>
<path d="M15.9327 21.7671L15.5532 23.8603L14.6343 23.7928L15.6131 21.1818L15.9327 21.7671Z" fill="#E9D0BC" stroke="black"/>
<path d="M15.613 25.0305C15.2479 25.8507 7.66328 26.5625 6.94345 26.1334C6.63062 25.9469 6.96343 25.098 6.96343 25.098L6.34417 25.3456C6.34417 25.3456 6.90204 24.9475 6.80363 24.6929C6.70228 24.4307 6.04453 24.6254 6.04453 24.6254L6.48401 23.8826C6.48401 23.8826 6.09164 23.024 6.04453 22.5546C5.98191 21.9304 6.09843 21.2862 6.26427 20.6864C6.4689 19.9464 6.73967 19.1884 7.20315 18.6156C7.52177 18.2219 10.212 15.9785 10.639 16.2072C12.1973 17.0417 14.276 22.4061 16.1327 24.4096C16.3203 24.6121 15.3876 24.324 15.4189 24.5567C15.4513 24.7973 15.706 24.8217 15.6131 25.0303L15.613 25.0305Z" fill="#583F3A" stroke="black"/>
<path d="M15.4001 23.8527C15.5621 22.757 15.2041 17.254 12.1736 17.2897C9.96509 17.3158 8.31548 19.7149 8.01274 21.6853C7.63078 24.1712 9.01123 26.7103 11.7984 26.7476C13.1169 26.7653 15.3311 24.6295 15.4001 23.8525V23.8527Z" fill="#FDEAD9" stroke="black"/>
<path opacity="0.4824" d="M10.1596 25.832C10.1596 25.832 7.99767 21.5956 9.22076 20.34C9.9077 19.6348 11.1543 21.8463 11.8976 21.2178C12.2544 20.9161 11.4871 19.9069 11.8976 19.7098C12.5344 19.4039 12.7282 21.537 13.3958 21.3304C13.9021 21.1737 13.3391 19.8689 13.8153 19.6198C14.4071 19.3101 15.1516 21.0838 15.5932 20.5426C16.2148 19.7808 15.0989 18.1923 14.2348 17.8416C12.0695 16.963 8.80432 18.2866 7.78233 20.6102C7.35387 21.5844 8.14519 22.7807 8.60137 23.7388C8.98343 24.5414 10.1595 25.8321 10.1595 25.8321L10.1596 25.832Z" fill="#E4C09E"/>
<path d="M8.2587 25.0763C7.37485 24.991 6.49089 22.8674 6.90267 22.2751C7.3382 22.0884 7.47955 22.6715 7.65131 22.9595C7.73628 23.0973 7.82861 23.2297 7.90557 23.3733C7.9687 23.4911 8.02098 23.616 8.07507 23.7394C8.1136 24.1205 8.70636 25.0616 8.2587 25.0763Z" fill="#E9D0BC" stroke="black"/>
<path d="M10.1854 17.7004C10.1854 17.7004 9.97558 20.8998 12.5699 21.3588C11.9315 20.0404 11.7188 19.3575 11.7825 18.9993C12.096 19.9694 12.6446 20.4097 13.2959 20.6187L12.8705 19.7052C14.3031 21.0967 15.4514 21.6552 16.3123 22.5319L16.2314 20.19C15.8808 17.6673 13.509 15.9584 11.5238 16.0079C9.76909 15.9834 7.55334 17.8099 7.26693 21.1573C7.18065 22.1658 7.42485 23.4049 7.98224 23.7024L8.74133 19.7634L8.20198 22.9596C9.26132 21.289 10.4946 17.2179 10.1855 17.7004L10.1854 17.7004Z" fill="#583F3A" stroke="black"/>
<g opacity="0.6275">
<path opacity="0.6275" d="M11.6911 17.5322C12.0417 17.5883 13.0981 18.08 13.4003 18.6861C13.208 17.8395 12.6878 17.5675 12.1643 17.3015C14.9482 17.3137 15.9096 19.9468 16.1194 22.108C15.0497 20.7715 13.8896 19.5137 12.5386 18.8851C12.3408 19.3307 12.702 19.7764 12.8847 20.222C12.4263 19.7499 11.9723 19.272 11.6982 18.5508C11.371 19.4892 11.6627 20.1641 12.1996 21.0178C10.737 19.9049 10.8232 19.2907 10.8648 17.4288C11.1881 18.6998 11.752 17.9905 12.3621 18.9328C12.3344 18.1121 11.963 17.9249 11.6911 17.5322Z" fill="#6B5045"/>
<path opacity="0.6275" d="M9.96788 17.811C9.85164 19.2196 9.06714 20.6281 8.5836 22.0367C8.76252 21.0233 9.48711 19.993 9.24749 18.8853C9.10255 19.9334 8.52038 20.8583 7.93384 21.782C8.45753 20.7058 8.78446 17.9189 9.96788 17.811Z" fill="#6B5045"/>
</g>
<path d="M8.65324 23.7611L8.78945 24.0566C9.85393 23.8704 10.3535 23.7102 10.6005 23.3973C11.2136 19.8192 7.99764 20.8064 8.38591 23.0392" fill="white"/>
<path d="M8.65324 23.7611L8.78945 24.0566C9.85393 23.8704 10.3535 23.7102 10.6005 23.3973C11.2136 19.8192 7.99764 20.8064 8.38591 23.0392" stroke="black"/>
<path d="M9.72847 21.4869C9.17242 21.6125 8.89344 22.2598 8.96418 22.8938C9.00541 23.2635 9.13292 23.7576 9.45975 23.8141C9.79786 23.8725 10.3346 23.7722 10.5598 23.3759C10.7266 23.0823 10.6544 22.378 10.5174 22.0235C10.3768 21.6595 10.074 21.409 9.72851 21.487L9.72847 21.4869Z" fill="#385525" stroke="black"/>
<path opacity="0.2667" d="M9.7643 22.0326C9.46909 22.0993 9.32097 22.4429 9.35852 22.7795C9.38041 22.9758 9.44811 23.2381 9.62162 23.2681C9.80113 23.2991 10.0861 23.2458 10.2056 23.0354C10.2942 22.8796 10.2558 22.5056 10.1831 22.3174C10.1085 22.1242 9.94771 21.9912 9.7643 22.0326L9.7643 22.0326Z" fill="black"/>
<g filter="url(#filter0_f)">
<path opacity="0.7882" d="M9.43547 21.7951C9.20876 22.1337 10.2593 22.7213 10.4136 22.5253C10.69 21.9427 9.83923 21.2896 9.43547 21.7951Z" fill="white"/>
<path opacity="0.5882" d="M9.46574 22.4253C9.35193 22.679 9.09579 22.3395 9.14612 22.2453C9.1987 22.0984 9.50082 22.246 9.46574 22.4253Z" fill="white"/>
<path opacity="0.5882" d="M10.539 22.6953C10.9812 23.2456 9.29568 24.5061 9.11696 23.0849C9.10419 22.9833 9.2574 22.9368 9.32599 23.055C9.54813 23.4379 10.092 23.5811 10.4092 22.7266C10.4259 22.6815 10.4956 22.7156 10.5391 22.6953L10.539 22.6953Z" fill="white"/>
</g>
<path d="M10.564 21.4609C9.84516 19.9428 7.97734 21.345 8.23459 22.5734C8.49594 21.5416 9.4679 20.7806 10.564 21.4609Z" fill="black"/>
<path d="M15.01 23.2836L15.015 23.5553C14.0142 23.4587 13.5037 23.6352 13.1333 23.4609C12.2372 19.7327 15.405 20.2699 15.0231 22.506" fill="white"/>
<path d="M13.9489 21.1687C14.505 21.2942 14.784 21.9416 14.7132 22.5756C14.672 22.9452 14.4386 23.4354 14.1117 23.4918C13.7736 23.5502 13.3428 23.4539 13.1176 23.0576C12.9508 22.764 13.023 22.0597 13.16 21.7052C13.3006 21.3412 13.6034 21.0907 13.9489 21.1687L13.9489 21.1687Z" fill="#385525" stroke="black"/>
<path opacity="0.2667" d="M13.8703 21.7703C14.1655 21.8369 14.3136 22.1806 14.2761 22.5172C14.2542 22.7134 14.1865 22.9758 14.013 23.0057C13.8335 23.0367 13.5485 22.9835 13.429 22.7731C13.3404 22.6172 13.3788 22.2433 13.4515 22.0551C13.5261 21.8619 13.6869 21.7289 13.8703 21.7703L13.8703 21.7703Z" fill="black"/>
<g opacity="0.7882" filter="url(#filter1_f)">
<path d="M14.4591 22.1618C14.5755 22.357 13.4428 21.739 13.4614 21.5341C13.7606 20.9862 14.5561 21.5516 14.4591 22.1618Z" fill="white"/>
</g>
<g opacity="0.5882" filter="url(#filter2_f)">
<path d="M13.6452 21.9797C13.5314 22.2334 13.2752 21.8939 13.3256 21.7997C13.3781 21.6527 13.6803 21.8004 13.6452 21.9797Z" fill="white"/>
</g>
<g opacity="0.5882" filter="url(#filter3_f)">
<path d="M13.209 22.4725C12.7289 22.974 14.1501 24.0454 14.4545 22.8541C14.4797 22.7556 14.3419 22.734 14.2455 22.8243C13.9015 23.1462 13.6181 23.3393 13.3389 22.5038C13.3236 22.458 13.2435 22.4365 13.209 22.4725L13.209 22.4725Z" fill="white"/>
</g>
<path d="M13.0986 21.2578C13.6208 19.5036 15.4244 21.1467 15.0676 22.4381C14.998 21.2854 14.3192 20.2015 13.0986 21.2578Z" fill="black"/>
<path d="M13.1318 23.4612C13.7143 23.6165 14.2636 23.5265 14.9752 23.5965L15.0034 23.3259" stroke="black"/>
<g opacity="0.3882">
<path opacity="0.3882" d="M13.4146 19.0207C13.8236 19.6175 14.1597 19.8856 14.4951 20.1507L14.2691 19.4982C14.6364 19.6122 14.7035 19.7263 14.8624 19.8403C14.6026 19.3527 14.3529 18.7961 14.0149 18.4C14.0458 18.6865 14.1069 18.9787 14.3609 19.3072C14.1363 19.2889 13.9821 19.0719 13.8312 18.8456C14.088 19.2383 14.0941 19.4051 14.1773 19.6414C13.9691 19.3048 13.6972 19.1476 13.4146 19.0207Z" fill="white"/>
<path opacity="0.3882" d="M14.8271 18.901L15.3074 19.6172L15.2085 19.8798L14.8271 18.901Z" fill="white"/>
</g>
<path d="M13.2168 19.8878C13.6408 19.1272 14.5683 18.5624 15.2932 20.1902" stroke="black"/>
<path d="M7.948 20.8587C8.13633 19.6597 9.24809 19.104 10.5471 19.7446" stroke="black"/>
<path d="M7.02232 22.4266L6.86694 22.729C7.14492 23.8219 7.49727 23.8256 7.82746 24.1535C7.44708 23.7199 7.10532 23.2373 7.02232 22.4266Z" fill="#F3D0BD"/>
<path d="M7.10731 23.1028C6.93176 22.8144 6.96295 22.6246 7.27681 22.5696" stroke="black"/>
<path d="M7.72192 24.3124C8.04115 24.5732 8.31287 24.7448 8.13156 24.0657" stroke="black"/>
<path d="M10.1606 15.15C9.79473 15.3196 9.35628 15.1656 8.98112 15.3071C7.87979 15.8617 6.34081 17.4392 5.86473 18.548C6.01498 20.6684 5.24141 22.7986 5.10547 24.3115C5.4167 25.2377 6.27245 25.9761 7.12364 26.2233C9.37171 26.8762 11.9962 26.7143 14.2535 25.7518C12.0526 26.1004 9.82304 26.3386 7.6378 26.0005C7.29262 25.9471 6.94645 25.8231 6.64903 25.6185C4.23055 23.7548 6.80818 21.8739 7.8073 19.9843C9.02349 17.4562 10.1816 16.0791 12.7512 16.4192C13.4201 16.5029 14.0078 16.7105 14.5451 17.1673C15.2331 17.7521 15.7534 18.6561 16.113 19.5387C16.4962 20.4791 16.5306 21.5596 16.8475 22.5309C16.8957 22.6785 16.9528 22.8208 17.0135 22.9626C17.0605 21.9417 16.9327 20.8145 16.6921 19.853C16.4669 18.9529 16.2444 18.081 15.774 17.3104C15.0239 16.2449 13.8532 15.1554 12.7176 15.1041C12.435 15.0959 11.8738 15.5718 11.7735 15.274C11.7206 15.1172 12.3161 15.2944 12.2974 15.128C12.2337 14.5644 11.2775 15.1692 10.9996 15.1041C10.7375 15.0428 11.6059 14.8571 11.6126 14.7044C11.6331 14.234 10.4593 15.1499 10.4593 15.1499C10.3069 15.0736 10.9451 14.6602 10.9584 14.5423C10.6443 14.2969 10.4351 15.0038 10.1609 15.1499L10.1606 15.15Z" fill="#EAE8F5" stroke="black"/>
<path d="M9.85647 15.3766C9.38458 15.387 8.90397 15.5064 8.54107 15.8143C8.20121 16.1026 7.95944 16.6084 7.9478 17.0875C7.9379 17.4957 8.32882 17.8012 8.39981 18.2016C8.4249 18.3432 8.46063 18.5067 8.49869 18.6791C9.35796 17.2501 10.3221 16.4197 11.8711 16.3713C11.8481 16.2695 11.8139 16.1777 11.7617 16.1008C11.444 15.6326 10.8412 15.4604 10.3209 15.4005C10.1702 15.3831 10.0138 15.3731 9.85651 15.3766H9.85647ZM12.7839 15.4383C12.6667 15.4432 12.5583 15.4789 12.4679 15.5596C12.2745 15.7324 12.2204 16.0285 12.2295 16.3733C12.3966 16.3804 12.5698 16.3952 12.7504 16.4191C13.4168 16.5025 14.0033 16.7079 14.539 17.1611C14.583 17.051 14.603 16.9418 14.5866 16.8329C14.5067 16.3002 14.0026 15.9188 13.5696 15.6869C13.3404 15.5641 13.0418 15.4274 12.7839 15.4382L12.7839 15.4383ZM15.3371 17.3999C15.2251 17.3962 15.1078 17.4827 14.9893 17.6147C15.1296 17.7782 15.2601 17.9551 15.383 18.1399C15.5642 17.8733 15.6689 17.6318 15.4907 17.4695C15.4406 17.4239 15.3894 17.4016 15.3371 17.3999V17.3999ZM7.29809 18.1718C7.03965 18.1834 6.74268 18.4156 6.67658 18.6791C6.60542 18.9628 7.05466 19.1489 7.07209 19.443C7.08839 19.7183 6.82425 19.9339 6.78958 20.207C6.73866 20.6081 6.67276 21.0958 6.82313 21.4544C7.18059 20.9647 7.54697 20.4752 7.80659 19.9842C7.82871 19.9382 7.8516 19.8941 7.87369 19.8489C7.86851 19.1632 7.8866 18.3866 7.46758 18.2016C7.41536 18.1786 7.35772 18.1691 7.29808 18.1718L7.29809 18.1718ZM16.0366 18.6612C15.9584 18.6594 15.8691 18.7173 15.7735 18.8024C15.8989 19.0445 16.0122 19.2924 16.1125 19.5385C16.1907 19.7304 16.254 19.9279 16.3085 20.1294C16.4736 19.6355 16.4596 19.1554 16.169 18.7427C16.1304 18.6879 16.0856 18.6623 16.0366 18.6612V18.6612Z" fill="white"/>
<g filter="url(#filter4_f)">
<path d="M8.79439 24.3926C8.76488 24.1117 9.29699 24.1814 9.54298 24.1252C9.8824 24.0477 10.4906 23.7263 10.5818 24.1027C10.6602 24.4268 10.0534 24.4965 9.76028 24.5581C9.44275 24.6248 8.83236 24.754 8.79433 24.3926L8.79439 24.3926Z" fill="#EC9C98"/>
<path d="M13.7559 23.9896C13.7038 23.615 14.0993 23.6725 14.4359 23.6708C14.689 23.6696 15.0973 23.6649 15.0939 23.95C15.0909 24.1984 14.6706 24.1993 14.4522 24.2333C14.1247 24.2843 13.807 24.3576 13.7559 23.9896V23.9896Z" fill="#EC9C98"/>
</g>
<path d="M7.71097 25.3771C7.57836 25.8724 7.67898 26.0624 7.72096 26.3337C9.40679 25.2353 10.3017 25.193 11.2967 25.017C10.1015 25.0514 8.90619 24.7963 7.71096 25.3771L7.71097 25.3771Z" fill="#F5FAFD" stroke="black"/>
<path d="M7.72095 26.3563C8.67164 25.53 12.9724 23.8577 16.0611 25.5235C16.0611 25.5235 16.2109 26.6264 16.0112 26.6602C15.9487 26.6707 15.6216 26.6039 15.6216 26.6039L15.6316 27.2792L15.9313 27.6281C16.0499 27.8219 15.9491 28.1395 15.6416 28.5734C12.8546 27.026 10.5234 26.5885 7.72125 26.3563L7.72095 26.3563Z" fill="#F5FAFD" stroke="black"/>
<path d="M7.82041 26.3786L7.2311 26.5812C7.15773 27.1709 7.39096 27.2805 7.84035 27.2565L7.43084 27.3015C7.29112 27.4853 7.25459 27.6691 7.3809 27.8529L7.46081 27.9655C7.55799 28.2721 7.55853 28.4201 7.47079 28.697C7.52437 28.987 7.71926 29.1085 7.83037 29.1696C9.61965 27.7047 12.182 27.6042 15.3512 29.3159C15.6469 29.3039 15.6792 28.9953 15.6309 28.5957C13.4907 27.4848 11.4823 26.552 7.82019 26.3786L7.82041 26.3786Z" fill="#F5FAFD" stroke="black"/>
<path d="M9.72777 24.9894C9.16174 24.9878 8.5952 25.0312 8.02923 25.2401C8.03062 25.2711 8.0304 25.302 8.02923 25.3316C8.00469 25.6043 7.98873 25.8885 7.97803 26.1712C9.3092 25.3494 10.1303 25.2085 10.9461 25.075C10.9509 25.0567 10.9557 25.0376 10.9602 25.0193C10.5491 25.0159 10.1389 24.9906 9.72781 24.9894L9.72777 24.9894Z" fill="#9767A1"/>
<path d="M7.97116 26.3862C7.96365 26.6787 7.96209 26.9656 7.96939 27.2337C7.91755 27.3058 7.77904 27.226 7.73102 27.3013C7.65896 27.4145 7.70043 27.5958 7.76103 27.7171C7.81949 27.8342 7.99806 27.8333 8.0506 27.9539C8.09758 28.0617 8.05551 28.1952 8.04001 28.314C8.02498 28.4292 7.94479 28.5371 7.96056 28.6522C7.97773 28.7776 8.02323 28.9172 8.09651 29.0202C9.16241 28.2637 10.4826 27.9364 12.018 28.1488C11.8023 27.7489 10.569 28.1133 10.2577 27.5838C10.214 27.3693 10.3414 26.9863 10.2877 26.6826C10.298 26.6697 10.3081 26.6581 10.3195 26.6488C9.61423 26.5235 8.83955 26.4328 7.97118 26.3862L7.97116 26.3862Z" fill="#9767A1"/>
<path d="M10.9567 25.0334C9.66129 25.3068 8.56127 25.7839 7.97801 26.1673C7.97533 26.2376 7.97277 26.3083 7.97095 26.3782C8.77592 26.4494 9.54507 26.5383 10.2981 26.6707C10.4553 26.4993 10.727 26.7215 10.8261 26.4916C10.9251 26.2617 10.6412 26.1621 10.6371 25.9067C10.6348 25.7624 10.7811 25.6612 10.8172 25.5227C10.8565 25.3724 10.9143 25.2028 10.9567 25.0333L10.9567 25.0334Z" fill="#9767A1"/>
<path d="M8.70972 27.2788C10.1829 27.4271 10.1442 27.7089 11.2966 28.0778" stroke="black"/>
<path d="M10.8949 25.246C10.7573 25.2863 10.6477 25.3316 10.6177 25.3316C10.5378 25.3316 9.91019 25.5163 9.76843 25.7255C9.64879 25.7352 9.50791 25.7614 9.7084 26.0756C9.85356 26.267 10.3953 26.1711 10.8084 26.2706C10.7488 26.1637 10.6397 26.065 10.6372 25.9065C10.6349 25.7622 10.7811 25.661 10.8173 25.5225C10.84 25.4354 10.8699 25.3423 10.8985 25.246C10.8974 25.2463 10.896 25.2457 10.8949 25.246H10.8949Z" fill="#CA97CF"/>
<path d="M8.42935 26.66C8.46865 26.4201 8.86211 26.6325 9.07854 26.6375C9.40558 26.6449 9.78899 26.6252 10.0574 26.7162C10.1562 26.8193 10.2133 27.06 10.1173 27.1664C9.87189 27.4385 9.42934 27.0825 9.09853 26.9751C8.86621 26.8997 8.38543 26.9278 8.42933 26.66L8.42935 26.66Z" fill="#CA97CF"/>
<path d="M8.39957 25.388C8.38746 25.3334 9.07742 25.1501 9.42835 25.1179C9.57801 25.1042 9.86395 24.9832 9.87782 25.1517C9.70212 25.4009 8.50721 25.359 8.43952 25.5681C8.39234 25.5364 8.39957 25.388 8.39957 25.388L8.39957 25.388Z" fill="#CA97CF"/>
<path d="M12.9439 27.352C12.8937 27.3666 12.8415 27.377 12.785 27.3798C12.7151 27.3798 12.6618 27.5893 12.6244 27.7061C12.5744 27.8618 12.5016 28.0324 12.439 28.2035C13.2437 28.3654 14.1061 28.6698 15.0204 29.1286C15.0335 29.0956 15.0473 29.0646 15.0628 29.0351C15.1536 28.8615 15.2517 28.691 15.3223 28.5059C15.331 28.4832 15.3408 28.4591 15.3506 28.4362C14.5723 28.0379 13.7987 27.6665 12.944 27.352L12.9439 27.352Z" fill="#BD95B8"/>
<path d="M13.3343 24.8278C13.3949 24.94 13.4798 25.0594 13.4844 25.1739C13.4903 25.3239 13.4649 25.4863 13.3943 25.6136C13.2688 25.754 13.0981 25.8438 13.0853 26.0533C13.08 26.169 13.1383 26.237 13.1948 26.3338C13.2548 26.4366 13.3755 26.505 13.3943 26.6262C13.408 27 13.2336 27.2645 12.9529 27.3504C13.7347 27.6208 14.5302 27.9647 15.363 28.4068C15.5066 28.0804 15.7321 27.7336 15.6314 27.4022C15.5252 27.0526 14.8719 27.1387 14.8227 26.7735C14.7993 26.5991 14.9671 26.4214 15.1123 26.3557C15.1997 26.3161 15.3173 26.4672 15.3913 26.4015C15.6156 26.2022 15.5942 25.683 15.4778 25.2456C14.7898 24.9816 14.0606 24.8546 13.3342 24.8278L13.3343 24.8278Z" fill="#BD95B8"/>
<path d="M13.2895 25.7019C13.1777 25.8075 13.0599 25.9007 13.0494 26.0739C13.0465 26.1378 13.0633 26.1872 13.0883 26.2351C13.8784 26.3875 14.3091 26.5513 14.7886 26.7185C14.812 26.5709 14.9522 26.4326 15.0764 26.3763C15.1638 26.3368 15.2814 26.4878 15.3554 26.4221C15.3831 26.3975 15.4073 26.3681 15.4278 26.3345C14.7986 25.9038 14.0887 25.6857 13.2895 25.7019V25.7019Z" fill="#966495"/>
<path d="M13.2931 26.9611C13.1784 27.1446 14.8012 28.517 15.5267 27.9259L13.2931 26.9611Z" fill="#96719C"/>
<path d="M15.847 27.5875C14.9851 26.6648 13.6036 26.4569 13.7154 26.3926C13.7154 26.3926 14.9074 26.5916 15.6335 27.2001" fill="black"/>
<path d="M7.71097 25.3771C7.57836 25.8724 7.67898 26.0624 7.72096 26.3337C9.40679 25.2353 10.3017 25.193 11.2967 25.017C10.1015 25.0514 8.90619 24.7963 7.71096 25.3771L7.71097 25.3771Z" stroke="black"/>
<path d="M7.72095 26.3563C8.67164 25.53 12.9724 23.8577 16.0611 25.5235C16.0611 25.5235 16.2109 26.6264 16.0112 26.6602C15.9487 26.6707 15.6216 26.6039 15.6216 26.6039L15.6316 27.2792L15.9313 27.6281C16.0499 27.8219 15.9491 28.1395 15.6416 28.5734C12.8546 27.026 10.5234 26.5885 7.72125 26.3563L7.72095 26.3563Z" stroke="black"/>
<path d="M7.82041 26.3786L7.2311 26.5812C7.15773 27.1709 7.39096 27.2805 7.84035 27.2565L7.43084 27.3015C7.29112 27.4853 7.25459 27.6691 7.3809 27.8529L7.46081 27.9655C7.55799 28.2721 7.55853 28.4201 7.47079 28.697C7.52437 28.987 7.71926 29.1085 7.83037 29.1696C9.61965 27.7047 12.182 27.6042 15.3512 29.3159C15.6469 29.3039 15.6792 28.9953 15.6309 28.5957C13.4907 27.4848 11.4823 26.552 7.82019 26.3786L7.82041 26.3786Z" stroke="black"/>
<path d="M7.92093 29.0422C7.59515 29.629 7.40998 30.2957 7.38517 30.9871C7.34661 32.0048 7.27667 33.0279 7.16127 34.0591C7.11087 35.3556 7.19775 36.6663 6.98213 37.9487C6.76976 38.3683 6.24614 38.4396 5.97714 38.7185C5.93252 38.7648 6.02117 38.8769 5.98481 38.9332C5.52304 39.1573 4.95491 38.901 4.51505 38.8951C4.30568 38.8924 4.14082 39.0247 4.00151 39.1465C3.87407 39.3164 3.88423 39.6664 3.74691 39.8984C3.59803 40.1499 3.33067 40.3209 3.54097 40.5784C3.60247 40.6537 3.24256 40.5525 3.12799 40.5432C2.5475 40.4201 2.71451 41.5583 2.06328 41.4481C1.75022 41.4504 0.77675 42.4842 1.76348 41.9953C2.06328 41.8228 2.59291 41.6001 2.12418 42.014C2.02365 42.1308 1.66783 42.2521 1.76167 42.4094C1.92643 42.6854 2.30208 42.1412 2.57229 42.0071C2.28718 42.3548 2.44956 42.5202 2.80332 42.2915C2.72556 42.4812 2.68393 42.5322 2.7546 42.5996C2.91822 42.7558 3.23943 42.3268 3.36058 42.3567C3.45305 42.3795 3.43012 42.5887 3.5192 42.6329C3.68704 42.7161 3.91938 42.1573 4.12026 42.6045C5.11428 42.4193 6.12701 42.4485 7.12985 42.3619C7.35851 42.3556 7.59424 42.2856 7.79199 42.4314C8.25076 42.21 8.37254 41.5584 8.70901 41.1887C8.91775 40.9018 9.81869 40.8244 9.24477 40.3907C9.13156 40.0376 9.93199 39.7998 9.49141 39.4503C9.40877 39.2685 8.95765 38.9899 9.28165 38.8715C9.69556 38.6688 9.69237 38.2276 9.70542 37.8155C9.71381 34.5826 10.4245 31.4992 10.0833 28.1979C9.37961 28.3805 8.68159 28.5297 7.92091 29.042L7.92093 29.0422Z" fill="#FBF6FC" stroke="black"/>
<path d="M8.21866 29.3006C8.08421 29.2994 7.92008 29.3336 7.75253 29.3802C7.53124 29.8797 7.40542 30.424 7.38527 30.9857C7.34671 32.0034 7.27643 33.0283 7.16103 34.0594C7.11062 35.3559 7.19832 36.6663 6.9827 37.9489C6.77033 38.3685 6.24705 38.4398 5.97805 38.7188C5.93343 38.7651 6.02147 38.8774 5.98511 38.9337C5.52334 39.1578 4.95419 38.8997 4.51433 38.8939C4.30496 38.8911 4.1416 39.0247 4.00229 39.1466C3.87485 39.3165 3.88358 39.6666 3.74627 39.8985C3.68476 40.0024 3.60313 40.0909 3.54321 40.1791C4.42039 40.3891 5.42047 40.3334 6.47777 39.9363C6.80118 39.8149 5.66743 39.8582 5.01225 39.8985C7.59237 39.4542 10.1712 34.281 9.10683 34.3579C8.76775 34.3823 8.17191 36.8994 7.75612 37.0556C7.42161 37.1812 7.39891 36.2391 7.5566 35.8838C8.51525 33.7234 7.87618 32.2357 7.87618 30.5719C7.87618 30.2356 8.60369 29.6469 8.51532 29.4479C8.46865 29.3427 8.3597 29.3019 8.21869 29.3006L8.21866 29.3006Z" fill="#EAE8EB"/>
<path d="M10.0833 28.1989C9.37958 28.3814 8.68105 28.5301 7.92038 29.0424C7.78351 29.2889 7.67243 29.5497 7.58667 29.8203C7.96032 29.6793 8.4365 29.77 8.85444 29.7288L9.09811 29.884L9.35236 29.7208L9.4689 29.2155C9.68437 29.1078 9.91772 29.1128 10.154 29.1339C10.139 28.824 10.1157 28.5124 10.0833 28.1989L10.0833 28.1989Z" fill="#97669D" stroke="black"/>
<path d="M5.84839 39.0074L7.54636 38.9511L5.97326 38.8611" fill="black"/>
<path d="M3.42121 40.5888C4.6657 41.0591 5.46966 39.988 6.98695 40.3299C7.26782 40.3932 7.74604 40.7013 7.74604 40.7013C8.29531 40.6341 8.69662 40.8085 9.15145 40.8876C8.8233 40.9896 8.58327 41.1794 8.46767 41.461L8.32285 41.3653C8.32285 41.3653 6.83523 41.25 6.30027 41.25C5.38648 41.3935 5.21008 41.6235 5.29399 41.5257C5.30461 41.2635 5.09276 41.4122 4.75962 41.2978C4.57842 41.2355 4.36904 41.5723 4.38007 41.4666C4.3932 41.3409 4.36552 41.2309 4.21527 41.1909C4.02294 41.1396 3.79677 41.5251 3.70838 41.3259C3.68983 41.2841 3.7541 41.0122 3.61099 41.0952C3.33524 41.2551 2.71268 41.1965 2.62307 41.1718C2.51281 41.1414 2.85855 40.5769 2.93583 40.5999C3.02554 40.6265 3.17668 40.5304 3.42123 40.5888L3.42121 40.5888Z" fill="#906593"/>
<path d="M3.55619 40.6505C3.91473 40.7871 4.31765 40.8359 4.67864 40.683C4.87544 40.5327 5.08972 40.5609 5.29416 40.4313C5.64068 40.3172 6.05072 40.3828 6.40747 40.3633C6.63397 40.3596 6.86052 40.3625 7.08695 40.3692C6.53642 40.3056 5.98077 40.2378 5.42762 40.3016C5.1641 40.3967 4.89585 40.4764 4.63621 40.5835C4.36183 40.7446 4.06012 40.6827 3.74168 40.5943C3.67981 40.5911 3.61794 40.5879 3.55615 40.583" fill="black"/>
<path d="M9.11535 28.4902C9.44446 28.7174 9.47701 29.2586 9.34619 29.5786C9.30224 29.6958 9.22244 29.8223 9.09991 29.8324C9.03638 29.8401 8.95232 29.7995 8.95541 29.7166C8.95547 29.5825 9.02723 29.4663 9.09064 29.3591C9.11403 29.3216 9.05609 29.3977 9.04147 29.4143C8.96257 29.5126 8.88249 29.6242 8.86757 29.7599C8.86171 29.9009 8.92301 29.9937 9.05701 29.9893C9.83306 29.7045 9.40495 28.8926 9.37925 28.5259C9.39151 28.4702 9.4338 28.433 9.46849 28.3947" fill="black"/>
<path d="M2.54028 41.207C2.65952 41.2418 2.81892 41.0569 2.87929 41.4139C2.85009 41.2576 3.45905 41.0343 3.59968 41.1115C3.69546 41.164 3.75153 41.4616 3.75153 41.4616C3.69547 41.3719 4.15527 41.0851 4.37655 41.2547C4.40589 41.2772 4.39974 41.5064 4.39974 41.5064C4.39974 41.5064 4.46225 41.2946 4.54433 41.3061C4.65834 41.3221 4.99446 41.3023 5.16522 41.335C5.40213 41.3804 5.29595 41.5587 5.29529 41.5588C5.30947 41.2791 6.69516 41.2221 7.04626 41.2388C7.18034 41.2452 8.33166 41.305 8.33166 41.382C8.33166 41.7996 7.56884 41.919 7.72427 42.4006" stroke="black"/>
<path d="M8.11295 37.3082C7.98006 37.3246 7.9145 37.5686 7.781 37.6266C7.54588 37.7285 7.27994 37.6614 7.0253 37.6663C7.01257 37.7606 6.99872 37.8549 6.98292 37.9488C6.77055 38.3684 6.24728 38.4398 5.97827 38.7188C5.93365 38.7651 6.0217 38.8774 5.98534 38.9337C5.9807 38.9359 5.97587 38.9375 5.97121 38.9396C6.53495 38.928 7.22961 38.7965 7.59737 39.1226C7.75437 39.2619 7.8013 39.5268 7.81632 39.7513C7.8243 39.8707 7.70459 39.9911 7.74569 40.1015C7.79599 40.2366 7.95471 40.2845 8.07763 40.3322C8.25904 40.4027 8.45799 40.4123 8.64971 40.4039C8.81257 40.3967 8.96715 40.2919 9.12997 40.3004C9.16408 40.3022 9.19949 40.3083 9.23415 40.3183C9.23619 40.0033 9.90227 39.7744 9.49193 39.4489C9.40929 39.2672 8.95783 38.9884 9.28182 38.87C9.69573 38.6673 9.69253 38.2277 9.70558 37.8156C9.70595 37.6714 9.70786 37.5276 9.71087 37.3839C9.25243 37.3934 8.63288 37.3628 8.14121 37.3083C8.13172 37.3072 8.12182 37.3072 8.11296 37.3083L8.11295 37.3082Z" fill="#916296"/>
<path d="M7.4729 38.8431C8.10605 38.5254 8.7991 38.256 9.18206 37.7369C9.14515 38.1147 9.13931 38.4697 9.35863 38.6601C9.16555 38.7362 9.05271 38.8731 8.93487 39.0341C8.49066 38.6951 7.9687 38.8525 7.4729 38.8431Z" fill="#BB94C3"/>
<path d="M7.73096 39.2174C8.00454 39.4566 8.24225 39.6974 8.03465 39.9575C8.37366 39.7723 8.71267 39.941 9.05167 40.0609L9.12936 39.8381C8.72328 39.5056 8.26868 39.2746 7.73096 39.2174Z" fill="#BB94C3"/>
<path d="M9.21084 40.3195C8.82151 40.3471 8.46276 40.5065 8.20088 40.4309C8.00768 40.3678 7.91016 40.1324 7.71709 40.0688C7.55439 40.0153 7.37224 40.1658 7.21564 40.0927C7.11106 40.0439 7.10264 40.0014 7.10264 39.8739C7.10264 39.7613 7.07944 39.7016 7.17326 39.663C7.32864 39.5991 7.70296 39.6789 7.70296 39.6789C7.70296 39.6789 7.33209 39.6307 7.25802 39.7744C7.22646 39.8356 7.24987 39.9392 7.30039 39.9813C7.45984 40.114 7.56585 39.9056 7.7524 39.9813C7.88715 40.0359 8.09901 40.2616 8.23266 40.3195C8.54919 40.4567 9.22143 40.2359 9.22143 40.2359" fill="black"/>
<path d="M7.74622 38.1918C8.46277 37.8512 8.65611 36.9831 8.93478 36.1942C8.60312 36.9181 8.42638 37.78 7.67627 38.1637" fill="black"/>
<path d="M7.37165 38.1861C7.66085 37.9879 7.95548 37.6555 8.16572 37.2971C7.85258 37.7407 7.5224 38.0534 7.30176 38.1524" fill="black"/>
<path d="M10.1043 32.0089C9.50489 32.0301 9.05627 32.1209 8.68647 32.3949C8.45622 32.5654 8.08536 32.3331 7.76482 32.4068C7.61242 32.4419 7.45924 32.535 7.29516 32.6197C7.25966 33.098 7.21486 33.5785 7.16097 34.0601C7.14986 34.3458 7.14579 34.6309 7.14331 34.9175C7.16437 34.9166 7.18582 34.9149 7.20687 34.9156C7.61581 34.9288 8.0223 35.0485 8.4234 35.011C8.71712 34.9836 8.96869 34.7918 9.25504 34.7644C9.45976 34.7447 9.66593 34.7461 9.87125 34.7584C9.95142 33.8424 10.0424 32.9283 10.1043 32.0089V32.0089Z" fill="#BF94BF"/>
<path d="M7.87735 32.3941C7.70042 32.3833 7.48222 32.6242 7.31423 32.6028C7.31038 32.584 7.30697 32.5702 7.30311 32.5527C7.29557 32.5567 7.28847 32.5613 7.28088 32.5652C7.24364 33.067 7.19664 33.5712 7.14011 34.0763C7.12845 34.3761 7.12418 34.6752 7.12158 34.9759C7.14368 34.9749 7.16618 34.9731 7.18826 34.9738C7.41147 34.981 7.63374 35.0181 7.85509 35.0469C7.84812 34.827 7.67441 34.5973 7.71246 34.4687C7.75646 34.32 7.94638 34.3099 7.98476 34.1369C8.02781 33.9428 7.76758 33.6098 7.7847 33.5712C7.85119 33.4214 8.12812 33.3391 8.01625 33.087C7.99404 33.0369 7.76561 32.9276 7.7847 32.8846C7.82949 32.7836 8.14249 32.6857 8.03663 32.5068C7.99027 32.4284 7.9363 32.3977 7.87732 32.3941L7.87735 32.3941Z" fill="#97669D"/>
<path d="M9.36264 33.3274C9.32927 33.3453 8.79424 34.8479 8.74463 34.714C8.75585 34.7488 8.78413 34.8188 8.81879 34.8951C8.96183 34.8373 9.1038 34.7783 9.25491 34.7637C9.29668 34.7597 9.3384 34.7561 9.38027 34.7538C9.4789 34.3524 9.36438 33.8069 9.36438 33.3293C9.36438 33.3267 9.36369 33.3268 9.36261 33.3273L9.36264 33.3274Z" fill="#97669D"/>
<path d="M8.3457 29.537L8.91003 29.492L8.94499 28.8561L8.3457 29.537Z" fill="#BF94BF"/>
<path d="M9.62364 28.5636C9.58166 28.4664 9.85665 28.3038 9.88832 28.3217C10.1334 28.4598 9.9841 28.8304 9.76846 28.9519C9.73026 28.9734 9.74129 29.0376 9.71353 29.0532C9.70002 29.0608 9.68008 29.0463 9.66858 29.0419C9.48024 28.9712 9.66374 28.8559 9.69355 28.7887C9.7085 28.755 9.63136 28.6158 9.62364 28.5636L9.62364 28.5636Z" fill="#BF94BF"/>
<path d="M7.92093 29.0422C7.59515 29.629 7.40998 30.2957 7.38517 30.9871C7.34661 32.0048 7.27667 33.0279 7.16127 34.0591C7.11087 35.3556 7.19775 36.6663 6.98213 37.9487C6.76976 38.3683 6.24614 38.4396 5.97714 38.7185C5.93252 38.7648 6.02117 38.8769 5.98481 38.9332C5.52304 39.1573 4.95491 38.901 4.51505 38.8951C4.30568 38.8924 4.14082 39.0247 4.00151 39.1465C3.87407 39.3164 3.88423 39.6664 3.74691 39.8984C3.59803 40.1499 3.33067 40.3209 3.54097 40.5784C3.60247 40.6537 3.24256 40.5525 3.12799 40.5432C2.5475 40.4201 2.71451 41.5583 2.06328 41.4481C1.75022 41.4504 0.77675 42.4842 1.76348 41.9953C2.06328 41.8228 2.59291 41.6001 2.12418 42.014C2.02365 42.1308 1.66783 42.2521 1.76167 42.4094C1.92643 42.6854 2.30208 42.1412 2.57229 42.0071C2.28718 42.3548 2.44956 42.5202 2.80332 42.2915C2.72556 42.4812 2.68393 42.5322 2.7546 42.5996C2.91822 42.7558 3.23943 42.3268 3.36058 42.3567C3.45305 42.3795 3.43012 42.5887 3.5192 42.6329C3.68704 42.7161 3.91938 42.1573 4.12026 42.6045C5.11428 42.4193 6.12701 42.4485 7.12985 42.3619C7.35851 42.3556 7.59424 42.2856 7.79199 42.4314C8.25076 42.21 8.37254 41.5584 8.70901 41.1887C8.91775 40.9018 9.81869 40.8244 9.24477 40.3907C9.13156 40.0376 9.93199 39.7998 9.49141 39.4503C9.40877 39.2685 8.95765 38.9899 9.28165 38.8715C9.69556 38.6688 9.69237 38.2276 9.70542 37.8155C9.71381 34.5826 10.4245 31.4992 10.0833 28.1979C9.37961 28.3805 8.68159 28.5297 7.92091 29.042L7.92093 29.0422Z" stroke="black"/>
<path d="M86.0379 5.26178H5.9621C3.22161 5.26178 1 7.61756 1 10.5236V64.7382C1 67.6442 3.22161 70 5.9621 70H86.0379C88.7784 70 91 67.6442 91 64.7382V10.5236C91 7.61756 88.7784 5.26178 86.0379 5.26178Z" fill="#F4F4F4"/>
<path d="M5.9621 0C3.21309 0 1 2.34675 1 5.26177V11.5338H91V5.26177C91 2.34675 88.7869 0 86.0379 0H5.9621V0Z" fill="#66CCFF"/>
<path d="M30.4145 20.0453H5.85677C5.0016 20.0453 4.30835 20.6376 4.30835 21.3682C4.30835 22.0987 5.0016 22.691 5.85677 22.691H30.4145C31.2697 22.691 31.963 22.0987 31.963 21.3682C31.963 20.6376 31.2697 20.0453 30.4145 20.0453Z" fill="#B1B1B1"/>
<path d="M30.4145 25.4808H5.85677C5.0016 25.4808 4.30835 26.073 4.30835 26.8036C4.30835 27.5342 5.0016 28.1264 5.85677 28.1264H30.4145C31.2697 28.1264 31.963 27.5342 31.963 26.8036C31.963 26.073 31.2697 25.4808 30.4145 25.4808Z" fill="#B1B1B1"/>
<path d="M30.4145 30.9161H5.85677C5.0016 30.9161 4.30835 31.5084 4.30835 32.2389C4.30835 32.9695 5.0016 33.5618 5.85677 33.5618H30.4145C31.2697 33.5618 31.963 32.9695 31.963 32.2389C31.963 31.5084 31.2697 30.9161 30.4145 30.9161Z" fill="#B1B1B1"/>
<path d="M87.6904 15.0434H37.928V38.5641H87.6904V15.0434Z" fill="#D2D2D2"/>
<path d="M86.8144 15.88H38.8062V37.7264H86.8144V15.88Z" fill="#B1B1B1"/>
<path d="M84.324 44.7856H38.5552C38.2088 44.7856 37.928 45.0834 37.928 45.4508C37.928 45.8181 38.2088 46.1159 38.5552 46.1159H84.324C84.6704 46.1159 84.9513 45.8181 84.9513 45.4508C84.9513 45.0834 84.6704 44.7856 84.324 44.7856Z" fill="#B1B1B1"/>
<path d="M84.2372 48.8608H38.5552C38.2088 48.8608 37.928 49.1586 37.928 49.526C37.928 49.8933 38.2088 50.1911 38.5552 50.1911H84.2372C84.5836 50.1911 84.8644 49.8933 84.8644 49.526C84.8644 49.1586 84.5836 48.8608 84.2372 48.8608Z" fill="#B1B1B1"/>
<path d="M73.5339 52.9361H38.5552C38.2088 52.9361 37.928 53.2339 37.928 53.6012C37.928 53.9686 38.2088 54.2664 38.5552 54.2664H73.5339C73.8804 54.2664 74.1612 53.9686 74.1612 53.6012C74.1612 53.2339 73.8804 52.9361 73.5339 52.9361Z" fill="#B1B1B1"/>
<path d="M71.7798 57.0114H38.5552C38.2088 57.0114 37.928 57.3091 37.928 57.6765C37.928 58.0438 38.2088 58.3416 38.5552 58.3416H71.7798C72.1263 58.3416 72.4071 58.0438 72.4071 57.6765C72.4071 57.3091 72.1263 57.0114 71.7798 57.0114Z" fill="#B1B1B1"/>
<path d="M73.9731 61.0865H38.5552C38.2088 61.0865 37.928 61.3843 37.928 61.7517C37.928 62.119 38.2088 62.4168 38.5552 62.4168H73.9731C74.3195 62.4168 74.6003 62.119 74.6003 61.7517C74.6003 61.3843 74.3195 61.0865 73.9731 61.0865Z" fill="#B1B1B1"/>
<path d="M76.6923 65.1618H38.5552C38.2088 65.1618 37.928 65.4596 37.928 65.8269C37.928 66.1943 38.2088 66.4921 38.5552 66.4921H76.6923C77.0387 66.4921 77.3196 66.1943 77.3196 65.8269C77.3196 65.4596 77.0387 65.1618 76.6923 65.1618Z" fill="#B1B1B1"/>
<path d="M84.324 40.7103H38.5552C38.2088 40.7103 37.928 41.0081 37.928 41.3755C37.928 41.7428 38.2088 42.0406 38.5552 42.0406H84.324C84.6704 42.0406 84.9513 41.7428 84.9513 41.3755C84.9513 41.0081 84.6704 40.7103 84.324 40.7103Z" fill="#B1B1B1"/>
<path d="M30.7178 42.6019H5.5566C4.86762 42.6019 4.30908 43.1942 4.30908 43.9248V65.1696C4.30908 65.9002 4.86762 66.4925 5.5566 66.4925H30.7178C31.4068 66.4925 31.9653 65.9002 31.9653 65.1696V43.9248C31.9653 43.1942 31.4068 42.6019 30.7178 42.6019Z" fill="#B1B1B1"/>
<path d="M85.5614 8.53167C87.0014 8.53167 88.1688 7.29383 88.1688 5.76687C88.1688 4.23992 87.0014 3.00208 85.5614 3.00208C84.1214 3.00208 82.9541 4.23992 82.9541 5.76687C82.9541 7.29383 84.1214 8.53167 85.5614 8.53167Z" fill="#F4F4F4"/>
<path d="M77.7387 8.53167C79.1787 8.53167 80.346 7.29383 80.346 5.76687C80.346 4.23992 79.1787 3.00208 77.7387 3.00208C76.2987 3.00208 75.1313 4.23992 75.1313 5.76687C75.1313 7.29383 76.2987 8.53167 77.7387 8.53167Z" fill="#D2D2D2"/>
<defs>
<filter id="filter0_f" x="7.91921" y="20.417" width="3.89048" height="4.51788" filterUnits="userSpaceOnUse" color-interpolation-filters="sRGB">
<feFlood flood-opacity="0" result="BackgroundImageFix"/>
<feBlend mode="normal" in="SourceGraphic" in2="BackgroundImageFix" result="shape"/>
<feGaussianBlur stdDeviation="0.5985" result="effect1_foregroundBlur"/>
</filter>
<filter id="filter1_f" x="12.3262" y="20.1772" width="3.27632" height="3.15722" filterUnits="userSpaceOnUse" color-interpolation-filters="sRGB">
<feFlood flood-opacity="0" result="BackgroundImageFix"/>
<feBlend mode="normal" in="SourceGraphic" in2="BackgroundImageFix" result="shape"/>
<feGaussianBlur stdDeviation="0.5675" result="effect1_foregroundBlur"/>
</filter>
<filter id="filter2_f" x="12.1841" y="20.6047" width="2.59892" height="2.60228" filterUnits="userSpaceOnUse" color-interpolation-filters="sRGB">
<feFlood flood-opacity="0" result="BackgroundImageFix"/>
<feBlend mode="normal" in="SourceGraphic" in2="BackgroundImageFix" result="shape"/>
<feGaussianBlur stdDeviation="0.5675" result="effect1_foregroundBlur"/>
</filter>
<filter id="filter3_f" x="11.9758" y="21.3194" width="3.6167" height="3.21167" filterUnits="userSpaceOnUse" color-interpolation-filters="sRGB">
<feFlood flood-opacity="0" result="BackgroundImageFix"/>
<feBlend mode="normal" in="SourceGraphic" in2="BackgroundImageFix" result="shape"/>
<feGaussianBlur stdDeviation="0.5675" result="effect1_foregroundBlur"/>
</filter>
<filter id="filter4_f" x="5.12401" y="19.9994" width="13.6391" height="8.30602" filterUnits="userSpaceOnUse" color-interpolation-filters="sRGB">
<feFlood flood-opacity="0" result="BackgroundImageFix"/>
<feBlend mode="normal" in="SourceGraphic" in2="BackgroundImageFix" result="shape"/>
<feGaussianBlur stdDeviation="1.8346" result="effect1_foregroundBlur"/>
</filter>
</defs>
</svg>
